<svg xmlns="http://www.w3.org/2000/svg" viewBox="0 0 1080 1080"><defs><style>      .cls-1 {        fill: #caf6ff;      }      .cls-2 {        fill: #00b8de;      }    </style></defs><g><g id="Capa_1"><g><path id="Rect&#xE1;ngulo_2305" class="cls-1" d="M539.58.42h0c298.23,0,540,241.77,540,540h0c0,298.23-241.77,540-540,540h0C241.35,1080.42-.42,838.65-.42,540.42H-.42C-.42,242.19,241.35.42,539.58.42Z"></path><g id="cheque"><path id="Trazado_12773" class="cls-2" d="M723.77,391.8l-216.18,216.16-99.08-99.08c-14.37-15.45-38.55-16.33-54-1.97s-16.33,38.55-1.97,54c.63.68,1.29,1.33,1.97,1.97l126.1,126.1c7.16,7.17,16.88,11.19,27.02,11.19h0c10.13,0,19.85-4.03,27.02-11.19l243.2-243.2c14.37-15.45,13.49-39.63-1.97-54-14.67-13.63-37.37-13.63-52.03,0l-.07.02Z"></path></g></g></g></g></svg>