<svg xmlns="http://www.w3.org/2000/svg" width="24" height="23.664" viewBox="0 0 24 23.664"><path id="comenta-alt-check" d="M17.712,6.3a1,1,0,0,1-.01,1.414l-5.793,5.707A1.98,1.98,0,0,1,10.5,14a2,2,0,0,1-1.416-.585L6.3,10.718A1,1,0,0,1,7.7,9.282l2.793,2.707,5.809-5.7a1,1,0,0,1,1.414.011ZM24,4V16a4,4,0,0,1-4,4H17.148L13.3,23.18a1.939,1.939,0,0,1-1.293.484,2.011,2.011,0,0,1-1.337-.507L6.923,20H4a4,4,0,0,1-4-4V4A4,4,0,0,1,4,0H20a4,4,0,0,1,4,4ZM22,4a2,2,0,0,0-2-2H4A2,2,0,0,0,2,4V16a2,2,0,0,0,2,2H7.289a1,1,0,0,1,.645.235l4.047,3.41,4.17-3.416A1,1,0,0,1,16.789,18H20a2,2,0,0,0,2-2V4Z" fill="#8e97ef"></path></svg>