<svg xmlns="http://www.w3.org/2000/svg" width="21.169" height="21.169" viewBox="0 0 21.169 21.169"><path id="dias-del-calendario" d="M16.759,1.782V1.323a1.323,1.323,0,0,0-2.646,0v.441H7.056V1.323a1.323,1.323,0,0,0-2.646,0v.459A4.867,4.867,0,0,0,0,6.615v9.7a4.86,4.86,0,0,0,4.851,4.851H16.318a4.86,4.86,0,0,0,4.851-4.851v-9.7A4.867,4.867,0,0,0,16.759,1.782ZM8.821,12.349V8.821h3.528v3.528ZM12.349,15v3.528H8.821V15Zm-9.7-6.174H6.174v3.528H2.646ZM15,8.821h3.528v3.528H15ZM4.851,4.41H16.318a2.205,2.205,0,0,1,2.161,1.764H2.69A2.205,2.205,0,0,1,4.851,4.41ZM2.646,16.318V15H6.174v3.528H4.851A2.206,2.206,0,0,1,2.646,16.318Zm13.672,2.205H15V15h3.528v1.323A2.206,2.206,0,0,1,16.318,18.523Z" fill="#3d4aba"></path></svg>