<svg xmlns="http://www.w3.org/2000/svg" xmlns:xlink="http://www.w3.org/1999/xlink" id="Group_580" data-name="Group 580" width="127.551" height="72.763" viewBox="0 0 127.551 72.763"><defs><clipPath id="clip-path"><rect id="Rectangle_2296" data-name="Rectangle 2296" width="127.551" height="72.763" fill="none"></rect></clipPath><clipPath id="clip-path-3"><rect id="Rectangle_2288" data-name="Rectangle 2288" width="40.708" height="23.867" fill="none"></rect></clipPath><clipPath id="clip-path-4"><rect id="Rectangle_2289" data-name="Rectangle 2289" width="17.922" height="10.238" fill="none"></rect></clipPath><clipPath id="clip-path-5"><rect id="Rectangle_2290" data-name="Rectangle 2290" width="115.079" height="16.843" fill="none"></rect></clipPath><clipPath id="clip-path-6"><rect id="Rectangle_2291" data-name="Rectangle 2291" width="13.6" height="14.519" fill="none"></rect></clipPath><clipPath id="clip-path-7"><rect id="Rectangle_2292" data-name="Rectangle 2292" width="9.922" height="15.731" fill="none"></rect></clipPath><clipPath id="clip-path-8"><rect id="Rectangle_2293" data-name="Rectangle 2293" width="13.615" height="14.552" fill="none"></rect></clipPath><clipPath id="clip-path-9"><rect id="Rectangle_2294" data-name="Rectangle 2294" width="18.002" height="10.238" fill="none"></rect></clipPath></defs><g id="Group_571" data-name="Group 571" clip-path="url(#clip-path)"><g id="Group_570" data-name="Group 570"><g id="Group_569" data-name="Group 569" clip-path="url(#clip-path)"><g id="Group_550" data-name="Group 550" transform="translate(83.099)" style="mix-blend-mode: multiply;isolation: isolate"><g id="Group_549" data-name="Group 549"><g id="Group_548" data-name="Group 548" clip-path="url(#clip-path-3)"><path id="Path_12722" data-name="Path 12722" d="M340.116,13.708a13.34,13.34,0,0,0,1.46-7.634,13.3,13.3,0,0,0-9.781,2.876A13.3,13.3,0,0,0,326.911,0a13.3,13.3,0,0,0-4.883,8.951,13.3,13.3,0,0,0-9.781-2.877,13.339,13.339,0,0,0,1.461,7.634,13.35,13.35,0,0,0-7.15,3.048,13.317,13.317,0,0,0,17.922,5.607,4.72,4.72,0,0,1-1.811-1.906c-.018-.034-.035-.07-.052-.1-.024-.05-.048-.1-.07-.152s-.036-.083-.053-.126-.037-.094-.055-.142-.033-.092-.049-.138-.03-.094-.044-.141-.028-.095-.041-.143-.024-.1-.036-.148-.021-.094-.031-.142-.019-.108-.028-.163-.015-.088-.021-.133c-.008-.063-.014-.127-.02-.191,0-.037-.008-.074-.01-.111q-.011-.153-.011-.309c0-.124.006-.247.016-.369,0-.039.007-.078.012-.117.008-.083.02-.166.032-.248.007-.043.013-.086.022-.129.017-.088.036-.176.058-.262.015-.061.031-.121.049-.181s.042-.143.067-.213.041-.112.062-.167.04-.1.062-.151.049-.114.076-.17.05-.1.076-.15.044-.089.069-.132h0a4.615,4.615,0,0,1,.317-.483c.07-.1.145-.189.223-.279.033-.038.065-.077.1-.115s.076-.08.114-.119.1-.1.148-.144c.029-.027.057-.054.087-.081q.126-.112.26-.214l.046-.033c.088-.066.179-.129.272-.188l.025-.016a4.665,4.665,0,0,1,1.432-.6v0a4.67,4.67,0,0,1,2.269.033l0,0a4.689,4.689,0,0,1,2.242,1.35l.023.025c.072.079.141.161.208.245l.034.043a4.691,4.691,0,0,1,.564.935c.012.027.023.055.035.082.034.079.065.158.095.239.013.036.026.071.038.107.03.089.058.18.083.272.006.021.012.041.018.061.028.11.052.223.072.336.007.034.011.068.016.1.014.086.025.174.034.262,0,.036.007.071.01.106.009.12.016.24.016.362q0,.156-.01.309c0,.029-.006.057-.009.086-.006.073-.012.147-.022.219,0,.03-.01.06-.014.09-.011.071-.022.141-.036.211-.005.027-.012.054-.018.081-.016.072-.032.144-.051.216l-.019.064c-.022.076-.044.152-.069.227l-.017.046q-.043.122-.091.24l-.011.024c-.037.087-.075.172-.117.256h0a4.724,4.724,0,0,1-1.777,1.935,13.314,13.314,0,0,0,18-5.564,13.346,13.346,0,0,0-7.15-3.049" transform="translate(-306.557)" fill="#fff"></path></g></g></g><g id="Group_553" data-name="Group 553" transform="translate(83.099 13.629)" style="mix-blend-mode: multiply;isolation: isolate"><g id="Group_552" data-name="Group 552"><g id="Group_551" data-name="Group 551" clip-path="url(#clip-path-4)"><path id="Path_12723" data-name="Path 12723" d="M322.149,54.965a4.666,4.666,0,0,1,.6-2.29,13.311,13.311,0,0,0-16.19.729,13.317,13.317,0,0,0,17.922,5.607,4.68,4.68,0,0,1-2.331-4.047" transform="translate(-306.558 -50.277)" fill="#57a11f"></path></g></g></g><path id="Path_12724" data-name="Path 12724" d="M314.846,97.311c.96,0,.7-1.041.7-1.041l-1.632-10.913s-.657-5.705-3.383-7.711c-4.652-3.421-10.337-6.83-10.9-7.285s-1.85-.266-.677,1.219a45.549,45.549,0,0,0,4,3.919s1.078,1.318.281,1.95c-.423.335-1.287-.243-1.99-.946s-4.1-4.042-4.684-4.787a4.457,4.457,0,0,1-.88-1.578c-.246-.77-.938-7-1.162-7.7a.95.95,0,0,0-1.76.677c.137,1.489-.117,8.195.4,9.37a15.507,15.507,0,0,0,2.164,3.248c1.419,1.846,8.447,10.033,8.447,10.033a5.413,5.413,0,0,1,1.487,3.382c0,.871-.135,4.343-.169,5.95a.712.712,0,0,0,.52.757c1.851.446,8.29,1.458,9.245,1.458" transform="translate(-213.391 -45.148)" fill="#00244d"></path><path id="Path_12725" data-name="Path 12725" d="M387.057,97.311c-.96,0-.7-1.041-.7-1.041l1.632-10.913s.658-5.705,3.382-7.711c4.653-3.421,10.338-6.83,10.9-7.285s1.85-.266.676,1.219a45.51,45.51,0,0,1-3.994,3.919s-1.076,1.318-.281,1.95c.424.335,1.288-.243,1.991-.946s4.1-4.042,4.682-4.787a4.481,4.481,0,0,0,.882-1.578c.245-.77.937-7,1.16-7.7a.95.95,0,0,1,1.76.677c-.137,1.489.116,8.195-.4,9.37a15.472,15.472,0,0,1-2.166,3.248c-1.418,1.846-8.445,10.033-8.445,10.033a5.414,5.414,0,0,0-1.487,3.382c0,.871.135,4.343.168,5.95a.708.708,0,0,1-.519.757c-1.852.446-8.292,1.458-9.246,1.458" transform="translate(-281.605 -45.148)" fill="#00244d"></path><path id="Path_12726" data-name="Path 12726" d="M10.449,137.763H4.382l-.86,2.456A1.648,1.648,0,0,1,1.779,141.4a1.607,1.607,0,0,1-1.695-1.621,3.085,3.085,0,0,1,.2-.786L5,126.023a2.436,2.436,0,0,1,2.481-1.842,2.465,2.465,0,0,1,2.506,1.842l4.642,12.968a2.819,2.819,0,0,1,.171.786A1.622,1.622,0,0,1,13,141.4a1.62,1.62,0,0,1-1.695-1.179Zm-5.182-2.849H9.589l-2.137-6.288Z" transform="translate(-0.061 -90.519)" fill="#00244d"></path><path id="Path_12727" data-name="Path 12727" d="M63.15,125.991a1.769,1.769,0,0,1,3.537,0v12.084h6.19a1.573,1.573,0,0,1,0,3.144H64.918A1.72,1.72,0,0,1,63.15,139.5Z" transform="translate(-46.032 -90.585)" fill="#00244d"></path><path id="Path_12728" data-name="Path 12728" d="M120.9,137.763h-6.067l-.86,2.456a1.647,1.647,0,0,1-1.743,1.179,1.607,1.607,0,0,1-1.695-1.621,3.084,3.084,0,0,1,.2-.786l4.716-12.968a2.436,2.436,0,0,1,2.481-1.842,2.465,2.465,0,0,1,2.505,1.842l4.642,12.968a2.81,2.81,0,0,1,.172.786,1.8,1.8,0,0,1-3.487.442Zm-5.183-2.849h4.323l-2.137-6.288Z" transform="translate(-80.576 -90.519)" fill="#00244d"></path><path id="Path_12729" data-name="Path 12729" d="M179.114,125.087a6.071,6.071,0,0,1,4,1.253,6.164,6.164,0,0,1-.172,9.309,6,6,0,0,1-3.832,1.13h-3.782v3.561a1.767,1.767,0,0,1-1.769,1.719,1.735,1.735,0,0,1-1.768-1.719V126.806a1.735,1.735,0,0,1,1.768-1.719Zm1.4,3.586a3.128,3.128,0,0,0-1.867-.491h-3.315v5.5h3.242a3.424,3.424,0,0,0,1.891-.442,2.562,2.562,0,0,0,1.105-2.308,2.525,2.525,0,0,0-1.056-2.26" transform="translate(-125.225 -91.179)" fill="#00244d"></path><path id="Path_12730" data-name="Path 12730" d="M232.145,138.67h7.933a1.573,1.573,0,0,1,0,3.144h-9.7a1.72,1.72,0,0,1-1.768-1.72V126.807a1.72,1.72,0,0,1,1.768-1.719h9.7a1.573,1.573,0,0,1,0,3.144h-7.933v3.61H238.8a1.537,1.537,0,0,1,1.5,1.572,1.515,1.515,0,0,1-1.5,1.548h-6.656Z" transform="translate(-166.639 -91.18)" fill="#00244d"></path><g id="Group_556" data-name="Group 556" transform="translate(0 55.92)" style="mix-blend-mode: multiply;isolation: isolate"><g id="Group_555" data-name="Group 555"><g id="Group_554" data-name="Group 554" clip-path="url(#clip-path-5)"><path id="Path_12731" data-name="Path 12731" d="M4.182,214.226H1.48L1.034,215.4a.5.5,0,0,1-.531.371.473.473,0,0,1-.5-.484.9.9,0,0,1,.057-.256l2.058-5.357a.73.73,0,0,1,.74-.551.747.747,0,0,1,.739.551l2.039,5.357a1.134,1.134,0,0,1,.047.247.484.484,0,0,1-.531.493.5.5,0,0,1-.512-.371Zm-2.427-.853H3.926L2.845,210.48Z" transform="translate(0 -208.356)" fill="#00a0d3"></path><path id="Path_12732" data-name="Path 12732" d="M24.82,218.053c-.3,0-.578-.189-1.024-.189-.408,0-.673.123-.673.407,0,.247.19.38.446.493.294.124.664.228.958.37a1.141,1.141,0,0,1,.778,1.1c0,.787-.654,1.328-1.688,1.328-.626,0-1.612-.142-1.612-.721a.381.381,0,0,1,.379-.379c.351,0,.5.341,1.166.341.436,0,.73-.152.73-.484,0-.284-.209-.417-.493-.55-.265-.123-.654-.218-.976-.37a1.13,1.13,0,0,1-.711-1.109c0-.759.588-1.224,1.641-1.224.759,0,1.46.152,1.46.6a.382.382,0,0,1-.379.389" transform="translate(-16.039 -214.146)" fill="#00a0d3"></path><path id="Path_12733" data-name="Path 12733" d="M37.019,217.693a2.464,2.464,0,0,1,3.281,0,2.193,2.193,0,0,1,.664,1.622,2.146,2.146,0,0,1-.664,1.631,2.49,2.49,0,0,1-3.281,0,2.153,2.153,0,0,1-.674-1.631,2.2,2.2,0,0,1,.674-1.622m.664,2.636a1.34,1.34,0,0,0,1.944,0,1.548,1.548,0,0,0,0-2.029,1.341,1.341,0,0,0-1.944,0,1.577,1.577,0,0,0,0,2.029" transform="translate(-26.493 -214.147)" fill="#00a0d3"></path><path id="Path_12734" data-name="Path 12734" d="M59.332,218.2a.869.869,0,0,1-.389-.123,1.591,1.591,0,0,0-.654-.142,1.372,1.372,0,0,0-1.052.446,1.43,1.43,0,0,0-.342.967,1.449,1.449,0,0,0,.37,1.015,1.354,1.354,0,0,0,1.024.408,1.819,1.819,0,0,0,.683-.124.92.92,0,0,1,.39-.123.4.4,0,0,1,.388.407c0,.237-.2.38-.531.5a2.746,2.746,0,0,1-.958.152,2.382,2.382,0,0,1-1.783-.673,2.215,2.215,0,0,1-.578-1.575,2.133,2.133,0,0,1,.484-1.4,2.393,2.393,0,0,1,1.9-.834,2.57,2.57,0,0,1,1.043.209c.265.123.408.265.408.483a.416.416,0,0,1-.4.408" transform="translate(-40.746 -214.171)" fill="#00a0d3"></path><path id="Path_12735" data-name="Path 12735" d="M72.83,208.565a.564.564,0,1,1,.569.569.558.558,0,0,1-.569-.569m.569,1.9a.478.478,0,0,1,.484.474v3.546a.484.484,0,0,1-.484.474.472.472,0,0,1-.484-.474v-3.546a.478.478,0,0,1,.484-.474" transform="translate(-53.088 -207.541)" fill="#00a0d3"></path><path id="Path_12736" data-name="Path 12736" d="M80.771,217.731a2.051,2.051,0,0,1,1.565-.664,2.51,2.51,0,0,1,1.195.322.5.5,0,0,1,.455-.322.486.486,0,0,1,.493.474v3.546a.486.486,0,0,1-.493.474.479.479,0,0,1-.455-.3,2.537,2.537,0,0,1-1.195.3,2.059,2.059,0,0,1-1.536-.6,2.565,2.565,0,0,1-.028-3.233M83.5,220.48v-2.275a1.924,1.924,0,0,0-1.033-.323,1.2,1.2,0,0,0-.948.417,1.553,1.553,0,0,0-.313,1.005,1.622,1.622,0,0,0,.332,1.072,1.207,1.207,0,0,0,.929.379,2.243,2.243,0,0,0,1.033-.275" transform="translate(-58.469 -214.146)" fill="#00a0d3"></path><path id="Path_12737" data-name="Path 12737" d="M102.85,218.2a.873.873,0,0,1-.389-.123,1.59,1.59,0,0,0-.654-.142,1.374,1.374,0,0,0-1.053.446,1.431,1.431,0,0,0-.341.967,1.449,1.449,0,0,0,.37,1.015,1.353,1.353,0,0,0,1.024.408,1.824,1.824,0,0,0,.683-.124.915.915,0,0,1,.389-.123.4.4,0,0,1,.389.407c0,.237-.2.38-.531.5a2.742,2.742,0,0,1-.958.152,2.38,2.38,0,0,1-1.783-.673,2.213,2.213,0,0,1-.578-1.575,2.133,2.133,0,0,1,.483-1.4,2.394,2.394,0,0,1,1.9-.834,2.569,2.569,0,0,1,1.043.209c.265.123.407.265.407.483a.415.415,0,0,1-.4.408" transform="translate(-72.468 -214.171)" fill="#00a0d3"></path><path id="Path_12738" data-name="Path 12738" d="M116.347,208.565a.564.564,0,1,1,.569.569.557.557,0,0,1-.569-.569m.569,1.9a.477.477,0,0,1,.483.474v3.546a.484.484,0,0,1-.483.474.472.472,0,0,1-.484-.474v-3.546a.478.478,0,0,1,.484-.474" transform="translate(-84.809 -207.541)" fill="#00a0d3"></path><path id="Path_12739" data-name="Path 12739" d="M124.4,209.838a2.465,2.465,0,0,1,3.282,0,2.195,2.195,0,0,1,.664,1.622,2.147,2.147,0,0,1-.664,1.631,2.491,2.491,0,0,1-3.282,0,2.153,2.153,0,0,1-.673-1.631,2.2,2.2,0,0,1,.673-1.622m.664,2.636a1.34,1.34,0,0,0,1.944,0,1.547,1.547,0,0,0,0-2.03,1.341,1.341,0,0,0-1.944,0,1.576,1.576,0,0,0,0,2.03m.323-4.77.616-1.158a.4.4,0,0,1,.361-.256.387.387,0,0,1,.388.37.475.475,0,0,1-.1.265l-.674,1.1a.363.363,0,0,1-.322.218.318.318,0,0,1-.332-.3.556.556,0,0,1,.066-.237" transform="translate(-90.19 -206.292)" fill="#00a0d3"></path><path id="Path_12740" data-name="Path 12740" d="M144.262,217.542a.478.478,0,0,1,.484-.474.472.472,0,0,1,.484.474v.189a1.653,1.653,0,0,1,1.4-.664,1.826,1.826,0,0,1,1.252.407,1.787,1.787,0,0,1,.5,1.4v2.21a.488.488,0,0,1-.976,0v-1.973a1.368,1.368,0,0,0-.275-.967.928.928,0,0,0-.693-.247,1.077,1.077,0,0,0-.986.569,2.113,2.113,0,0,0-.228,1.005v1.612a.483.483,0,0,1-.484.474.478.478,0,0,1-.484-.474Z" transform="translate(-105.157 -214.147)" fill="#00a0d3"></path><path id="Path_12741" data-name="Path 12741" d="M172.354,209.673a.532.532,0,0,1,1.062,0v5.092h2.75a.47.47,0,0,1,0,.939h-3.281a.52.52,0,0,1-.531-.512Z" transform="translate(-125.634 -208.383)" fill="#00a0d3"></path><path id="Path_12742" data-name="Path 12742" d="M189.319,217.731a2.05,2.05,0,0,1,1.564-.664,2.511,2.511,0,0,1,1.2.322.5.5,0,0,1,.456-.322.486.486,0,0,1,.493.474v3.546a.486.486,0,0,1-.493.474.479.479,0,0,1-.456-.3,2.536,2.536,0,0,1-1.2.3,2.058,2.058,0,0,1-1.536-.6,2.564,2.564,0,0,1-.028-3.233m2.731,2.749v-2.275a1.925,1.925,0,0,0-1.034-.323,1.205,1.205,0,0,0-.948.417,1.553,1.553,0,0,0-.313,1.005,1.625,1.625,0,0,0,.332,1.072,1.209,1.209,0,0,0,.93.379,2.246,2.246,0,0,0,1.034-.275" transform="translate(-137.592 -214.146)" fill="#00a0d3"></path><path id="Path_12743" data-name="Path 12743" d="M207.576,214.3v-.674a.477.477,0,0,1,.483-.474.486.486,0,0,1,.493.474v.674h1.081a.384.384,0,0,1,0,.768h-1.081v2.067c0,.5.171.759.607.759.417,0,.55-.313.835-.313a.358.358,0,0,1,.37.388c0,.237-.237.427-.522.56a2.157,2.157,0,0,1-.863.18,1.309,1.309,0,0,1-1.4-1.489v-2.152h-.361a.384.384,0,0,1,0-.768Z" transform="translate(-150.775 -211.291)" fill="#00a0d3"></path><path id="Path_12744" data-name="Path 12744" d="M221.362,208.565a.564.564,0,1,1,.569.569.558.558,0,0,1-.569-.569m.569,1.9a.478.478,0,0,1,.484.474v3.546a.484.484,0,0,1-.484.474.472.472,0,0,1-.484-.474v-3.546a.478.478,0,0,1,.484-.474" transform="translate(-161.357 -207.541)" fill="#00a0d3"></path><path id="Path_12745" data-name="Path 12745" d="M229.722,217.542a.478.478,0,0,1,.484-.474.472.472,0,0,1,.484.474v.189a1.653,1.653,0,0,1,1.4-.664,1.825,1.825,0,0,1,1.251.407,1.787,1.787,0,0,1,.5,1.4v2.21a.489.489,0,0,1-.977,0v-1.973a1.368,1.368,0,0,0-.275-.967.927.927,0,0,0-.692-.247,1.077,1.077,0,0,0-.986.569,2.116,2.116,0,0,0-.227,1.005v1.612a.484.484,0,0,1-.484.474.478.478,0,0,1-.484-.474Z" transform="translate(-167.451 -214.147)" fill="#00a0d3"></path><path id="Path_12746" data-name="Path 12746" d="M248.831,217.693a2.464,2.464,0,0,1,3.281,0,2.194,2.194,0,0,1,.664,1.622,2.146,2.146,0,0,1-.664,1.631,2.49,2.49,0,0,1-3.281,0,2.151,2.151,0,0,1-.674-1.631,2.2,2.2,0,0,1,.674-1.622m.663,2.636a1.34,1.34,0,0,0,1.944,0,1.548,1.548,0,0,0,0-2.029,1.341,1.341,0,0,0-1.944,0,1.578,1.578,0,0,0,0,2.029" transform="translate(-180.888 -214.147)" fill="#00a0d3"></path><path id="Path_12747" data-name="Path 12747" d="M268.272,217.731a2.05,2.05,0,0,1,1.564-.664,2.511,2.511,0,0,1,1.2.322.5.5,0,0,1,.455-.322.486.486,0,0,1,.493.474v3.546a.486.486,0,0,1-.493.474.478.478,0,0,1-.455-.3,2.537,2.537,0,0,1-1.2.3,2.057,2.057,0,0,1-1.536-.6,2.564,2.564,0,0,1-.028-3.233M271,220.48v-2.275a1.926,1.926,0,0,0-1.034-.323,1.2,1.2,0,0,0-.948.417,1.552,1.552,0,0,0-.313,1.005,1.624,1.624,0,0,0,.332,1.072,1.208,1.208,0,0,0,.929.379A2.246,2.246,0,0,0,271,220.48" transform="translate(-195.143 -214.146)" fill="#00a0d3"></path><path id="Path_12748" data-name="Path 12748" d="M288.38,217.1a.471.471,0,0,1,.483.474v.01a1.5,1.5,0,0,1,1.167-.484,1.689,1.689,0,0,1,.891.228,1.256,1.256,0,0,1,.493.531,1.692,1.692,0,0,1,.569-.559,1.626,1.626,0,0,1,2.513,1.536v2.285a.49.49,0,0,1-.483.474.478.478,0,0,1-.484-.474v-2.039a1.4,1.4,0,0,0-.247-.892.846.846,0,0,0-.664-.265.831.831,0,0,0-.73.389,1.917,1.917,0,0,0-.208.995v1.812a.49.49,0,0,1-.484.474.478.478,0,0,1-.484-.474v-2.039a1.4,1.4,0,0,0-.246-.892.846.846,0,0,0-.664-.265.818.818,0,0,0-.731.417,2.142,2.142,0,0,0-.209,1.005v1.764a.492.492,0,0,1-.483.484.48.48,0,0,1-.484-.484v-3.538a.472.472,0,0,1,.484-.474" transform="translate(-209.855 -214.172)" fill="#00a0d3"></path><path id="Path_12749" data-name="Path 12749" d="M319.511,220.823c0,.209-.152.351-.445.484a3.309,3.309,0,0,1-1.3.256,2.262,2.262,0,0,1-1.707-.664,2.332,2.332,0,0,1-.6-1.641,2.25,2.25,0,0,1,.6-1.574,2.31,2.31,0,0,1,3.11-.028,1.954,1.954,0,0,1,.522,1.384.491.491,0,0,1-.493.541h-2.712a1.342,1.342,0,0,0,.323.787,1.3,1.3,0,0,0,1.024.427,2.07,2.07,0,0,0,.863-.189c.209-.095.313-.18.455-.18a.381.381,0,0,1,.36.4m-.768-1.906a1.17,1.17,0,0,0-.275-.75,1.111,1.111,0,0,0-.816-.322,1.176,1.176,0,0,0-.882.341,1.31,1.31,0,0,0-.284.731Z" transform="translate(-229.949 -214.147)" fill="#00a0d3"></path><path id="Path_12750" data-name="Path 12750" d="M337.33,217.257a.536.536,0,0,1,.322.484.414.414,0,0,1-.417.436c-.284,0-.417-.237-.844-.237-.731,0-.967.768-.967,1.441v1.707a.484.484,0,0,1-.484.474.472.472,0,0,1-.484-.474v-3.546a.484.484,0,0,1,.967,0v.133a1.28,1.28,0,0,1,1.129-.607,1.629,1.629,0,0,1,.777.189" transform="translate(-243.794 -214.147)" fill="#00a0d3"></path><path id="Path_12751" data-name="Path 12751" d="M347.574,208.565a.564.564,0,1,1,.569.569.557.557,0,0,1-.569-.569m.569,1.9a.477.477,0,0,1,.483.474v3.546a.484.484,0,0,1-.483.474.472.472,0,0,1-.484-.474v-3.546a.478.478,0,0,1,.484-.474" transform="translate(-253.356 -207.541)" fill="#00a0d3"></path><path id="Path_12752" data-name="Path 12752" d="M358.387,218.2a.869.869,0,0,1-.388-.123,1.592,1.592,0,0,0-.654-.142,1.373,1.373,0,0,0-1.053.446,1.43,1.43,0,0,0-.342.967,1.449,1.449,0,0,0,.37,1.015,1.355,1.355,0,0,0,1.024.408,1.82,1.82,0,0,0,.683-.124.919.919,0,0,1,.389-.123.4.4,0,0,1,.388.407c0,.237-.2.38-.531.5a2.745,2.745,0,0,1-.958.152,2.381,2.381,0,0,1-1.783-.673,2.214,2.214,0,0,1-.578-1.575,2.133,2.133,0,0,1,.484-1.4,2.394,2.394,0,0,1,1.9-.834,2.567,2.567,0,0,1,1.043.209c.265.123.408.265.408.483a.416.416,0,0,1-.4.408" transform="translate(-258.736 -214.171)" fill="#00a0d3"></path><path id="Path_12753" data-name="Path 12753" d="M370.732,217.731a2.05,2.05,0,0,1,1.564-.664,2.508,2.508,0,0,1,1.195.322.5.5,0,0,1,.456-.322.486.486,0,0,1,.493.474v3.546a.486.486,0,0,1-.493.474.48.48,0,0,1-.456-.3,2.534,2.534,0,0,1-1.195.3,2.058,2.058,0,0,1-1.536-.6,2.565,2.565,0,0,1-.028-3.233m2.731,2.749v-2.275a1.927,1.927,0,0,0-1.034-.323,1.2,1.2,0,0,0-.948.417,1.55,1.55,0,0,0-.313,1.005,1.622,1.622,0,0,0,.331,1.072,1.208,1.208,0,0,0,.929.379,2.246,2.246,0,0,0,1.034-.275" transform="translate(-269.829 -214.146)" fill="#00a0d3"></path><path id="Path_12754" data-name="Path 12754" d="M390.355,217.542a.478.478,0,0,1,.484-.474.471.471,0,0,1,.483.474v.189a1.654,1.654,0,0,1,1.4-.664,1.829,1.829,0,0,1,1.252.407,1.789,1.789,0,0,1,.5,1.4v2.21a.489.489,0,0,1-.977,0v-1.973a1.369,1.369,0,0,0-.275-.967.925.925,0,0,0-.692-.247,1.077,1.077,0,0,0-.986.569,2.11,2.11,0,0,0-.228,1.005v1.612a.483.483,0,0,1-.483.474.478.478,0,0,1-.484-.474Z" transform="translate(-284.54 -214.147)" fill="#00a0d3"></path><path id="Path_12755" data-name="Path 12755" d="M409.351,217.731a2.05,2.05,0,0,1,1.564-.664,2.511,2.511,0,0,1,1.2.322.5.5,0,0,1,.455-.322.486.486,0,0,1,.493.474v3.546a.486.486,0,0,1-.493.474.478.478,0,0,1-.455-.3,2.537,2.537,0,0,1-1.2.3,2.058,2.058,0,0,1-1.536-.6,2.565,2.565,0,0,1-.028-3.233m2.731,2.749v-2.275a1.926,1.926,0,0,0-1.034-.323,1.2,1.2,0,0,0-.948.417,1.552,1.552,0,0,0-.313,1.005,1.624,1.624,0,0,0,.332,1.072,1.208,1.208,0,0,0,.929.379,2.246,2.246,0,0,0,1.034-.275" transform="translate(-297.979 -214.146)" fill="#00a0d3"></path><path id="Path_12756" data-name="Path 12756" d="M125.34,250.481a2.751,2.751,0,0,1-1.877-.616,1.944,1.944,0,0,1-.626-1.517,2.392,2.392,0,0,1,.456-1.469,2.141,2.141,0,0,1,1.783-.8,2.468,2.468,0,0,1,.815.123v-1.792a.489.489,0,0,1,.977,0v5.547a.509.509,0,0,1-.55.522Zm.55-.815v-2.636a2.357,2.357,0,0,0-.759-.114,1.24,1.24,0,0,0-1.033.522,1.5,1.5,0,0,0-.266.891,1.232,1.232,0,0,0,.37.948,1.78,1.78,0,0,0,1.243.389Z" transform="translate(-89.539 -233.733)" fill="#00a0d3"></path><path id="Path_12757" data-name="Path 12757" d="M145.216,255.6c0,.209-.152.351-.446.484a3.308,3.308,0,0,1-1.3.256,2.261,2.261,0,0,1-1.706-.664,2.331,2.331,0,0,1-.6-1.641,2.248,2.248,0,0,1,.6-1.574,2.31,2.31,0,0,1,3.11-.028,1.955,1.955,0,0,1,.522,1.384.491.491,0,0,1-.493.54h-2.712a1.343,1.343,0,0,0,.323.787,1.3,1.3,0,0,0,1.024.427,2.065,2.065,0,0,0,.863-.19c.209-.094.313-.18.455-.18a.381.381,0,0,1,.36.4m-.768-1.906a1.171,1.171,0,0,0-.275-.75,1.112,1.112,0,0,0-.816-.322,1.174,1.174,0,0,0-.882.341,1.306,1.306,0,0,0-.285.73Z" transform="translate(-102.9 -239.496)" fill="#00a0d3"></path><path id="Path_12758" data-name="Path 12758" d="M171.569,244.253a2.322,2.322,0,0,1,1.517.464,2.134,2.134,0,0,1,.778,1.725,2.177,2.177,0,0,1-.844,1.764,2.424,2.424,0,0,1-1.5.427H169.9v1.659a.527.527,0,0,1-.531.512.521.521,0,0,1-.531-.512v-5.519a.522.522,0,0,1,.531-.521Zm.739,1.166a1.518,1.518,0,0,0-.882-.237H169.9V247.7h1.46a1.627,1.627,0,0,0,.91-.218,1.179,1.179,0,0,0,.512-1.044,1.162,1.162,0,0,0-.474-1.023" transform="translate(-123.071 -233.963)" fill="#00a0d3"></path><path id="Path_12759" data-name="Path 12759" d="M193.037,255.6c0,.209-.152.351-.445.484a3.309,3.309,0,0,1-1.3.256,2.263,2.263,0,0,1-1.707-.664,2.333,2.333,0,0,1-.6-1.641,2.25,2.25,0,0,1,.6-1.574,2.31,2.31,0,0,1,3.111-.028,1.954,1.954,0,0,1,.521,1.384.491.491,0,0,1-.493.54h-2.712a1.345,1.345,0,0,0,.323.787,1.3,1.3,0,0,0,1.024.427,2.066,2.066,0,0,0,.863-.19c.209-.094.313-.18.455-.18a.381.381,0,0,1,.36.4m-.768-1.906a1.17,1.17,0,0,0-.275-.75,1.112,1.112,0,0,0-.816-.322,1.174,1.174,0,0,0-.882.341,1.308,1.308,0,0,0-.285.73Z" transform="translate(-137.759 -239.496)" fill="#00a0d3"></path><path id="Path_12760" data-name="Path 12760" d="M209.506,250.481a2.752,2.752,0,0,1-1.877-.616,1.945,1.945,0,0,1-.626-1.517,2.394,2.394,0,0,1,.455-1.469,2.142,2.142,0,0,1,1.783-.8,2.468,2.468,0,0,1,.815.123v-1.792a.489.489,0,0,1,.977,0v5.547a.51.51,0,0,1-.55.522Zm.55-.815v-2.636a2.358,2.358,0,0,0-.759-.114,1.241,1.241,0,0,0-1.034.522,1.5,1.5,0,0,0-.266.891,1.231,1.231,0,0,0,.37.948,1.78,1.78,0,0,0,1.243.389Z" transform="translate(-150.89 -233.733)" fill="#00a0d3"></path><path id="Path_12761" data-name="Path 12761" d="M226,243.342a.564.564,0,1,1,.569.569.557.557,0,0,1-.569-.569m.569,1.9a.477.477,0,0,1,.483.474v3.547a.484.484,0,0,1-.483.474.472.472,0,0,1-.484-.474v-3.547a.477.477,0,0,1,.484-.474" transform="translate(-164.736 -232.891)" fill="#00a0d3"></path><path id="Path_12762" data-name="Path 12762" d="M233.937,252.508a2.051,2.051,0,0,1,1.565-.664,2.512,2.512,0,0,1,1.195.322.5.5,0,0,1,.455-.322.486.486,0,0,1,.493.474v3.547a.486.486,0,0,1-.493.474.479.479,0,0,1-.455-.3,2.544,2.544,0,0,1-1.195.3,2.056,2.056,0,0,1-1.536-.6,2.564,2.564,0,0,1-.028-3.233m2.731,2.75v-2.276a1.925,1.925,0,0,0-1.033-.323,1.2,1.2,0,0,0-.948.417,1.551,1.551,0,0,0-.313,1,1.622,1.622,0,0,0,.332,1.071,1.207,1.207,0,0,0,.929.38,2.248,2.248,0,0,0,1.033-.275" transform="translate(-170.115 -239.496)" fill="#00a0d3"></path><path id="Path_12763" data-name="Path 12763" d="M252.194,249.073V248.4a.477.477,0,0,1,.484-.474.486.486,0,0,1,.493.474v.674h1.081a.384.384,0,0,1,0,.768h-1.081v2.068c0,.5.17.758.607.758.417,0,.55-.313.835-.313a.358.358,0,0,1,.37.388c0,.238-.237.427-.522.56a2.161,2.161,0,0,1-.863.181,1.309,1.309,0,0,1-1.4-1.489v-2.153h-.36a.384.384,0,0,1,0-.768Z" transform="translate(-183.299 -236.64)" fill="#00a0d3"></path><path id="Path_12764" data-name="Path 12764" d="M269.169,252.033a.535.535,0,0,1,.322.484.414.414,0,0,1-.417.436c-.285,0-.417-.237-.844-.237-.73,0-.967.768-.967,1.442v1.707a.484.484,0,0,1-.483.474.472.472,0,0,1-.484-.474v-3.547a.484.484,0,0,1,.967,0v.133a1.279,1.279,0,0,1,1.128-.607,1.631,1.631,0,0,1,.778.189" transform="translate(-194.11 -239.496)" fill="#00a0d3"></path><path id="Path_12765" data-name="Path 12765" d="M279.268,242.483l.617-1.158a.4.4,0,0,1,.361-.256.386.386,0,0,1,.388.37.475.475,0,0,1-.1.265l-.673,1.1a.365.365,0,0,1-.323.218.319.319,0,0,1-.332-.3.56.56,0,0,1,.066-.237m.635,1.507a.478.478,0,0,1,.484.474v3.547a.484.484,0,0,1-.484.474.472.472,0,0,1-.484-.474v-3.547a.478.478,0,0,1,.484-.474" transform="translate(-203.518 -231.643)" fill="#00a0d3"></path><path id="Path_12766" data-name="Path 12766" d="M287.633,252.508a2.051,2.051,0,0,1,1.565-.664,2.511,2.511,0,0,1,1.195.322.5.5,0,0,1,.455-.322.486.486,0,0,1,.493.474v3.547a.486.486,0,0,1-.493.474.479.479,0,0,1-.455-.3,2.544,2.544,0,0,1-1.195.3,2.057,2.057,0,0,1-1.536-.6,2.565,2.565,0,0,1-.028-3.233m2.731,2.75v-2.276a1.926,1.926,0,0,0-1.034-.323,1.2,1.2,0,0,0-.948.417,1.55,1.55,0,0,0-.313,1,1.622,1.622,0,0,0,.332,1.071,1.207,1.207,0,0,0,.929.38,2.248,2.248,0,0,0,1.034-.275" transform="translate(-209.256 -239.496)" fill="#00a0d3"></path></g></g></g><g id="Group_559" data-name="Group 559" transform="translate(88.713 5.999)" style="mix-blend-mode: multiply;isolation: isolate"><g id="Group_558" data-name="Group 558"><g id="Group_557" data-name="Group 557" clip-path="url(#clip-path-6)"><path id="Path_12767" data-name="Path 12767" d="M337.245,34.449a4.686,4.686,0,0,1,3.622-4.562,13.317,13.317,0,0,0-13.524-7.681A13.313,13.313,0,0,0,337.794,36.65a4.664,4.664,0,0,1-.549-2.2" transform="translate(-327.267 -22.131)" fill="#ffa900"></path></g></g></g><g id="Group_562" data-name="Group 562" transform="translate(98.492)" style="mix-blend-mode: multiply;isolation: isolate"><g id="Group_561" data-name="Group 561"><g id="Group_560" data-name="Group 560" clip-path="url(#clip-path-7)"><path id="Path_12768" data-name="Path 12768" d="M368.229,13.629a4.681,4.681,0,0,1,3.908,2.1A13.313,13.313,0,0,0,368.3,0a13.323,13.323,0,0,0-3.891,15.6,4.677,4.677,0,0,1,3.816-1.972" transform="translate(-363.343)" fill="#00a0d3"></path></g></g></g><g id="Group_565" data-name="Group 565" transform="translate(104.579 5.999)" style="mix-blend-mode: multiply;isolation: isolate"><g id="Group_564" data-name="Group 564"><g id="Group_563" data-name="Group 563" clip-path="url(#clip-path-8)"><path id="Path_12769" data-name="Path 12769" d="M399.335,22.206A13.313,13.313,0,0,0,385.8,29.922a4.686,4.686,0,0,1,2.921,6.76,13.308,13.308,0,0,0,10.618-14.476" transform="translate(-385.796 -22.13)" fill="#da0033"></path></g></g></g><g id="Group_568" data-name="Group 568" transform="translate(105.806 13.629)" style="mix-blend-mode: multiply;isolation: isolate"><g id="Group_567" data-name="Group 567"><g id="Group_566" data-name="Group 566" clip-path="url(#clip-path-9)"><path id="Path_12770" data-name="Path 12770" d="M397.2,50.528a13.255,13.255,0,0,0-5.168,2.225,4.68,4.68,0,0,1-1.7,6.217,13.315,13.315,0,0,0,18-5.564A13.3,13.3,0,0,0,397.2,50.528" transform="translate(-390.323 -50.278)" fill="#6e65a8"></path></g></g></g></g></g></g></svg>