<svg xmlns="http://www.w3.org/2000/svg" xmlns:xlink="http://www.w3.org/1999/xlink" id="Group_420" data-name="Group 420" width="253.911" height="65.75" viewBox="0 0 253.911 65.75"><defs><clipPath id="clip-path"><rect id="Rectangle_2238" data-name="Rectangle 2238" width="253.911" height="65.749" fill="none"></rect></clipPath></defs><g id="Group_419" data-name="Group 419" clip-path="url(#clip-path)"><path id="Path_12615" data-name="Path 12615" d="M22.025,54.862A4.336,4.336,0,0,0,18.019,52a3.937,3.937,0,0,0-2.6.673,4.625,4.625,0,0,0-1.735,2.174L.249,87.119l-.038.109A4.681,4.681,0,0,0,0,88.574a4.051,4.051,0,0,0,.975,2.731,3.779,3.779,0,0,0,3.005,1.2,3.952,3.952,0,0,0,2.357-.78A4.376,4.376,0,0,0,7.873,89.66l2.511-5.9H25L27.5,89.6a4.975,4.975,0,0,0,1.57,2.075,3.935,3.935,0,0,0,2.431.822,4.207,4.207,0,0,0,4.143-4.271c0-.011,0-.021,0-.032a4.809,4.809,0,0,0-.357-1.73Zm-.651,20.451h-7.4l3.683-8.661Z" transform="translate(0 -29.808)" fill="#fff"></path><path id="Path_12616" data-name="Path 12616" d="M116.1,83.984H103.127V56.93a4.2,4.2,0,0,0-1.35-3.162,4.351,4.351,0,0,0-3.063-1.25,4.516,4.516,0,0,0-3.26,1.262,4.241,4.241,0,0,0-1.311,3.151v31.2a4.347,4.347,0,0,0,4.281,4.413H116.1a4.394,4.394,0,0,0,3.117-1.2,4.053,4.053,0,0,0,1.3-3.055,4.106,4.106,0,0,0-1.3-3.109,4.39,4.39,0,0,0-3.116-1.2" transform="translate(-53.986 -30.116)" fill="#fff"></path><path id="Path_12617" data-name="Path 12617" d="M184.119,54.862A4.334,4.334,0,0,0,180.113,52a3.94,3.94,0,0,0-2.6.673,4.625,4.625,0,0,0-1.735,2.174L162.346,87.118l-.038.109a4.679,4.679,0,0,0-.209,1.347,4.051,4.051,0,0,0,.975,2.731,3.777,3.777,0,0,0,3.005,1.2,3.95,3.95,0,0,0,2.357-.779,4.376,4.376,0,0,0,1.533-2.061l2.511-5.9h14.613L189.6,89.6a4.98,4.98,0,0,0,1.57,2.075,3.94,3.94,0,0,0,2.432.822,4.208,4.208,0,0,0,4.143-4.271c0-.011,0-.021,0-.032a4.806,4.806,0,0,0-.358-1.73Zm-.651,20.451h-7.4l3.683-8.661Z" transform="translate(-92.956 -29.808)" fill="#fff"></path><path id="Path_12618" data-name="Path 12618" d="M278.826,54.323a10.534,10.534,0,0,0-5.879-1.8h-12.3a4.347,4.347,0,0,0-4.412,4.281c0,.044,0,.087,0,.131v31.2a4.447,4.447,0,0,0,1.157,3.1,4.249,4.249,0,0,0,6.007.127q.065-.062.127-.127a4.449,4.449,0,0,0,1.157-3.1V79.045h8.27a10.422,10.422,0,0,0,5.885-1.835,14.074,14.074,0,0,0,4.326-18.12,13.267,13.267,0,0,0-4.332-4.767m-5.879,16.33h-8.27V60.965h8.27a1.957,1.957,0,0,1,1.266.566,5.829,5.829,0,0,1-.013,8.539,1.913,1.913,0,0,1-1.253.581" transform="translate(-146.939 -30.117)" fill="#fff"></path><path id="Path_12619" data-name="Path 12619" d="M360.086,84.094h-13.5V76.35h11.077a4.516,4.516,0,0,0,3.09-1.118,3.92,3.92,0,0,0,1.322-3.023,4.106,4.106,0,0,0-1.3-3.109,4.39,4.39,0,0,0-3.116-1.2H346.584V60.969H360.09a4.511,4.511,0,0,0,3.086-1.118,3.918,3.918,0,0,0,1.323-3.024,4.107,4.107,0,0,0-1.3-3.109,4.389,4.389,0,0,0-3.116-1.2h-18.08a4.348,4.348,0,0,0-4.413,4.281q0,.065,0,.129v31.2a4.348,4.348,0,0,0,4.281,4.413h18.212a4.449,4.449,0,0,0,3.1-1.157,4.008,4.008,0,0,0,1.31-3.04,4.1,4.1,0,0,0-1.274-2.979,4.284,4.284,0,0,0-3.139-1.272" transform="translate(-193.595 -30.119)" fill="#fff"></path><path id="Path_12620" data-name="Path 12620" d="M480.394,94.078a34.206,34.206,0,0,1-3.843-.464c-2.434-.366-4.864-.758-7.278-1.246-1-.2-1.173-.423-1.159-1.444,0-.089,0-.178,0-.267h.037c.056-2.349.151-4.7.157-7.046a6.086,6.086,0,0,0-1.753-3.986q-4.282-4.965-8.5-9.989c-1.136-1.356-2.216-2.757-3.329-4.129a8.261,8.261,0,0,1-2.048-5.634c.035-1.054-.038-2.113-.038-3.168,0-1.905-.024-3.809-.086-5.713a4.111,4.111,0,0,1,0-.491,1.148,1.148,0,0,1,1.112-1.07,1.091,1.091,0,0,1,1.2.956c.31,2.145.6,4.292.906,6.437.134.94.258,1.883.453,2.81a5.693,5.693,0,0,0,1.605,2.676c1.9,2.014,3.868,3.959,5.857,5.884a3.8,3.8,0,0,0,1.293.855.8.8,0,0,0,1.158-.859,2.561,2.561,0,0,0-.9-1.779c-1.416-1.275-2.814-2.567-4.127-3.947a6.488,6.488,0,0,1-1.1-1.4c-.185-.353-.405-.735-.055-1.105a1.04,1.04,0,0,1,1.246.064c.506.338,1.006.685,1.518,1.012,4.1,2.616,8.2,5.238,12.138,8.106a9.2,9.2,0,0,1,2.973,4.187,25.321,25.321,0,0,1,1.534,6.145c.32,2.291.69,4.577,1.034,6.865.332,2.2.666,4.4.989,6.6.108.734-.256,1.16-.99,1.133" transform="translate(-259.518 -28.345)" fill="#fff"></path><path id="Path_12621" data-name="Path 12621" d="M556.516,50.743c-.079,1.19-.028,2.38-.067,4-.032,1.846-.01,4.122-.143,6.4a6.267,6.267,0,0,1-1.191,3.253c-1.439,2.082-3.066,4.016-4.7,5.946q-3.683,4.361-7.4,8.7a9.549,9.549,0,0,0-1.951,2.951,5.007,5.007,0,0,0-.328,1.827q.1,3.657.192,7.314c.018.806-.159,1.016-.946,1.188-2.348.514-4.721.884-7.1,1.237-1.188.177-2.382.323-3.571.5-1.438.209-1.8-.192-1.559-1.64.34-2.064.627-4.137.938-6.206.347-2.317.711-4.632,1.037-6.953a27.883,27.883,0,0,1,1.338-5.516,10.9,10.9,0,0,1,4.319-5.476c3.982-2.723,8.031-5.338,12.087-7.947a2.589,2.589,0,0,1,.847-.474.781.781,0,0,1,.822.18.726.726,0,0,1,.029.8,4.7,4.7,0,0,1-1,1.406A54.194,54.194,0,0,1,544,66.239a3.32,3.32,0,0,0-1.046,1.668.992.992,0,0,0,.276,1.057c.32.3.662.166.993.022a4.99,4.99,0,0,0,1.463-1.076q2.72-2.676,5.382-5.412a7.142,7.142,0,0,0,2.042-4.326c.292-2.566.694-5.118,1.063-7.674a1.1,1.1,0,0,1,1.237-1.062,1.165,1.165,0,0,1,1.11,1.307" transform="translate(-302.608 -28.347)" fill="#fff"></path><path id="Path_12622" data-name="Path 12622" d="M536.108,60.47l0,.006h0Z" transform="translate(-307.43 -34.677)" fill="#7d81bd"></path><path id="Path_12623" data-name="Path 12623" d="M553.414,44.515a16.9,16.9,0,0,1-22.594,6.7,6.742,6.742,0,0,0,2.18-2.2l.077-.085a1.157,1.157,0,0,0,.435-.042,16.661,16.661,0,0,0,8.407-4.834,14.013,14.013,0,0,0,2.607-3.69c.025-.01.05-.018.075-.026a17.135,17.135,0,0,1,8.707,3.628.35.35,0,0,1,.106.549" transform="translate(-304.402 -23.133)" fill="#7d81bd"></path><path id="Path_12624" data-name="Path 12624" d="M486.354,51.262a14.722,14.722,0,0,1-4.076,1.493A16.661,16.661,0,0,1,466.4,47.939a15.925,15.925,0,0,1-2.552-3.474.305.305,0,0,1,.092-.474,16.716,16.716,0,0,1,8.088-3.557c.219-.032.437-.074.656-.112a.356.356,0,0,1,.075.031,15.838,15.838,0,0,0,3.338,4.407,16.448,16.448,0,0,0,5.056,3.272,12.442,12.442,0,0,0,2.93.888,6.452,6.452,0,0,0,2.274,2.342" transform="translate(-265.953 -23.123)" fill="#49b863"></path><path id="Path_12625" data-name="Path 12625" d="M521.843,11.144a.439.439,0,0,0-.03.082,15.723,15.723,0,0,0-4.736,6.08,7.007,7.007,0,0,0-2.871-.042,16.626,16.626,0,0,0-1.479-2.592,19.245,19.245,0,0,0-3.228-3.5A15.947,15.947,0,0,1,512.122,3.8,16.958,16.958,0,0,1,515.361.141c.24-.206.369-.172.582.013a16.665,16.665,0,0,1,5.724,10.029c.055.321.117.641.176.961" transform="translate(-292.176 0)" fill="#04b8dd"></path><path id="Path_12626" data-name="Path 12626" d="M547.615,26.213c-.155.351-.316.7-.473,1.051-.025.008-.05.016-.075.026a3.742,3.742,0,0,0-.481-.084,17.662,17.662,0,0,0-7.083.983,19.993,19.993,0,0,0-3.98,2.065l-.271-.435a16.156,16.156,0,0,0,1.329-8.536.476.476,0,0,1,.03-.082,17.247,17.247,0,0,1,6.07-3.062,16.783,16.783,0,0,1,5.909-.533c.285.026.366.131.386.4a16.769,16.769,0,0,1-1.361,8.211" transform="translate(-306.944 -10.058)" fill="#eb174f"></path><path id="Path_12627" data-name="Path 12627" d="M493.923,29.684l-.312.485a17.84,17.84,0,0,0-5.193-2.4,16.269,16.269,0,0,0-6.223-.475.366.366,0,0,0-.074-.03,20.47,20.47,0,0,1-1.391-3.744,16.987,16.987,0,0,1-.43-5.568c.025-.259.117-.31.346-.331a16.6,16.6,0,0,1,8.213,1.325,15.2,15.2,0,0,1,3.792,2.3c-.022.488-.054.976-.064,1.465a16.969,16.969,0,0,0,1.337,6.974" transform="translate(-275.391 -10.062)" fill="#fbb714"></path><path id="Path_12628" data-name="Path 12628" d="M547.431,40.247a14.015,14.015,0,0,1-2.607,3.69,16.662,16.662,0,0,1-8.407,4.834,1.156,1.156,0,0,1-.435.042h0l0-.006c.153-.47.336-.932.45-1.41a5.769,5.769,0,0,0-.464-3.98c-.032-.066-.052-.136-.078-.2a20,20,0,0,1,3.98-2.065,17.67,17.67,0,0,1,7.083-.983,3.745,3.745,0,0,1,.481.084" transform="translate(-307.308 -23.015)" fill="#740d3c"></path><path id="Path_12629" data-name="Path 12629" d="M495.541,46.793a7.146,7.146,0,0,0,.619,2.014,12.406,12.406,0,0,1-2.931-.888,16.437,16.437,0,0,1-5.056-3.272,15.832,15.832,0,0,1-3.338-4.407,16.27,16.27,0,0,1,6.223.475,17.823,17.823,0,0,1,5.193,2.4,6.2,6.2,0,0,0-.711,3.676" transform="translate(-278.033 -23.01)" fill="#478508"></path><path id="Path_12630" data-name="Path 12630" d="M530.671,34.855a6.457,6.457,0,0,0-3.408-2.456A15.731,15.731,0,0,1,532,26.319a16.156,16.156,0,0,1-1.329,8.536" transform="translate(-302.363 -15.093)" fill="#021246"></path><path id="Path_12631" data-name="Path 12631" d="M514.026,32.285a6.381,6.381,0,0,0-3.5,2.359,16.977,16.977,0,0,1-1.337-6.974c.011-.488.043-.976.064-1.465.021,0,.043-.008.064-.011a19.24,19.24,0,0,1,3.228,3.5,16.611,16.611,0,0,1,1.479,2.593" transform="translate(-291.996 -15.022)" fill="#028512"></path><path id="Path_12632" data-name="Path 12632" d="M536.011,60.462a.018.018,0,0,0,0,.006c-.026.029-.052.056-.077.085.011-.043-.009-.116.074-.092l.007,0" transform="translate(-307.333 -34.669)" fill="#740d3c"></path></g></svg>