<svg xmlns="http://www.w3.org/2000/svg" xmlns:xlink="http://www.w3.org/1999/xlink" width="358.797" height="222.166" viewBox="0 0 358.797 222.166"><defs><clipPath id="clip-path"><rect id="Rectangle_2237" data-name="Rectangle 2237" width="348.588" height="204.202" fill="none"></rect></clipPath></defs><g id="Group_418" data-name="Group 418" transform="matrix(0.999, 0.052, -0.052, 0.999, 10.687, 0)"><g id="Group_415" data-name="Group 415" clip-path="url(#clip-path)"><path id="Path_12604" data-name="Path 12604" d="M344.828,288.244a.161.161,0,0,0-.03.036.055.055,0,0,0-.03-.006Z" transform="translate(-135.053 -112.911)" fill="#7d81bd"></path><path id="Path_12605" data-name="Path 12605" d="M473.181,220.672c-17.871,30.84-44.1,50.116-79.192,56.783-25.821,4.9-50.487,1.077-74.392-11.217,6.539-3.729,10.852-9.191,14.818-14.97.17-.195.347-.383.523-.578a7.856,7.856,0,0,0,2.956-.286,113.255,113.255,0,0,0,57.148-32.859c7.086-7.488,13.327-15.651,17.719-25.085.17-.067.341-.122.511-.176a116.474,116.474,0,0,1,59.192,24.66c1.575,1.253,1.636,2.141.718,3.729" transform="translate(-125.193 -75.322)" fill="#7d81bd"></path><path id="Path_12606" data-name="Path 12606" d="M153.51,266.572A100.074,100.074,0,0,1,125.8,276.724c-41.746,8.212-77.848-2.567-107.951-32.744A108.273,108.273,0,0,1,.5,220.367c-.785-1.4-.706-2.165.627-3.224a113.631,113.631,0,0,1,54.976-24.179c1.49-.219,2.974-.5,4.465-.76a2.446,2.446,0,0,1,.5.207,107.662,107.662,0,0,0,22.689,29.958,111.745,111.745,0,0,0,34.368,22.245c6.436,2.658,12.981,5.024,19.921,6.04a43.844,43.844,0,0,0,15.456,15.919" transform="translate(0 -75.29)" fill="#49b863"></path><path id="Path_12607" data-name="Path 12607" d="M301.879,75.751a3.1,3.1,0,0,0-.207.56,106.9,106.9,0,0,0-32.2,41.326,47.613,47.613,0,0,0-19.514-.286A112.905,112.905,0,0,0,239.908,99.73c-6.18-8.978-13.8-16.618-21.941-23.778,1.588-18.267,7.914-34.854,17.829-50.146A115.309,115.309,0,0,1,257.815.957c1.63-1.4,2.506-1.173,3.954.085,20.943,18.181,34.222,40.724,38.912,68.176.371,2.184.8,4.355,1.2,6.533" transform="translate(-85.382 0)" fill="#04b8dd"></path><path id="Path_12608" data-name="Path 12608" d="M424.767,142.565c-1.052,2.391-2.147,4.763-3.218,7.147-.17.055-.341.109-.511.176a25.334,25.334,0,0,0-3.266-.572c-16.478-.864-32.555.979-48.151,6.685-9.641,3.522-18.479,8.5-27.05,14.039l-1.843-2.956a109.8,109.8,0,0,0,9.033-58.024,3.093,3.093,0,0,1,.207-.56c12.445-9.532,26.053-16.758,41.26-20.815a114.1,114.1,0,0,1,40.165-3.625c1.94.176,2.488.894,2.628,2.689a113.992,113.992,0,0,1-9.252,55.816" transform="translate(-133.47 -32.75)" fill="#eb174f"></path><path id="Path_12609" data-name="Path 12609" d="M171.528,166.149q-1.068,1.651-2.123,3.3c-10.967-7.178-22.573-12.956-35.3-16.332a110.538,110.538,0,0,0-42.3-3.23,2.446,2.446,0,0,0-.5-.207c-3.771-8.254-7.342-16.57-9.459-25.45a115.548,115.548,0,0,1-2.92-37.847c.17-1.764.8-2.1,2.354-2.251a112.825,112.825,0,0,1,55.828,9.009,103.281,103.281,0,0,1,25.773,15.651c-.146,3.321-.365,6.636-.438,9.958a115.375,115.375,0,0,0,9.088,47.4" transform="translate(-30.732 -32.763)" fill="#fbb714"></path><path id="Path_12610" data-name="Path 12610" d="M422.225,192.076c-4.392,9.434-10.633,17.6-17.719,25.085a113.255,113.255,0,0,1-57.148,32.859,7.856,7.856,0,0,1-2.956.286.055.055,0,0,0-.03-.006.112.112,0,0,0,.012-.043c1.04-3.193,2.281-6.332,3.06-9.586a39.2,39.2,0,0,0-3.157-27.056c-.219-.444-.353-.925-.529-1.387,8.571-5.541,17.409-10.517,27.05-14.039,15.6-5.706,31.673-7.549,48.151-6.685a25.333,25.333,0,0,1,3.266.572" transform="translate(-134.657 -74.937)" fill="#740d3c"></path><path id="Path_12611" data-name="Path 12611" d="M173.175,236.59a48.65,48.65,0,0,0,4.209,13.692c-6.94-1.016-13.486-3.382-19.921-6.04A111.746,111.746,0,0,1,123.1,222a107.662,107.662,0,0,1-22.689-29.958,110.538,110.538,0,0,1,42.3,3.23c12.725,3.376,24.331,9.155,35.3,16.332a42.146,42.146,0,0,0-4.83,24.988" transform="translate(-39.332 -74.92)" fill="#478508"></path><path id="Path_12612" data-name="Path 12612" d="M325.81,183.478a43.885,43.885,0,0,0-23.163-16.7,106.906,106.906,0,0,1,32.2-41.326,109.8,109.8,0,0,1-9.033,58.024" transform="translate(-118.553 -49.143)" fill="#021246"></path><path id="Path_12613" data-name="Path 12613" d="M249.38,166.263A43.367,43.367,0,0,0,225.6,182.3a115.375,115.375,0,0,1-9.088-47.4c.073-3.321.292-6.636.438-9.958q.219-.046.438-.073c8.145,7.159,15.761,14.8,21.941,23.778a112.9,112.9,0,0,1,10.055,17.622" transform="translate(-84.8 -48.912)" fill="#028512"></path><path id="Path_12614" data-name="Path 12614" d="M344.511,288.216a.162.162,0,0,0-.03.037c-.176.195-.353.383-.523.578.079-.292-.061-.785.5-.627a.143.143,0,0,1,.049.012" transform="translate(-134.735 -112.884)" fill="#740d3c"></path></g></g></svg>