<svg xmlns="http://www.w3.org/2000/svg" xmlns:xlink="http://www.w3.org/1999/xlink" width="549.274" height="463.337" viewBox="0 0 549.274 463.337"><defs><clipPath id="clip-path"><rect id="Rectangle_2237" data-name="Rectangle 2237" width="474.759" height="278.113" fill="none"></rect></clipPath></defs><g id="Group_593" data-name="Group 593" transform="matrix(0.891, 0.454, -0.454, 0.891, 126.261, 0)"><g id="Group_415" data-name="Group 415" transform="translate(0 0)" clip-path="url(#clip-path)"><path id="Path_12604" data-name="Path 12604" d="M.083,0A.221.221,0,0,0,.041.05.075.075,0,0,0,0,.041Z" transform="translate(285.621 238.795)" fill="#7d81bd"></path><path id="Path_12605" data-name="Path 12605" d="M209.174,38.664c-24.34,42-60.062,68.256-107.855,77.335C66.151,122.668,32.558,117.465,0,100.723,8.906,95.644,14.78,88.2,20.181,80.334c.232-.265.472-.522.713-.787a10.7,10.7,0,0,0,4.026-.389,154.247,154.247,0,0,0,77.832-44.753C112.4,24.207,120.9,13.089,126.885.24c.232-.091.464-.166.7-.24,29.965,3.769,56.914,14.722,80.616,33.585,2.146,1.707,2.229,2.916.978,5.078" transform="translate(264.769 159.297)" fill="#7d81bd"></path><path id="Path_12606" data-name="Path 12606" d="M209.072,101.286a136.294,136.294,0,0,1-37.736,13.827c-56.856,11.184-106.024-3.5-147.024-44.6C14.851,61.032,7.271,50.038.685,38.357c-1.069-1.905-.961-2.949.853-4.391C23.616,16.395,48.445,5.17,76.413,1.036,78.443.737,80.464.348,82.494,0a3.331,3.331,0,0,1,.688.282,146.63,146.63,0,0,0,30.9,40.8,152.192,152.192,0,0,0,46.807,30.3c8.765,3.62,17.679,6.843,27.132,8.227a59.714,59.714,0,0,0,21.051,21.68" transform="translate(0 159.231)" fill="#49b863"></path><path id="Path_12607" data-name="Path 12607" d="M114.284,103.17a4.22,4.22,0,0,0-.282.762,145.6,145.6,0,0,0-43.85,56.285,64.846,64.846,0,0,0-26.577-.389,153.771,153.771,0,0,0-13.694-24C21.465,123.6,11.093,113.194,0,103.443c2.162-24.878,10.778-47.47,24.282-68.3A157.044,157.044,0,0,1,54.271,1.3c2.22-1.905,3.413-1.6,5.385.116,28.523,24.762,46.608,55.464,53,92.852.505,2.974,1.085,5.932,1.632,8.9" transform="translate(180.574 0)" fill="#04b8dd"></path><path id="Path_12608" data-name="Path 12608" d="M114.458,80.3c-1.433,3.256-2.924,6.487-4.382,9.734-.232.075-.464.149-.7.24a34.5,34.5,0,0,0-4.449-.779c-22.443-1.176-44.339,1.334-65.58,9.1C26.22,103.4,14.183,110.173,2.51,117.721L0,113.694A149.545,149.545,0,0,0,12.3,34.669a4.193,4.193,0,0,1,.282-.762C29.534,20.925,48.066,11.083,68.778,5.557A155.4,155.4,0,0,1,123.48.62c2.643.24,3.388,1.218,3.579,3.662a155.248,155.248,0,0,1-12.6,76.018" transform="translate(282.274 69.263)" fill="#eb174f"></path><path id="Path_12609" data-name="Path 12609" d="M126.763,112.375q-1.454,2.249-2.891,4.49C108.935,107.09,93.128,99.219,75.8,94.622c-18.938-5.02-38.109-6.818-57.61-4.4a3.332,3.332,0,0,0-.688-.282C12.363,78.7,7.5,67.374,4.617,55.279A157.371,157.371,0,0,1,.641,3.733C.873,1.33,1.726.866,3.847.667A153.662,153.662,0,0,1,79.882,12.937a140.661,140.661,0,0,1,35.1,21.316c-.2,4.523-.5,9.038-.6,13.562a157.135,157.135,0,0,0,12.377,64.561" transform="translate(64.994 69.29)" fill="#fbb714"></path><path id="Path_12610" data-name="Path 12610" d="M106.869,1.054C100.888,13.9,92.388,25.021,82.737,35.219A154.248,154.248,0,0,1,4.9,79.972a10.7,10.7,0,0,1-4.026.389.075.075,0,0,0-.041-.008A.154.154,0,0,0,.853,80.3C2.27,75.946,3.96,71.671,5.02,67.239,8.11,54.464,6.445,42.17.721,30.389.422,29.785.24,29.13,0,28.5,11.673,20.953,23.71,14.177,36.841,9.38,58.082,1.609,79.978-.9,102.421.276a34.5,34.5,0,0,1,4.449.779" transform="translate(284.784 158.483)" fill="#740d3c"></path><path id="Path_12611" data-name="Path 12611" d="M99.107,61.741c.8,6.586,3.1,12.659,5.733,18.648-9.453-1.384-18.367-4.606-27.132-8.226A152.193,152.193,0,0,1,30.9,41.867,146.629,146.629,0,0,1,0,1.066c19.5-2.419,38.672-.621,57.61,4.4,17.331,4.6,33.138,12.468,48.075,22.244-5.542,10.7-8.044,21.954-6.578,34.033" transform="translate(83.182 158.447)" fill="#478508"></path><path id="Path_12612" data-name="Path 12612" d="M31.547,79.025A59.769,59.769,0,0,0,0,56.285,145.6,145.6,0,0,1,43.85,0a149.543,149.543,0,0,1-12.3,79.025" transform="translate(250.727 103.932)" fill="#021246"></path><path id="Path_12613" data-name="Path 12613" d="M44.808,56.384A59.063,59.063,0,0,0,12.416,78.222,157.134,157.134,0,0,1,.039,13.661c.1-4.523.4-9.038.6-13.562q.3-.062.6-.1C12.325,9.751,22.7,20.156,31.114,32.384a153.767,153.767,0,0,1,13.694,24" transform="translate(179.342 103.443)" fill="#028512"></path><path id="Path_12614" data-name="Path 12614" d="M.754.058a.218.218,0,0,0-.041.05C.472.373.232.63,0,.895.108.5-.083-.174.688.042A.2.2,0,0,1,.754.058" transform="translate(284.95 238.736)" fill="#740d3c"></path></g></g></svg>