<svg xmlns="http://www.w3.org/2000/svg" width="28.231" height="37.644" viewBox="0 0 28.231 37.644"><g id="raton" transform="translate(-2.999)"><path id="Path_30" data-name="Path 30" d="M19.468,4.7V2.352A2.352,2.352,0,0,0,17.115,0h0a2.352,2.352,0,0,0-2.352,2.352V4.7A11.775,11.775,0,0,0,3,16.467v6.559A14.447,14.447,0,0,0,16.149,37.612,14.129,14.129,0,0,0,31.23,23.525V16.467A11.775,11.775,0,0,0,19.468,4.7Zm7.057,18.82a9.41,9.41,0,1,1-18.82,0V16.467A7.065,7.065,0,0,1,14.763,9.41h4.7a7.065,7.065,0,0,1,7.057,7.057Z" transform="translate(0)" fill="#012f65"></path><path id="Path_31" data-name="Path 31" d="M12.852,8A2.352,2.352,0,0,0,10.5,10.352v3.137a2.352,2.352,0,1,0,4.7,0V10.352A2.352,2.352,0,0,0,12.852,8Z" transform="translate(4.263 4.547)" fill="#012f65"></path></g></svg>