<svg xmlns="http://www.w3.org/2000/svg" xmlns:xlink="http://www.w3.org/1999/xlink" width="204" height="204" viewBox="0 0 204 204"><defs><clipPath id="clip-path"><rect id="Rectangle_2434" data-name="Rectangle 2434" width="204" height="204" rx="5" transform="translate(-0.454 -0.27)" fill="#47b962"></rect></clipPath></defs><g id="Mask_Group_57" data-name="Mask Group 57" transform="translate(0.453 0.27)" clip-path="url(#clip-path)"><g id="nicaragua" transform="translate(2.198 0.827)"><g id="Group_775" data-name="Group 775"><path id="Path_14010" data-name="Path 14010" d="M159.068,0H44.539A44.539,44.539,0,0,0,0,44.539v23.33H203.607V44.539A44.539,44.539,0,0,0,159.068,0Z" fill="#41479b"></path><path id="Path_14011" data-name="Path 14011" d="M0,40.663A44.539,44.539,0,0,0,44.539,85.2H159.068a44.539,44.539,0,0,0,44.539-44.539V17.333H0Z" transform="translate(0 118.404)" fill="#41479b"></path></g><rect id="Rectangle_2489" data-name="Rectangle 2489" width="203.607" height="67.87" transform="translate(0 67.87)" fill="#f5f5f5"></rect><path id="Path_14012" data-name="Path 14012" d="M27.257,10.495,10.913,34.53H43.6Z" transform="translate(74.546 71.689)" fill="#afebff"></path><path id="Path_14013" data-name="Path 14013" d="M20.138,13.564,9.562,28.947H63.4L52.826,13.564Z" transform="translate(65.321 92.655)" fill="#557de6"></path><g id="Group_776" data-name="Group 776" transform="translate(81.614 101.406)"><path id="Path_14014" data-name="Path 14014" d="M13.534,13.744c.065-.134.134-.266.192-.4C13.668,13.478,13.6,13.61,13.534,13.744Z" transform="translate(10.838 -10.275)" fill="#73af00"></path><path id="Path_14015" data-name="Path 14015" d="M13.592,13.566c.04-.121.089-.238.123-.361C13.68,13.327,13.631,13.445,13.592,13.566Z" transform="translate(11.23 -11.204)" fill="#73af00"></path><path id="Path_14016" data-name="Path 14016" d="M13.463,13.868c.082-.132.164-.262.241-.4C13.628,13.605,13.545,13.737,13.463,13.868Z" transform="translate(10.353 -9.39)" fill="#73af00"></path><path id="Path_14017" data-name="Path 14017" d="M14.145,12.949a1.3,1.3,0,0,0-.416.068,1.308,1.308,0,0,1,.416-.068Z" transform="translate(12.17 -12.949)" fill="#73af00"></path><path id="Path_14018" data-name="Path 14018" d="M14.011,12.982a.954.954,0,0,0-.374.633v0A.955.955,0,0,1,14.011,12.982Z" transform="translate(11.538 -12.728)" fill="#73af00"></path><path id="Path_14019" data-name="Path 14019" d="M13.621,20.377c.229.217.456.424.684.621a15.7,15.7,0,0,0,3.387-3.968c-.064.113-.134.222-.2.332A17.213,17.213,0,0,1,16,13.713a1.127,1.127,0,0,0-1.118-.763C15.088,14.743,15.527,18.038,13.621,20.377Z" transform="translate(11.432 -12.949)" fill="#73af00"></path><path id="Path_14020" data-name="Path 14020" d="M14.239,13.566c.04-.121.089-.238.123-.361C14.327,13.327,14.278,13.445,14.239,13.566Z" transform="translate(15.65 -11.204)" fill="#73af00"></path><path id="Path_14021" data-name="Path 14021" d="M14.658,12.982a.954.954,0,0,0-.374.633v0A.958.958,0,0,1,14.658,12.982Z" transform="translate(15.958 -12.728)" fill="#73af00"></path><path id="Path_14022" data-name="Path 14022" d="M14.181,13.744c.065-.134.134-.266.192-.4C14.315,13.478,14.246,13.61,14.181,13.744Z" transform="translate(15.258 -10.275)" fill="#73af00"></path><path id="Path_14023" data-name="Path 14023" d="M50.24,21.608a5.73,5.73,0,0,1-4.677-2.4,17.811,17.811,0,0,1-2.64-5.493,1.127,1.127,0,0,0-1.12-.764h0c.243,2.14.824,6.419-2.653,8.658H36.888c-.093-.074-.184-.144-.278-.222l.006.005a2.347,2.347,0,0,1-2.884.553c-4.115-2.12-3.475-6.743-3.219-8.994a1.127,1.127,0,0,0-1.118.763,17.212,17.212,0,0,1-1.488,3.649c-.068-.11-.137-.22-.2-.332a16.335,16.335,0,0,0,3.844,4.361,2.347,2.347,0,0,1-2.884.553c-4.115-2.12-3.475-6.743-3.219-8.994a1.127,1.127,0,0,0-1.118.763,17.212,17.212,0,0,1-1.488,3.649c-.068-.11-.137-.22-.2-.332a16.335,16.335,0,0,0,3.844,4.361,2.347,2.347,0,0,1-2.884.553c-4.115-2.12-3.475-6.743-3.219-8.994h0a1.127,1.127,0,0,0-1.12.764,17.8,17.8,0,0,1-2.64,5.493,5.73,5.73,0,0,1-4.677,2.4H10.422V23.53H50.8V21.608Z" transform="translate(-10.422 -12.949)" fill="#73af00"></path><path id="Path_14024" data-name="Path 14024" d="M13.211,13.341c.059.137.127.269.192.4C13.338,13.61,13.27,13.478,13.211,13.341Z" transform="translate(8.632 -10.274)" fill="#73af00"></path><path id="Path_14025" data-name="Path 14025" d="M13.163,13.2c.034.122.083.24.123.361C13.246,13.445,13.2,13.327,13.163,13.2Z" transform="translate(8.3 -11.204)" fill="#73af00"></path><path id="Path_14026" data-name="Path 14026" d="M13.46,13.616v0a.955.955,0,0,0-.374-.633.954.954,0,0,1,.374.633Z" transform="translate(7.772 -12.728)" fill="#73af00"></path><path id="Path_14027" data-name="Path 14027" d="M13.276,13.47c.077.135.159.266.241.4C13.435,13.737,13.353,13.605,13.276,13.47Z" transform="translate(9.074 -9.39)" fill="#73af00"></path><path id="Path_14028" data-name="Path 14028" d="M13.626,13.966l-.029-.039c.082-.11.162-.221.241-.333-.079.112-.16.222-.242.331-.082-.109-.163-.22-.242-.331C13.443,13.719,13.533,13.843,13.626,13.966Z" transform="translate(9.607 -8.552)" fill="#73af00"></path><path id="Path_14029" data-name="Path 14029" d="M13.443,13.709c.094.113.187.224.283.333C13.63,13.933,13.536,13.821,13.443,13.709Z" transform="translate(10.213 -7.763)" fill="#73af00"></path><path id="Path_14030" data-name="Path 14030" d="M13.806,14.094c-.089-.089-.177-.184-.266-.276C13.629,13.91,13.716,14,13.806,14.094Z" transform="translate(10.877 -7.02)" fill="#73af00"></path></g><path id="Path_14031" data-name="Path 14031" d="M24.45,12.95h0a1.249,1.249,0,0,0-.765.254.954.954,0,0,0-.374.633v0a7.608,7.608,0,0,1-.23,1.112c-.035.122-.083.24-.123.361-.079.238-.159.475-.257.7-.059.137-.127.269-.192.4-.1.206-.2.412-.315.611A15.7,15.7,0,0,1,18.8,21c-.228-.2-.455-.4-.684-.621,1.906-2.339,1.467-5.634,1.263-7.427h0a1.3,1.3,0,0,0-.416.068,1.207,1.207,0,0,0-.35.186.954.954,0,0,0-.374.633v0a7.609,7.609,0,0,1-.23,1.112c-.034.122-.083.24-.123.361-.079.238-.159.475-.257.7-.059.137-.127.269-.192.4-.1.206-.2.412-.315.611-.077.135-.159.266-.241.4-.119.19-.241.379-.37.563-.079.113-.159.223-.241.333-.083-.11-.164-.22-.243-.333-.129-.183-.251-.372-.37-.563-.082-.132-.164-.262-.241-.4-.114-.2-.215-.4-.315-.611-.065-.134-.134-.266-.192-.4-.1-.23-.179-.467-.257-.7-.04-.12-.089-.238-.123-.361a7.662,7.662,0,0,1-.23-1.112v0a.954.954,0,0,0-.374-.633,1.249,1.249,0,0,0-.765-.254h0c-.256,2.251-.9,6.874,3.219,8.994a2.434,2.434,0,0,0,2.179.015,2.965,2.965,0,0,1,1.331-.351H21.8C25.274,19.369,24.693,15.09,24.45,12.95Z" transform="translate(88.548 88.457)" fill="#ffe15a"></path><g id="Group_777" data-name="Group 777" transform="translate(96.64 101.407)"><path id="Path_14032" data-name="Path 14032" d="M12.515,13.2c.035.122.083.24.123.361C12.6,13.445,12.55,13.327,12.515,13.2Z" transform="translate(-11.146 -11.204)" fill="#73af00"></path><path id="Path_14033" data-name="Path 14033" d="M12.813,13.616v0a.955.955,0,0,0-.374-.633.954.954,0,0,1,.374.633Z" transform="translate(-11.673 -12.728)" fill="#73af00"></path><path id="Path_14034" data-name="Path 14034" d="M12.564,13.341c.059.137.127.269.192.4C12.691,13.61,12.623,13.478,12.564,13.341Z" transform="translate(-10.814 -10.275)" fill="#73af00"></path><path id="Path_14035" data-name="Path 14035" d="M12.341,12.949h0a1.3,1.3,0,0,1,.416.068A1.308,1.308,0,0,0,12.341,12.949Z" transform="translate(-12.341 -12.949)" fill="#73af00"></path></g><path id="Path_14036" data-name="Path 14036" d="M15.73,21.944a2.347,2.347,0,0,0,2.884-.553A16.334,16.334,0,0,1,14.77,17.03c-.113-.2-.215-.4-.315-.611-.065-.134-.134-.266-.192-.4-.1-.23-.179-.467-.257-.7-.04-.12-.089-.238-.123-.361a7.664,7.664,0,0,1-.23-1.112v0a.954.954,0,0,0-.374-.633,1.183,1.183,0,0,0-.35-.186,1.308,1.308,0,0,0-.416-.068h0C12.255,15.2,11.616,19.824,15.73,21.944Z" transform="translate(84.127 88.457)" fill="#ffe15a"></path><g id="Group_778" data-name="Group 778" transform="translate(92.338 101.66)"><path id="Path_14037" data-name="Path 14037" d="M11.868,13.2c.035.122.083.24.123.361C11.951,13.445,11.9,13.327,11.868,13.2Z" transform="translate(-11.264 -11.458)" fill="#73af00"></path><path id="Path_14038" data-name="Path 14038" d="M11.917,13.341c.059.137.127.269.192.4C12.044,13.61,11.976,13.478,11.917,13.341Z" transform="translate(-10.932 -10.529)" fill="#73af00"></path><path id="Path_14039" data-name="Path 14039" d="M12.166,13.616v0a.955.955,0,0,0-.374-.633.954.954,0,0,1,.374.633Z" transform="translate(-11.791 -12.982)" fill="#73af00"></path></g><path id="Path_14040" data-name="Path 14040" d="M15.083,21.944a2.347,2.347,0,0,0,2.884-.553,16.334,16.334,0,0,1-3.844-4.361c-.114-.2-.215-.4-.315-.611-.065-.134-.134-.266-.192-.4-.1-.23-.179-.467-.257-.7-.04-.12-.089-.238-.123-.361a7.665,7.665,0,0,1-.23-1.112v0a.954.954,0,0,0-.374-.633,1.249,1.249,0,0,0-.765-.254h0C11.608,15.2,10.968,19.824,15.083,21.944Z" transform="translate(79.707 88.457)" fill="#ffe15a"></path><path id="Path_14041" data-name="Path 14041" d="M12.175,12.9l-.24.92a30.422,30.422,0,0,1,17.328,0l-.24-.92a34.012,34.012,0,0,0-16.848,0Z" transform="translate(81.528 80.864)" fill="#41479b"></path><path id="Path_14042" data-name="Path 14042" d="M12.188,12.85l-.24.92a29.629,29.629,0,0,1,17.12,0l-.24-.92a33.069,33.069,0,0,0-16.64,0Z" transform="translate(81.619 80.512)" fill="#5aa0e6"></path><path id="Path_14043" data-name="Path 14043" d="M12.2,12.806l-.24.92a28.891,28.891,0,0,1,16.926,0l-.24-.92a32.213,32.213,0,0,0-16.447,0Z" transform="translate(81.704 80.187)" fill="#9bc800"></path><path id="Path_14044" data-name="Path 14044" d="M12.215,12.756l-.24.92a28.068,28.068,0,0,1,16.706,0l-.24-.92a31.246,31.246,0,0,0-16.226,0Z" transform="translate(81.8 79.814)" fill="#ffe14e"></path><path id="Path_14045" data-name="Path 14045" d="M12.228,12.707l-.24.92a27.281,27.281,0,0,1,16.49,0l-.24-.92a30.313,30.313,0,0,0-16.01,0Z" transform="translate(81.894 79.448)" fill="#ffb14e"></path><path id="Path_14046" data-name="Path 14046" d="M12.171,12.685,12,13.33a26.43,26.43,0,0,1,16.254,0l-.168-.644a29.929,29.929,0,0,0-15.918,0Z" transform="translate(81.997 79.292)" fill="#ff4b55"></path><path id="Path_14047" data-name="Path 14047" d="M64.241,52.524H10.4a.961.961,0,0,1-.8-1.495l26.92-40.38a1,1,0,0,1,1.6,0l26.92,40.38a.961.961,0,0,1-.8,1.495ZM12.2,50.6H62.445L37.321,12.916Z" transform="translate(64.482 70.012)" fill="#ffe15a"></path><path id="Path_14048" data-name="Path 14048" d="M16.551,14.312a2.312,2.312,0,0,0-2.229-2.132c-.8,0-1.452.49-1.452,1.095a.978.978,0,0,0,.424.773c0,.011,0,.023,0,.033a1.018,1.018,0,0,0-.541.846c0,.577.594,1.044,1.345,1.086l.618,1.236.558-1.115A1.831,1.831,0,0,0,16.551,14.312Z" transform="translate(87.091 83.202)" fill="#ff4b55"></path></g></g></svg>