<svg xmlns="http://www.w3.org/2000/svg" xmlns:xlink="http://www.w3.org/1999/xlink" width="208" height="208" viewBox="0 0 208 208"><defs><clipPath id="clip-path"><rect id="Rectangle_2633" data-name="Rectangle 2633" width="208" height="208" rx="5" transform="translate(0.438 0.106)" fill="#47b962"></rect></clipPath></defs><g id="Mask_Group_120" data-name="Mask Group 120" transform="translate(-0.438 -0.106)" clip-path="url(#clip-path)"><g id="chile" transform="translate(0.497 0.255)"><path id="Path_14892" data-name="Path 14892" d="M162.021,0H45.366A45.366,45.366,0,0,0,0,45.366v52.87H7.151v5.458H207.386V45.366A45.366,45.366,0,0,0,162.021,0Z" fill="#f5f5f5"></path><path id="Path_14893" data-name="Path 14893" d="M7.151,12.316H0V76.1a45.366,45.366,0,0,0,45.366,45.366H162.021A45.366,45.366,0,0,0,207.386,76.1V17.773H7.151Z" transform="translate(0 85.92)" fill="#ff4b55"></path><path id="Path_14894" data-name="Path 14894" d="M103.693,0H45.366A45.366,45.366,0,0,0,0,45.366v58.327H103.693Z" fill="#41479b"></path><path id="Path_14895" data-name="Path 14895" d="M31.3,4.907l5.2,15.6,16.445.128a2.216,2.216,0,0,1,1.3,4L41.018,34.4l4.961,15.679a2.216,2.216,0,0,1-3.4,2.471L29.2,42.99,15.82,52.553a2.216,2.216,0,0,1-3.4-2.471L17.379,34.4,4.15,24.633a2.216,2.216,0,0,1,1.3-4l16.445-.128,5.2-15.6A2.216,2.216,0,0,1,31.3,4.907Z" transform="translate(22.648 23.663)" fill="#f5f5f5"></path></g></g></svg>