<svg xmlns="http://www.w3.org/2000/svg" xmlns:xlink="http://www.w3.org/1999/xlink" width="204" height="204" viewBox="0 0 204 204"><defs><clipPath id="clip-path"><rect id="Rectangle_2618" data-name="Rectangle 2618" width="204" height="204" rx="5" transform="translate(0.14 0.129)" fill="#fff"></rect></clipPath></defs><g id="Mask_Group_115" data-name="Mask Group 115" transform="translate(-0.141 -0.129)" clip-path="url(#clip-path)"><g id="honduras" transform="translate(-0.087 -0.082)"><g id="Group_880" data-name="Group 880"><path id="Path_14760" data-name="Path 14760" d="M159.73,0H44.724A44.724,44.724,0,0,0,0,44.724V68.152H204.455V44.724A44.724,44.724,0,0,0,159.73,0Z" fill="#4173cd"></path><path id="Path_14761" data-name="Path 14761" d="M0,40.761A44.724,44.724,0,0,0,44.724,85.485H159.73a44.724,44.724,0,0,0,44.724-44.724V17.333H0Z" transform="translate(0 118.97)" fill="#4173cd"></path></g><rect id="Rectangle_2617" data-name="Rectangle 2617" width="204.455" height="68.153" transform="translate(0 68.153)" fill="#f5f5f5"></rect><g id="Group_881" data-name="Group 881" transform="translate(37.662 77.381)"><path id="Path_14762" data-name="Path 14762" d="M22.162,12.372l1.926,5.773,6.086.047a.82.82,0,0,1,.481,1.48l-4.9,3.615,1.836,5.8A.82.82,0,0,1,26.335,30l-4.951-3.539L16.432,30a.82.82,0,0,1-1.259-.914l1.836-5.8-4.9-3.615a.82.82,0,0,1,.481-1.48l6.086-.047,1.926-5.773A.82.82,0,0,1,22.162,12.372Z" transform="translate(43.181 3.685)" fill="#4173cd"></path><path id="Path_14763" data-name="Path 14763" d="M15.172,14.342,17.1,20.116l6.086.047a.82.82,0,0,1,.481,1.48l-4.9,3.615,1.836,5.8a.82.82,0,0,1-1.259.914l-4.952-3.539L9.443,31.975a.82.82,0,0,1-1.259-.914l1.836-5.8-4.9-3.615a.82.82,0,0,1,.481-1.48l6.086-.047,1.926-5.773A.82.82,0,0,1,15.172,14.342Z" transform="translate(-4.789 17.21)" fill="#4173cd"></path><path id="Path_14764" data-name="Path 14764" d="M15.172,10.4,17.1,16.174l6.086.047a.82.82,0,0,1,.481,1.48l-4.9,3.615,1.836,5.8a.82.82,0,0,1-1.259.914l-4.952-3.539L9.443,28.034a.82.82,0,0,1-1.259-.914l1.836-5.8L5.124,17.7a.82.82,0,0,1,.481-1.48l6.086-.047L13.616,10.4A.82.82,0,0,1,15.172,10.4Z" transform="translate(-4.789 -9.84)" fill="#4173cd"></path><path id="Path_14765" data-name="Path 14765" d="M29.151,14.342l1.926,5.773,6.086.047a.82.82,0,0,1,.481,1.48l-4.9,3.615,1.836,5.8a.82.82,0,0,1-1.259.914l-4.952-3.539-4.952,3.539a.82.82,0,0,1-1.259-.914L24,25.258l-4.9-3.615a.82.82,0,0,1,.481-1.48l6.086-.047,1.926-5.773A.821.821,0,0,1,29.151,14.342Z" transform="translate(91.152 17.21)" fill="#4173cd"></path><path id="Path_14766" data-name="Path 14766" d="M29.151,10.4l1.926,5.773,6.086.047a.82.82,0,0,1,.481,1.48l-4.9,3.615,1.836,5.8a.82.82,0,0,1-1.259.914l-4.952-3.539-4.952,3.539a.82.82,0,0,1-1.259-.914L24,21.317,19.1,17.7a.82.82,0,0,1,.481-1.48l6.086-.047L27.594,10.4A.821.821,0,0,1,29.151,10.4Z" transform="translate(91.152 -9.84)" fill="#4173cd"></path></g></g></g></svg>