<svg xmlns="http://www.w3.org/2000/svg" xmlns:xlink="http://www.w3.org/1999/xlink" width="204" height="206" viewBox="0 0 204 206"><defs><clipPath id="clip-path"><rect id="Rectangle_2616" data-name="Rectangle 2616" width="204" height="206" rx="5" transform="translate(0.14 0.33)" fill="#fff"></rect></clipPath></defs><g id="Mask_Group_114" data-name="Mask Group 114" transform="translate(-0.141 -0.33)" clip-path="url(#clip-path)"><g id="panama" transform="translate(-0.087 1.072)"><path id="Path_14755" data-name="Path 14755" d="M159.73,0H44.724A44.724,44.724,0,0,0,0,44.724V159.73a44.724,44.724,0,0,0,44.724,44.724H159.73a44.724,44.724,0,0,0,44.724-44.724V44.724A44.724,44.724,0,0,0,159.73,0Z" fill="#f5f5f5"></path><path id="Path_14756" data-name="Path 14756" d="M70.5,0H13V102.227H115.227v-57.5A44.724,44.724,0,0,0,70.5,0Z" transform="translate(89.227)" fill="#ff4b55"></path><g id="Group_879" data-name="Group 879" transform="translate(0 35.1)"><path id="Path_14757" data-name="Path 14757" d="M0,13V70.5a44.724,44.724,0,0,0,44.724,44.724h57.5V13Z" transform="translate(0 54.127)" fill="#4173cd"></path><path id="Path_14758" data-name="Path 14758" d="M22.489,5.442,25.85,15.519l10.622.082a1.431,1.431,0,0,1,.839,2.582l-8.545,6.31,3.2,10.127a1.431,1.431,0,0,1-2.2,1.6L21.131,30.04,12.49,36.217a1.431,1.431,0,0,1-2.2-1.6l3.2-10.127-8.545-6.31A1.431,1.431,0,0,1,5.791,15.6l10.622-.082L19.773,5.442A1.431,1.431,0,0,1,22.489,5.442Z" transform="translate(29.982 -4.464)" fill="#4173cd"></path></g><path id="Path_14759" data-name="Path 14759" d="M35.489,18.442,38.85,28.519l10.622.082a1.431,1.431,0,0,1,.839,2.582l-8.545,6.31,3.2,10.127a1.431,1.431,0,0,1-2.2,1.6L34.131,43.04,25.49,49.217a1.431,1.431,0,0,1-2.2-1.6l3.2-10.127-8.545-6.31a1.431,1.431,0,0,1,.839-2.582l10.622-.082,3.361-10.077A1.431,1.431,0,0,1,35.489,18.442Z" transform="translate(119.21 119.864)" fill="#ff4b55"></path></g></g></svg>