<svg xmlns="http://www.w3.org/2000/svg" xmlns:xlink="http://www.w3.org/1999/xlink" width="204" height="204" viewBox="0 0 204 204"><defs><clipPath id="clip-path"><rect id="Rectangle_2429" data-name="Rectangle 2429" width="204" height="204" rx="5" transform="translate(0.23 -0.377)" fill="#47b962"></rect></clipPath></defs><g id="Mask_Group_37" data-name="Mask Group 37" transform="translate(-0.23 0.377)" clip-path="url(#clip-path)"><g id="bolivia" transform="translate(-2.026 0.428)"><path id="Path_13587" data-name="Path 13587" d="M0,40.663A44.539,44.539,0,0,0,44.539,85.2H159.068a44.539,44.539,0,0,0,44.539-44.539V17.333H0Z" transform="translate(0 118.404)" fill="#73af00"></path><path id="Path_13588" data-name="Path 13588" d="M159.068,0H44.539A44.539,44.539,0,0,0,0,44.539v23.33H203.607V44.539A44.539,44.539,0,0,0,159.068,0Z" fill="#ff4b55"></path><rect id="Rectangle_2447" data-name="Rectangle 2447" width="203.607" height="67.87" transform="translate(0 67.87)" fill="#ffe15a"></rect><path id="Path_13589" data-name="Path 13589" d="M17.691,10.1l-.4.5a15.722,15.722,0,0,0-.892,1.368A11.1,11.1,0,0,0,14.958,17.3a10.949,10.949,0,0,0,.592,3.476,10.345,10.345,0,0,0,1.923,3.275,9.411,9.411,0,0,0,3.2,2.351,8.925,8.925,0,0,0,1.917.643,9.994,9.994,0,0,0,1,.169,4.641,4.641,0,0,0,.511.031l.256.012.128.006.064,0,.032,0H24.6c-.052,0,.138,0-.112,0,.415-.024.919-.027,1.261-.069.3-.07.55-.057.892-.159a8.9,8.9,0,0,0,1.917-.643,9.417,9.417,0,0,0,3.2-2.351,10.348,10.348,0,0,0,1.923-3.275,11,11,0,0,0,.591-3.481,11.1,11.1,0,0,0-1.444-5.332,14.314,14.314,0,0,0-.907-1.382l-.368-.471-.032-.041a.678.678,0,0,1,.9-.989l.569.365a11.115,11.115,0,0,1,1.48,1.238,11.784,11.784,0,0,1,3.252,6.251,12.536,12.536,0,0,1-.074,4.9,12.78,12.78,0,0,1-2.3,5.091,13.181,13.181,0,0,1-4.617,3.906,12.522,12.522,0,0,1-2.959,1.1,14.349,14.349,0,0,1-1.68.293c-.523.058-.9.058-1.351.091h-.177l-.05,0-.1,0-.2-.01-.4-.021c-.265-.021-.531-.017-.794-.063a14.843,14.843,0,0,1-1.568-.283,12.54,12.54,0,0,1-2.959-1.1,13.181,13.181,0,0,1-4.617-3.906,12.783,12.783,0,0,1-2.3-5.091,12.394,12.394,0,0,1-.073-4.906,11.794,11.794,0,0,1,3.252-6.246,11.5,11.5,0,0,1,1.495-1.251l.54-.34a.682.682,0,0,1,.894,1.007Z" transform="translate(77.192 61.326)" fill="#73af00"></path><path id="Path_13590" data-name="Path 13590" d="M15.177,15.935v8.48a.95.95,0,0,1-1.621.672l-.466-.466a2.067,2.067,0,0,1-.605-1.461V15.935h2.693Z" transform="translate(85.28 108.852)" fill="#ff4b55"></path><path id="Path_13591" data-name="Path 13591" d="M12.312,15.763v6.155a1.4,1.4,0,0,0,.409.987l.938.938V15.763H12.312Z" transform="translate(84.105 107.677)" fill="#ffe15a"></path><path id="Path_13592" data-name="Path 13592" d="M12.14,15.763v3.3a1.778,1.778,0,0,0,.521,1.257l.826.826V15.763H12.14Z" transform="translate(82.93 107.677)" fill="#73af00"></path><path id="Path_13593" data-name="Path 13593" d="M13.172,15.935v8.48a.95.95,0,0,0,1.621.672l.466-.466a2.067,2.067,0,0,0,.605-1.461V15.935H13.172Z" transform="translate(89.978 108.852)" fill="#ff4b55"></path><path id="Path_13594" data-name="Path 13594" d="M14.863,15.763v6.155a1.4,1.4,0,0,1-.409.987l-.938.938V15.763h1.347Z" transform="translate(92.327 107.677)" fill="#ffe15a"></path><path id="Path_13595" data-name="Path 13595" d="M15.034,15.763v3.3a1.778,1.778,0,0,1-.521,1.257l-.826.826V15.763h1.347Z" transform="translate(93.502 107.677)" fill="#73af00"></path><path id="Path_13596" data-name="Path 13596" d="M23.256,22.065,38.068,11.292V33.445A11.51,11.51,0,0,1,26.558,44.956h0a11.511,11.511,0,0,1-6.1-1.75l-7.973-4.983V21.877Z" transform="translate(85.28 77.138)" fill="#ff4b55"></path><path id="Path_13597" data-name="Path 13597" d="M32.682,11.792V27.335a11.439,11.439,0,0,1-14.327,11.14l-5.871-3.67V18.46l10.772.187Z" transform="translate(85.28 80.555)" fill="#ffe15a"></path><path id="Path_13598" data-name="Path 13598" d="M28.642,12.168V22.2a11.439,11.439,0,0,1-14.326,11.14L12.484,32.2V15.9l10.772.187Z" transform="translate(85.28 83.117)" fill="#73af00"></path><path id="Path_13599" data-name="Path 13599" d="M16.559,13.567,22.484,10.6l-4.309,5.386H15.751Z" transform="translate(107.597 72.44)" fill="#f5f5f5"></path><path id="Path_13600" data-name="Path 13600" d="M24.288,22.924,39.1,12.152V34.3A11.51,11.51,0,0,1,27.589,45.815h0a11.511,11.511,0,0,1-6.1-1.75l-7.973-4.983V22.738Z" transform="translate(92.327 83.011)" fill="#ff4b55"></path><path id="Path_13601" data-name="Path 13601" d="M29.674,13.027V23.061A11.439,11.439,0,0,1,15.348,34.2l-1.832-1.145v-16.3l10.772.187Z" transform="translate(92.327 88.991)" fill="#73af00"></path><path id="Path_13602" data-name="Path 13602" d="M17.591,14.426l5.925-2.962L19.207,16.85H16.783Z" transform="translate(114.644 78.312)" fill="#f5f5f5"></path><path id="Path_13603" data-name="Path 13603" d="M23.772,22.581,38.584,11.808V33.961A11.51,11.51,0,0,1,27.074,45.472h0a11.511,11.511,0,0,1-6.1-1.75L13,38.739V22.394Z" transform="translate(88.803 80.661)" fill="#ff4b55"></path><path id="Path_13604" data-name="Path 13604" d="M33.2,12.308V27.851a11.439,11.439,0,0,1-14.326,11.14L13,35.322V18.976l10.772.187Z" transform="translate(88.803 84.079)" fill="#ffe15a"></path><path id="Path_13605" data-name="Path 13605" d="M29.158,12.683V22.717a11.439,11.439,0,0,1-14.327,11.14L13,32.713v-16.3l10.772.187Z" transform="translate(88.803 86.641)" fill="#73af00"></path><path id="Path_13606" data-name="Path 13606" d="M17.075,14.083,23,11.12l-4.309,5.386H16.267Z" transform="translate(111.121 75.963)" fill="#f5f5f5"></path><path id="Path_13607" data-name="Path 13607" d="M25.061,22.065,10.249,11.292V33.445A11.51,11.51,0,0,0,21.759,44.956h0a11.511,11.511,0,0,0,6.1-1.75l7.973-4.983V21.877Z" transform="translate(70.01 77.138)" fill="#ff4b55"></path><path id="Path_13608" data-name="Path 13608" d="M10.937,11.792V27.335a11.439,11.439,0,0,0,14.327,11.14l5.871-3.67V18.46l-10.772.187Z" transform="translate(74.708 80.555)" fill="#ffe15a"></path><path id="Path_13609" data-name="Path 13609" d="M11.452,12.168V22.2a11.439,11.439,0,0,0,14.327,11.14L27.611,32.2V15.9l-10.772.187Z" transform="translate(78.232 83.117)" fill="#73af00"></path><path id="Path_13610" data-name="Path 13610" d="M15.314,13.567,9.389,10.6,13.7,15.991h2.424Z" transform="translate(64.137 72.44)" fill="#f5f5f5"></path><path id="Path_13611" data-name="Path 13611" d="M24.029,22.924,9.217,12.152V34.3A11.51,11.51,0,0,0,20.728,45.815h0a11.511,11.511,0,0,0,6.1-1.75L34.8,39.083V22.738Z" transform="translate(62.962 83.011)" fill="#ff4b55"></path><path id="Path_13612" data-name="Path 13612" d="M10.421,13.027V23.061A11.439,11.439,0,0,0,24.747,34.2l1.832-1.145v-16.3l-10.772.187Z" transform="translate(71.185 88.991)" fill="#73af00"></path><path id="Path_13613" data-name="Path 13613" d="M14.282,14.426,8.357,11.464l4.309,5.386H15.09Z" transform="translate(57.089 78.312)" fill="#f5f5f5"></path><path id="Path_13614" data-name="Path 13614" d="M24.545,22.581,9.733,11.808V33.961A11.51,11.51,0,0,0,21.244,45.472h0a11.511,11.511,0,0,0,6.1-1.75l7.973-4.983V22.394Z" transform="translate(66.486 80.661)" fill="#ff4b55"></path><path id="Path_13615" data-name="Path 13615" d="M10.421,12.308V27.851a11.439,11.439,0,0,0,14.326,11.14l5.872-3.669V18.976l-10.772.187Z" transform="translate(71.185 84.079)" fill="#ffe15a"></path><path id="Path_13616" data-name="Path 13616" d="M10.937,12.683V22.717a11.439,11.439,0,0,0,14.327,11.14L27.1,32.713v-16.3L16.323,16.6Z" transform="translate(74.708 86.641)" fill="#73af00"></path><g id="Group_730" data-name="Group 730" transform="translate(81.605 90.002)"><path id="Path_13617" data-name="Path 13617" d="M12.985,44.754,11.21,42.978a2.693,2.693,0,0,1,.064-3.871L40.662,11.493,44.47,15.3,16.856,44.689A2.693,2.693,0,0,1,12.985,44.754Z" transform="translate(-10.421 -11.493)" fill="#ffbe5a"></path><path id="Path_13618" data-name="Path 13618" d="M13.206,16.972a1.38,1.38,0,0,1-2.729,0,.794.794,0,0,1,0-.341,1.38,1.38,0,0,1,2.729,0A.794.794,0,0,1,13.206,16.972Z" transform="translate(-10.165 15.572)" fill="#ffbe5a"></path></g><ellipse id="Ellipse_127" data-name="Ellipse 127" cx="2.693" cy="1.346" rx="2.693" ry="1.346" transform="translate(114.7 94.763) rotate(-135)" fill="#f5f5f5"></ellipse><g id="Group_731" data-name="Group 731" transform="translate(87.952 90.002)"><path id="Path_13619" data-name="Path 13619" d="M42.717,44.754l1.775-1.775a2.693,2.693,0,0,0-.064-3.871L15.04,11.493,11.231,15.3,38.846,44.689A2.693,2.693,0,0,0,42.717,44.754Z" transform="translate(-11.231 -11.493)" fill="#ffbe5a"></path><path id="Path_13620" data-name="Path 13620" d="M15.207,16.972a1.38,1.38,0,0,0,2.729,0,.794.794,0,0,0,0-.341,1.38,1.38,0,0,0-2.729,0A.8.8,0,0,0,15.207,16.972Z" transform="translate(15.801 15.572)" fill="#ffbe5a"></path></g><ellipse id="Ellipse_128" data-name="Ellipse 128" cx="2.693" cy="1.346" rx="2.693" ry="1.346" transform="translate(87 92.862) rotate(-45)" fill="#f5f5f5"></ellipse><ellipse id="Ellipse_129" data-name="Ellipse 129" cx="11.906" cy="14.139" rx="11.906" ry="14.139" transform="translate(89.897 93.816)" fill="#ffbe5a"></ellipse><path id="Path_13621" data-name="Path 13621" d="M18.873,12.152,19.5,14.9l1.449-2.413-.247,2.8,2.124-1.848-1.1,2.59,2.59-1.1-1.848,2.124,2.8-.247-2.413,1.449,2.743.632-2.743.632,2.413,1.449-2.8-.247,1.848,2.124-2.59-1.1,1.1,2.59-2.124-1.848.247,2.8L19.5,22.875l-.632,2.743-.632-2.743-1.449,2.413.247-2.8-2.123,1.848,1.1-2.59-2.59,1.1,1.848-2.124-2.8.247,2.413-1.449-2.743-.632,2.743-.632L12.47,16.8l2.8.247-1.848-2.124,2.59,1.1-1.1-2.59,2.123,1.848-.247-2.8L18.241,14.9Z" transform="translate(82.93 83.011)" fill="#ff4b55"></path><path id="Path_13622" data-name="Path 13622" d="M38.248,18.865s-4.46,1.178-7.364-1.262A31.314,31.314,0,0,0,24.2,13.129a1.3,1.3,0,0,0-1.108,0,14.193,14.193,0,0,0-3.319,2.119c-1.767,1.557-7.2,4.629-8.29,4.629V26.57l8.542,7.4,10.1-.295Z" transform="translate(78.452 88.837)" fill="#73af00"></path><path id="Path_13623" data-name="Path 13623" d="M26.508,46.56c-8.539,0-15.485-7.853-15.485-17.5s6.946-17.5,15.485-17.5,15.485,7.853,15.485,17.5S35.047,46.56,26.508,46.56Zm0-30.97c-6.311,0-11.446,6.041-11.446,13.465S20.2,42.521,26.508,42.521,37.954,36.48,37.954,29.055,32.819,15.59,26.508,15.59Z" transform="translate(75.295 78.9)" fill="#3cc8ff"></path><g id="Group_732" data-name="Group 732" transform="translate(86.97 107.989)"><path id="Path_13624" data-name="Path 13624" d="M14.1,15.629l.3.89.938.007a.126.126,0,0,1,.074.228l-.754.557.283.894a.126.126,0,0,1-.194.141L13.98,17.8l-.763.545a.126.126,0,0,1-.194-.141l.283-.894-.754-.557a.126.126,0,0,1,.074-.228l.938-.007.3-.89A.127.127,0,0,1,14.1,15.629Z" transform="translate(-1.587 -1.817)" fill="#ffbe5a"></path><path id="Path_13625" data-name="Path 13625" d="M13.563,15.4l.3.89.938.007a.126.126,0,0,1,.074.228l-.754.557.283.894a.126.126,0,0,1-.194.141l-.763-.545-.763.545a.126.126,0,0,1-.194-.141l.283-.894-.754-.557a.126.126,0,0,1,.074-.228l.938-.007.3-.89A.127.127,0,0,1,13.563,15.4Z" transform="translate(-5.259 -3.396)" fill="#ffbe5a"></path><path id="Path_13626" data-name="Path 13626" d="M13.131,15.006l.3.89.938.007a.126.126,0,0,1,.074.228l-.754.557.283.894a.126.126,0,0,1-.194.141l-.763-.545-.763.545a.126.126,0,0,1-.194-.141l.283-.894-.754-.557a.126.126,0,0,1,.074-.228l.938-.007.3-.89A.127.127,0,0,1,13.131,15.006Z" transform="translate(-8.208 -6.075)" fill="#ffbe5a"></path><path id="Path_13627" data-name="Path 13627" d="M12.837,14.484l.3.89.938.007a.126.126,0,0,1,.074.228l-.754.557.283.894a.126.126,0,0,1-.194.141l-.763-.545-.763.545a.126.126,0,0,1-.194-.141l.283-.894-.754-.557a.126.126,0,0,1,.074-.228l.938-.007.3-.89A.127.127,0,0,1,12.837,14.484Z" transform="translate(-10.218 -9.642)" fill="#ffbe5a"></path><path id="Path_13628" data-name="Path 13628" d="M12.707,13.876l.3.89.938.007a.126.126,0,0,1,.074.228l-.754.557.283.894a.126.126,0,0,1-.194.141l-.763-.545-.763.545a.126.126,0,0,1-.194-.141l.283-.894L11.157,15a.126.126,0,0,1,.074-.228l.938-.007.3-.89A.127.127,0,0,1,12.707,13.876Z" transform="translate(-11.106 -13.79)" fill="#ffbe5a"></path><path id="Path_13629" data-name="Path 13629" d="M14.482,15.629l-.3.89-.938.007a.126.126,0,0,0-.074.228l.754.557-.283.894a.126.126,0,0,0,.194.141L14.6,17.8l.763.545a.126.126,0,0,0,.194-.141l-.283-.894.754-.557a.126.126,0,0,0-.074-.228l-.938-.007-.3-.89A.127.127,0,0,0,14.482,15.629Z" transform="translate(2.665 -1.817)" fill="#ffbe5a"></path><path id="Path_13630" data-name="Path 13630" d="M15.019,15.4l-.3.89-.938.007a.126.126,0,0,0-.074.228l.754.557-.283.894a.126.126,0,0,0,.194.141l.763-.545.763.545a.126.126,0,0,0,.194-.141l-.283-.894.754-.557a.126.126,0,0,0-.074-.228l-.938-.007-.3-.89A.127.127,0,0,0,15.019,15.4Z" transform="translate(6.337 -3.396)" fill="#ffbe5a"></path><path id="Path_13631" data-name="Path 13631" d="M15.451,15.006l-.3.89-.938.007a.126.126,0,0,0-.074.228l.754.557-.283.894a.126.126,0,0,0,.194.141l.763-.545.763.545a.126.126,0,0,0,.194-.141l-.283-.894L17,16.13a.126.126,0,0,0-.074-.228l-.938-.007-.3-.89A.127.127,0,0,0,15.451,15.006Z" transform="translate(9.286 -6.075)" fill="#ffbe5a"></path><path id="Path_13632" data-name="Path 13632" d="M15.745,14.484l-.3.89-.938.007a.126.126,0,0,0-.074.228l.754.557-.283.894a.126.126,0,0,0,.194.141l.763-.545.763.545a.126.126,0,0,0,.194-.141l-.283-.894.754-.557a.126.126,0,0,0-.074-.228l-.938-.007-.3-.89A.127.127,0,0,0,15.745,14.484Z" transform="translate(11.297 -9.642)" fill="#ffbe5a"></path><path id="Path_13633" data-name="Path 13633" d="M15.875,13.876l-.3.89-.938.007a.126.126,0,0,0-.074.228l.754.557-.283.894a.126.126,0,0,0,.194.141L16,16.048l.763.545a.126.126,0,0,0,.194-.141l-.283-.894L17.424,15a.126.126,0,0,0-.074-.228l-.938-.007-.3-.89A.127.127,0,0,0,15.875,13.876Z" transform="translate(12.185 -13.79)" fill="#ffbe5a"></path></g><path id="Path_13634" data-name="Path 13634" d="M12.3,19.6l.447,2.14h.192v-1.46a4.4,4.4,0,0,0,.768,1.46h.365a2.089,2.089,0,0,1-.488-1.169c0-.663.527-.753.527-1.461h.452v2.63h.264l.489-2.344a7.118,7.118,0,0,0,1.162,2.344h.337a4.254,4.254,0,0,1-.656-2.675,1.487,1.487,0,0,0,.723-1.34V16.33a.472.472,0,0,1,.472-.472h.325s-.483-.937-1-1.073V14.2l-.389.588a.781.781,0,0,0-.591.792v.848a.472.472,0,0,1-.472.472H13.545c-.5,0-1.3.5-1.3,1.14a1.533,1.533,0,0,0,.48,1.06Z" transform="translate(83.648 96.989)" fill="#f5f5f5"></path><path id="Path_13635" data-name="Path 13635" d="M15.017,14.616h-.155a2.845,2.845,0,0,0-1.907.871L14.2,16.728v2.336h1.486V16.728l1.241-1.242A2.842,2.842,0,0,0,15.017,14.616Z" transform="translate(88.497 99.839)" fill="#ffbe5a"></path><g id="Group_733" data-name="Group 733" transform="translate(69.486 87.084)"><rect id="Rectangle_2448" data-name="Rectangle 2448" width="0.449" height="8.275" transform="translate(36.636 23.552)" fill="#f5f5f5"></rect><path id="Path_13636" data-name="Path 13636" d="M17.454,17.148l-2.419,2.924a3.193,3.193,0,0,1,1.094-2.8l-3.114.568a3.516,3.516,0,0,1,3.43-1.578L13.9,14.139a4,4,0,0,1,3.3,1.515,2.932,2.932,0,0,1,2.4-1.978l-1.459,2.216A4.851,4.851,0,0,1,21.62,15.8l-3.009.8s1.683.168,2.378,2.63L18.38,17.442a3.585,3.585,0,0,1,.505,2.8Z" transform="translate(19.421 6.339)" fill="#f5f5f5"></path><path id="Path_13637" data-name="Path 13637" d="M14.8,14.083,8.873,11.12l4.309,5.386h2.424Z" transform="translate(-8.873 -11.12)" fill="#f5f5f5"></path></g><path id="Path_13638" data-name="Path 13638" d="M34.831,18.875l15.986-4.919-8.486-3.182A13.463,13.463,0,0,0,37.6,9.917h-1.6a1.347,1.347,0,0,0-1.347,1.347V12.61h-8.08V11.263a1.347,1.347,0,0,0-1.347-1.347h-1.6a13.461,13.461,0,0,0-4.728.857l-8.486,3.182,15.986,4.919a1.347,1.347,0,0,1,.808,1.889l-1.982,3.964H36.005l-1.982-3.964A1.346,1.346,0,0,1,34.831,18.875Z" transform="translate(71.185 67.741)" fill="#825546"></path><path id="Path_13639" data-name="Path 13639" d="M17.492,11.048a2.764,2.764,0,0,1-3.876,3.876,1.425,1.425,0,0,1-.409-.409,2.764,2.764,0,0,1,3.876-3.876A1.415,1.415,0,0,1,17.492,11.048Z" transform="translate(86.454 68.916)" fill="#f5f5f5"></path><path id="Path_13640" data-name="Path 13640" d="M19.045,11.607h0A1.347,1.347,0,0,1,17.7,12.954H12.312l2.3-2.3a1.346,1.346,0,0,1,.952-.394H17.7A1.347,1.347,0,0,1,19.045,11.607Z" transform="translate(84.105 70.09)" fill="#ffbe5a"></path></g></g></svg>