<svg xmlns="http://www.w3.org/2000/svg" xmlns:xlink="http://www.w3.org/1999/xlink" width="204" height="203" viewBox="0 0 204 203"><defs><clipPath id="clip-path"><rect id="Rectangle_2622" data-name="Rectangle 2622" width="204" height="203" rx="5" transform="translate(0.14 0.095)" fill="#fff"></rect></clipPath></defs><g id="Mask_Group_117" data-name="Mask Group 117" transform="translate(-0.141 -0.095)" clip-path="url(#clip-path)"><g id="guatemala" transform="translate(-0.087 -0.786)"><path id="Path_14770" data-name="Path 14770" d="M44.724,0A44.724,44.724,0,0,0,0,44.724V159.73a44.724,44.724,0,0,0,44.724,44.724H68.152V0Z" fill="#82afff"></path><rect id="Rectangle_2620" data-name="Rectangle 2620" width="68.153" height="204.455" transform="translate(68.153)" fill="#f5f5f5"></rect><path id="Path_14771" data-name="Path 14771" d="M40.761,0H17.333V204.455H40.761A44.724,44.724,0,0,0,85.485,159.73V44.724A44.724,44.724,0,0,0,40.761,0Z" transform="translate(118.97)" fill="#82afff"></path><path id="Path_14772" data-name="Path 14772" d="M14.887,10.445,12.577,11.6l2.125.878Z" transform="translate(86.324 71.691)" fill="#ffc855"></path><g id="Group_882" data-name="Group 882" transform="translate(73.469 78.979)"><path id="Path_14773" data-name="Path 14773" d="M33.324,53.321a23.286,23.286,0,0,1-12.546-42.9l.6.933A22.178,22.178,0,0,0,33.324,52.212Z" transform="translate(-4.565 -7.475)" fill="#73af00"></path><path id="Path_14774" data-name="Path 14774" d="M11.305,18.777a6.449,6.449,0,0,0,3.662-.708,6.445,6.445,0,0,0,2.9-2.348,6.447,6.447,0,0,0-3.661.708A6.449,6.449,0,0,0,11.305,18.777Z" transform="translate(4.127 28.522)" fill="#73af00"></path><path id="Path_14775" data-name="Path 14775" d="M14.858,21.395a6.444,6.444,0,0,0-.708-3.661,6.442,6.442,0,0,0-2.348-2.9A6.448,6.448,0,0,0,12.51,18.5,6.449,6.449,0,0,0,14.858,21.395Z" transform="translate(7.133 22.848)" fill="#73af00"></path><path id="Path_14776" data-name="Path 14776" d="M10.715,17.673a6.445,6.445,0,0,0,3.726-.163,6.445,6.445,0,0,0,3.211-1.9,6.445,6.445,0,0,0-3.726.163A6.447,6.447,0,0,0,10.715,17.673Z" transform="translate(0.078 26.778)" fill="#73af00"></path><path id="Path_14777" data-name="Path 14777" d="M13.574,21.489a6.444,6.444,0,0,0-.163-3.726,6.442,6.442,0,0,0-1.9-3.211,6.444,6.444,0,0,0,.163,3.726A6.45,6.45,0,0,0,13.574,21.489Z" transform="translate(4.156 20.902)" fill="#73af00"></path><path id="Path_14778" data-name="Path 14778" d="M10.17,16.377a6.445,6.445,0,0,0,3.695.509,6.445,6.445,0,0,0,3.5-1.289,6.448,6.448,0,0,0-3.695-.509A6.446,6.446,0,0,0,10.17,16.377Z" transform="translate(-3.667 24.192)" fill="#73af00"></path><path id="Path_14779" data-name="Path 14779" d="M12.259,21.382a6.448,6.448,0,0,0,.509-3.695,6.445,6.445,0,0,0-1.289-3.5,6.448,6.448,0,0,0-.509,3.695A6.445,6.445,0,0,0,12.259,21.382Z" transform="translate(1.438 18.406)" fill="#73af00"></path><path id="Path_14780" data-name="Path 14780" d="M9.719,15.108a6.446,6.446,0,0,0,3.546,1.155,6.451,6.451,0,0,0,3.673-.649,6.446,6.446,0,0,0-3.546-1.155A6.443,6.443,0,0,0,9.719,15.108Z" transform="translate(-6.763 20.099)" fill="#73af00"></path><path id="Path_14781" data-name="Path 14781" d="M11.224,20.886a6.446,6.446,0,0,0,1.155-3.546,6.451,6.451,0,0,0-.649-3.673,6.443,6.443,0,0,0-1.155,3.546A6.443,6.443,0,0,0,11.224,20.886Z" transform="translate(-1.05 14.827)" fill="#73af00"></path><path id="Path_14782" data-name="Path 14782" d="M9.455,13.957a6.445,6.445,0,0,0,3.224,1.875,6.448,6.448,0,0,0,3.727.138,6.445,6.445,0,0,0-3.224-1.875A6.444,6.444,0,0,0,9.455,13.957Z" transform="translate(-8.576 15.344)" fill="#73af00"></path><path id="Path_14783" data-name="Path 14783" d="M10.526,20.092A6.445,6.445,0,0,0,12.4,16.869a6.448,6.448,0,0,0,.138-3.727,6.446,6.446,0,0,0-1.875,3.224A6.441,6.441,0,0,0,10.526,20.092Z" transform="translate(-2.696 11.221)" fill="#73af00"></path><path id="Path_14784" data-name="Path 14784" d="M9.343,12.9a6.445,6.445,0,0,0,2.633,2.641,6.444,6.444,0,0,0,3.566,1.091,6.444,6.444,0,0,0-2.633-2.641A6.448,6.448,0,0,0,9.343,12.9Z" transform="translate(-9.343 9.501)" fill="#73af00"></path><path id="Path_14785" data-name="Path 14785" d="M10.142,18.778a6.444,6.444,0,0,0,2.641-2.633,6.447,6.447,0,0,0,1.091-3.566,6.444,6.444,0,0,0-2.641,2.633A6.445,6.445,0,0,0,10.142,18.778Z" transform="translate(-3.942 7.359)" fill="#73af00"></path><path id="Path_14786" data-name="Path 14786" d="M9.449,12.065A6.443,6.443,0,0,0,11.47,15.2a6.444,6.444,0,0,0,3.258,1.815,6.443,6.443,0,0,0-2.021-3.134A6.446,6.446,0,0,0,9.449,12.065Z" transform="translate(-8.616 3.829)" fill="#73af00"></path><path id="Path_14787" data-name="Path 14787" d="M10.12,17.3a6.443,6.443,0,0,0,3.134-2.021,6.443,6.443,0,0,0,1.815-3.258,6.443,6.443,0,0,0-3.134,2.021A6.446,6.446,0,0,0,10.12,17.3Z" transform="translate(-4.008 3.541)" fill="#73af00"></path><path id="Path_14788" data-name="Path 14788" d="M9.92,11.169a6.444,6.444,0,0,0,.685,3.666,6.442,6.442,0,0,0,2.33,2.912,6.444,6.444,0,0,0-.685-3.666A6.447,6.447,0,0,0,9.92,11.169Z" transform="translate(-5.816 -2.32)" fill="#73af00"></path><path id="Path_14789" data-name="Path 14789" d="M10.248,14.692a6.444,6.444,0,0,0,3.666-.685,6.442,6.442,0,0,0,2.912-2.33,6.444,6.444,0,0,0-3.666.685A6.448,6.448,0,0,0,10.248,14.692Z" transform="translate(-3.13 0.735)" fill="#73af00"></path><path id="Path_14790" data-name="Path 14790" d="M10.748,10.505a6.446,6.446,0,0,0-.326,3.715,6.443,6.443,0,0,0,1.461,3.431,6.446,6.446,0,0,0,.326-3.715A6.443,6.443,0,0,0,10.748,10.505Z" transform="translate(-2.733 -6.874)" fill="#73af00"></path><path id="Path_14791" data-name="Path 14791" d="M10.506,12.792a6.443,6.443,0,0,0,3.715.325,6.443,6.443,0,0,0,3.431-1.461,6.446,6.446,0,0,0-3.715-.326A6.447,6.447,0,0,0,10.506,12.792Z" transform="translate(-1.356 -2.013)" fill="#73af00"></path><path id="Path_14792" data-name="Path 14792" d="M11.609,10.044a6.444,6.444,0,0,0-.869,3.627,6.446,6.446,0,0,0,.94,3.609,6.444,6.444,0,0,0,.869-3.627A6.446,6.446,0,0,0,11.609,10.044Z" transform="translate(0.242 -10.044)" fill="#73af00"></path><path id="Path_14793" data-name="Path 14793" d="M10.859,11.784a6.444,6.444,0,0,0,3.627.869,6.446,6.446,0,0,0,3.609-.94,6.444,6.444,0,0,0-3.627-.869A6.448,6.448,0,0,0,10.859,11.784Z" transform="translate(1.062 -4.548)" fill="#73af00"></path><path id="Path_14794" data-name="Path 14794" d="M11.1,14.063a6.446,6.446,0,0,0,3.55-1.141,6.445,6.445,0,0,0,2.6-2.678,6.446,6.446,0,0,0-3.55,1.141A6.445,6.445,0,0,0,11.1,14.063Z" transform="translate(2.687 -8.729)" fill="#73af00"></path><path id="Path_14795" data-name="Path 14795" d="M13,53.321V52.212A22.178,22.178,0,0,0,24.948,11.351l.6-.933A23.286,23.286,0,0,1,13,53.321Z" transform="translate(15.759 -7.475)" fill="#73af00"></path><path id="Path_14796" data-name="Path 14796" d="M20.42,18.777a6.449,6.449,0,0,1-3.662-.708,6.442,6.442,0,0,1-2.9-2.348,6.447,6.447,0,0,1,3.661.708A6.449,6.449,0,0,1,20.42,18.777Z" transform="translate(21.665 28.522)" fill="#73af00"></path><path id="Path_14797" data-name="Path 14797" d="M13.912,21.395a6.444,6.444,0,0,1,.708-3.661,6.442,6.442,0,0,1,2.348-2.9A6.448,6.448,0,0,1,16.26,18.5,6.45,6.45,0,0,1,13.912,21.395Z" transform="translate(21.613 22.848)" fill="#73af00"></path><path id="Path_14798" data-name="Path 14798" d="M21.34,17.673a6.445,6.445,0,0,1-3.726-.163,6.445,6.445,0,0,1-3.211-1.9,6.445,6.445,0,0,1,3.726.163A6.447,6.447,0,0,1,21.34,17.673Z" transform="translate(25.384 26.778)" fill="#73af00"></path><path id="Path_14799" data-name="Path 14799" d="M14.581,21.489a6.445,6.445,0,0,1,.163-3.726,6.445,6.445,0,0,1,1.9-3.211,6.445,6.445,0,0,1-.163,3.726A6.447,6.447,0,0,1,14.581,21.489Z" transform="translate(25.206 20.902)" fill="#73af00"></path><path id="Path_14800" data-name="Path 14800" d="M22.109,16.377a6.445,6.445,0,0,1-3.695.509,6.445,6.445,0,0,1-3.5-1.289,6.448,6.448,0,0,1,3.695-.509A6.446,6.446,0,0,1,22.109,16.377Z" transform="translate(28.905 24.192)" fill="#73af00"></path><path id="Path_14801" data-name="Path 14801" d="M15.409,21.382a6.445,6.445,0,0,1-.509-3.695,6.445,6.445,0,0,1,1.289-3.5,6.448,6.448,0,0,1,.509,3.695A6.445,6.445,0,0,1,15.409,21.382Z" transform="translate(28.412 18.406)" fill="#73af00"></path><path id="Path_14802" data-name="Path 14802" d="M22.582,15.108a6.446,6.446,0,0,1-3.546,1.155,6.45,6.45,0,0,1-3.673-.649,6.446,6.446,0,0,1,3.546-1.155A6.443,6.443,0,0,1,22.582,15.108Z" transform="translate(31.98 20.099)" fill="#73af00"></path><path id="Path_14803" data-name="Path 14803" d="M16.392,20.886a6.446,6.446,0,0,1-1.155-3.546,6.448,6.448,0,0,1,.649-3.673,6.446,6.446,0,0,1,1.155,3.546A6.443,6.443,0,0,1,16.392,20.886Z" transform="translate(30.951 14.827)" fill="#73af00"></path><path id="Path_14804" data-name="Path 14804" d="M22.612,13.957a6.445,6.445,0,0,1-3.224,1.875,6.448,6.448,0,0,1-3.727.138,6.445,6.445,0,0,1,3.224-1.875A6.444,6.444,0,0,1,22.612,13.957Z" transform="translate(34.026 15.344)" fill="#73af00"></path><path id="Path_14805" data-name="Path 14805" d="M17.605,20.092a6.445,6.445,0,0,1-1.875-3.224,6.448,6.448,0,0,1-.138-3.727,6.446,6.446,0,0,1,1.875,3.224A6.441,6.441,0,0,1,17.605,20.092Z" transform="translate(32.082 11.221)" fill="#73af00"></path><path id="Path_14806" data-name="Path 14806" d="M22.068,12.9a6.444,6.444,0,0,1-2.633,2.641,6.444,6.444,0,0,1-3.566,1.091A6.444,6.444,0,0,1,18.5,13.995,6.447,6.447,0,0,1,22.068,12.9Z" transform="translate(35.449 9.501)" fill="#73af00"></path><path id="Path_14807" data-name="Path 14807" d="M19.137,18.778A6.444,6.444,0,0,1,16.5,16.145,6.447,6.447,0,0,1,15.4,12.579a6.444,6.444,0,0,1,2.641,2.633A6.445,6.445,0,0,1,19.137,18.778Z" transform="translate(32.181 7.359)" fill="#73af00"></path><path id="Path_14808" data-name="Path 14808" d="M21.159,12.065A6.443,6.443,0,0,1,19.138,15.2a6.444,6.444,0,0,1-3.258,1.815A6.443,6.443,0,0,1,17.9,13.879,6.446,6.446,0,0,1,21.159,12.065Z" transform="translate(35.525 3.829)" fill="#73af00"></path><path id="Path_14809" data-name="Path 14809" d="M20.2,17.3a6.443,6.443,0,0,1-3.134-2.021,6.443,6.443,0,0,1-1.815-3.258,6.443,6.443,0,0,1,3.134,2.021A6.447,6.447,0,0,1,20.2,17.3Z" transform="translate(31.206 3.541)" fill="#73af00"></path><path id="Path_14810" data-name="Path 14810" d="M18.822,11.169a6.444,6.444,0,0,1-.685,3.666,6.445,6.445,0,0,1-2.33,2.912,6.444,6.444,0,0,1,.685-3.666A6.447,6.447,0,0,1,18.822,11.169Z" transform="translate(34.592 -2.32)" fill="#73af00"></path><path id="Path_14811" data-name="Path 14811" d="M21.494,14.692a6.444,6.444,0,0,1-3.666-.685,6.446,6.446,0,0,1-2.913-2.33,6.444,6.444,0,0,1,3.666.685A6.447,6.447,0,0,1,21.494,14.692Z" transform="translate(28.905 0.735)" fill="#73af00"></path><path id="Path_14812" data-name="Path 14812" d="M17.015,10.505a6.447,6.447,0,0,1,.326,3.715,6.443,6.443,0,0,1-1.461,3.431,6.444,6.444,0,0,1-.325-3.715A6.439,6.439,0,0,1,17.015,10.505Z" transform="translate(32.487 -6.874)" fill="#73af00"></path><path id="Path_14813" data-name="Path 14813" d="M21.731,12.792a6.443,6.443,0,0,1-3.715.325,6.443,6.443,0,0,1-3.431-1.461A6.446,6.446,0,0,1,18.3,11.33,6.449,6.449,0,0,1,21.731,12.792Z" transform="translate(26.635 -2.013)" fill="#73af00"></path><path id="Path_14814" data-name="Path 14814" d="M15.971,10.044a6.444,6.444,0,0,1,.869,3.627,6.446,6.446,0,0,1-.94,3.609,6.444,6.444,0,0,1-.869-3.627A6.446,6.446,0,0,1,15.971,10.044Z" transform="translate(29.695 -10.044)" fill="#73af00"></path><path id="Path_14815" data-name="Path 14815" d="M21.457,11.784a6.443,6.443,0,0,1-3.627.869,6.446,6.446,0,0,1-3.609-.94,6.444,6.444,0,0,1,3.627-.869A6.446,6.446,0,0,1,21.457,11.784Z" transform="translate(24.139 -4.548)" fill="#73af00"></path><path id="Path_14816" data-name="Path 14816" d="M20.269,14.063a6.446,6.446,0,0,1-3.55-1.141,6.445,6.445,0,0,1-2.6-2.678,6.446,6.446,0,0,1,3.55,1.141A6.442,6.442,0,0,1,20.269,14.063Z" transform="translate(23.466 -8.729)" fill="#73af00"></path></g><path id="Path_14817" data-name="Path 14817" d="M16.643,20.381l-4.036,4.036-1.99-3.98,5.971-5.971,1.99,1.99L18,18.181A5.63,5.63,0,0,1,16.643,20.381Z" transform="translate(72.873 99.287)" fill="#966446"></path><path id="Path_14818" data-name="Path 14818" d="M33.629,11.429,11.736,33.321a1.408,1.408,0,0,0,0,1.99l1,1,3.98-3.98L32.634,14.414l1.99-1.99Z" transform="translate(77.724 78.441)" fill="#b9b9b9"></path><path id="Path_14819" data-name="Path 14819" d="M12.421,27.318a1.407,1.407,0,0,0-.412,1V29.72L27.931,11.808Z" transform="translate(82.427 81.047)" fill="#966446"></path><path id="Path_14820" data-name="Path 14820" d="M16.024,21.109l-1-1-1,1,1,1,1,1L26.97,10.163Z" transform="translate(96.324 69.756)" fill="#a0a0a0"></path><path id="Path_14821" data-name="Path 14821" d="M16.446,20.381l4.036,4.036,1.99-3.98L16.5,14.466l-1.99,1.99.575,1.725A5.625,5.625,0,0,0,16.446,20.381Z" transform="translate(99.601 99.287)" fill="#966446"></path><path id="Path_14822" data-name="Path 14822" d="M12.849,11.429,34.742,33.321a1.408,1.408,0,0,1,0,1.99l-1,1-3.98-3.98L13.844,14.414l-1.99-1.99Z" transform="translate(81.361 78.441)" fill="#b9b9b9"></path><path id="Path_14823" data-name="Path 14823" d="M27.617,27.318a1.407,1.407,0,0,1,.412,1V29.72L12.107,11.808Z" transform="translate(83.098 81.047)" fill="#966446"></path><path id="Path_14824" data-name="Path 14824" d="M21.408,21.109l1-1,1,1-1,1-1,1L10.462,10.163Z" transform="translate(71.807 69.756)" fill="#a0a0a0"></path><path id="Path_14825" data-name="Path 14825" d="M12.032,31.664l.989.9A263.714,263.714,0,0,1,32.951,12.7S24.66,17.82,12.032,31.664Z" transform="translate(82.581 87.176)" fill="#b9b9b9"></path><path id="Path_14826" data-name="Path 14826" d="M11.924,18.978h0a.87.87,0,0,1-.057-1.229l2.12-2.324a.87.87,0,0,1,1.229-.057h0a.87.87,0,0,1,.056,1.229l-2.12,2.324A.87.87,0,0,1,11.924,18.978Z" transform="translate(79.892 103.922)" fill="#ffe15a"></path><path id="Path_14827" data-name="Path 14827" d="M14.281,15.019l-.574.256c-.511.254-1.854,1.014-2.086,2.1a1.7,1.7,0,0,0,.444,1.486.863.863,0,0,1,.165-.274l.267-.292a1.006,1.006,0,0,1-.221-.777c.145-.678,1.049-1.282,1.616-1.581l2.539,2.316.631-.692Z" transform="translate(79.529 103.088)" fill="#ffc855"></path><path id="Path_14828" data-name="Path 14828" d="M32.367,31.8l-.989.9A263.717,263.717,0,0,0,11.448,12.84S19.739,17.959,32.367,31.8Z" transform="translate(78.573 88.132)" fill="#b9b9b9"></path><path id="Path_14829" data-name="Path 14829" d="M17.585,19.117h0a.87.87,0,0,0,.057-1.229l-2.12-2.324a.87.87,0,0,0-1.229-.057h0a.87.87,0,0,0-.057,1.229l2.12,2.324A.87.87,0,0,0,17.585,19.117Z" transform="translate(96.153 104.878)" fill="#ffe15a"></path><path id="Path_14830" data-name="Path 14830" d="M16.637,15.159l.574.256c.511.254,1.854,1.014,2.086,2.1A1.7,1.7,0,0,1,18.853,19a.863.863,0,0,0-.165-.274l-.267-.292a1.006,1.006,0,0,0,.221-.777c-.145-.678-1.049-1.282-1.616-1.582l-2.539,2.316-.631-.692Z" transform="translate(95.106 104.044)" fill="#ffc855"></path><path id="Path_14831" data-name="Path 14831" d="M15.922,12.589a1.663,1.663,0,1,0-2.528.711c-.6,4.831,4.161,5.2,5.976,5.875,2.754,1.025,6.208,3.1,5.991,8.891-.211,5.632-3.773,11.067-3.773,11.067l2.957-4.019c-1.081,4.573-3.606,10.4-9.61,17.325a63.413,63.413,0,0,0,7.53-9.194c-2.52,5.93-5.313,11.412-5.313,11.412a69.952,69.952,0,0,0,8.94-17.533C30.938,23.652,20.746,15.559,15.922,12.589Z" transform="translate(87.292 70.723)" fill="#69b469"></path><rect id="Rectangle_2621" data-name="Rectangle 2621" width="4.437" height="2.217" transform="translate(94.464 103.202)" fill="#f4e08f"></rect><g id="Group_883" data-name="Group 883" transform="translate(92.247 88.789)"><circle id="Ellipse_196" data-name="Ellipse 196" cx="2.217" cy="2.217" r="2.217" transform="translate(0 14.416)" fill="#ecd077"></circle><circle id="Ellipse_197" data-name="Ellipse 197" cx="2.217" cy="2.217" r="2.217" fill="#ecd077"></circle></g><path id="Path_14832" data-name="Path 14832" d="M27.254,15.726a2.217,2.217,0,1,0,0-4.435H13.948a2.217,2.217,0,1,1-2.217,2.217c0,3.722,3.115,8.223,4.119,12.2a8.141,8.141,0,0,1,.315,2.217,2.217,2.217,0,0,1-2.217,2.217H27.254a2.218,2.218,0,0,0,2.217-2.217c0-3.722-3.115-8.223-4.119-12.2Z" transform="translate(80.517 77.498)" fill="#fcf0a8"></path><g id="Group_884" data-name="Group 884" transform="translate(94.466 91.007)"><path id="Path_14833" data-name="Path 14833" d="M14.23,11.573a2.217,2.217,0,0,1-2.217,2.217H25.319a2.217,2.217,0,0,0,2.217-2.217Z" transform="translate(-12.013 -11.573)" fill="#f4e08f"></path><path id="Path_14834" data-name="Path 14834" d="M14.23,13.406a2.217,2.217,0,0,1-2.217,2.217H25.319a2.218,2.218,0,0,0,2.217-2.217Z" transform="translate(-12.013 1.008)" fill="#f4e08f"></path></g></g></g></svg>