<svg xmlns="http://www.w3.org/2000/svg" xmlns:xlink="http://www.w3.org/1999/xlink" width="208" height="206" viewBox="0 0 208 206"><defs><clipPath id="clip-path"><rect id="Rectangle_2649" data-name="Rectangle 2649" width="208" height="206" rx="5" transform="translate(-0.408 -0.05)" fill="#47b962"></rect></clipPath></defs><g id="Mask_Group_128" data-name="Mask Group 128" transform="translate(0.408 0.05)" clip-path="url(#clip-path)"><g id="canada" transform="translate(0.416 0.087)"><rect id="Rectangle_2648" data-name="Rectangle 2648" width="113.848" height="206.351" transform="translate(46.252)" fill="#f5f5f5"></rect><g id="Group_911" data-name="Group 911"><path id="Path_15075" data-name="Path 15075" d="M45.139,0A45.139,45.139,0,0,0,0,45.139V161.212a45.139,45.139,0,0,0,45.139,45.139h1.112V0Z" fill="#ff4b55"></path><path id="Path_15076" data-name="Path 15076" d="M21.284,0H20.172V206.351h1.112a45.139,45.139,0,0,0,45.139-45.139V45.139A45.139,45.139,0,0,0,21.284,0Z" transform="translate(139.928)" fill="#ff4b55"></path><path id="Path_15077" data-name="Path 15077" d="M71.9,65.167,93.016,53.1l-4.844-2.422a3.558,3.558,0,0,1-1.935-3.653L87.812,35.21l-8.938,2.6a3.558,3.558,0,0,1-4.468-2.648l-.856-3.869-8.392,9.822a1.762,1.762,0,0,1-3.076-1.443l3.584-20.84-5.487,1.5A3.558,3.558,0,0,1,56.1,18.577L50.323,7.747V7.731l0,.008,0-.008v.016l-5.778,10.83a3.558,3.558,0,0,1-4.077,1.757l-5.487-1.5,3.584,20.84a1.762,1.762,0,0,1-3.076,1.443l-8.392-9.822-.856,3.869a3.558,3.558,0,0,1-4.468,2.647l-8.938-2.6L14.4,47.029a3.559,3.559,0,0,1-1.935,3.653L7.621,53.1,28.733,65.167A5.137,5.137,0,0,1,31,71.426l-1.8,4.827,18.09-1.544A1.682,1.682,0,0,1,49.1,76.434L48.535,95.8h3.558l-.569-19.364a1.682,1.682,0,0,1,1.824-1.725l18.1,1.545-1.8-4.827A5.137,5.137,0,0,1,71.9,65.167Z" transform="translate(52.862 53.63)" fill="#ff4b55"></path></g></g></g></svg>