<svg xmlns="http://www.w3.org/2000/svg" xmlns:xlink="http://www.w3.org/1999/xlink" width="204" height="204" viewBox="0 0 204 204"><defs><clipPath id="clip-path"><rect id="Rectangle_2429" data-name="Rectangle 2429" width="204" height="204" rx="5" transform="translate(-0.148 0.047)" fill="#47b962"></rect></clipPath></defs><g id="Mask_Group_45" data-name="Mask Group 45" transform="translate(0.148 -0.047)" clip-path="url(#clip-path)"><g id="guatemala" transform="translate(0.822 -0.659)"><path id="Path_13827" data-name="Path 13827" d="M44.539,0A44.539,44.539,0,0,0,0,44.539V159.068a44.539,44.539,0,0,0,44.539,44.539h23.33V0Z" fill="#82afff"></path><rect id="Rectangle_2480" data-name="Rectangle 2480" width="67.87" height="203.606" transform="translate(67.87)" fill="#f5f5f5"></rect><path id="Path_13828" data-name="Path 13828" d="M40.663,0H17.333V203.606h23.33A44.539,44.539,0,0,0,85.2,159.068V44.539A44.539,44.539,0,0,0,40.663,0Z" transform="translate(118.404)" fill="#82afff"></path><path id="Path_13829" data-name="Path 13829" d="M14.878,10.445l-2.3,1.15,2.116.874Z" transform="translate(85.914 71.351)" fill="#ffc855"></path><g id="Group_762" data-name="Group 762" transform="translate(73.164 78.651)"><path id="Path_13830" data-name="Path 13830" d="M33.227,53.143A23.19,23.19,0,0,1,20.733,10.418l.6.929a22.086,22.086,0,0,0,11.9,40.691Z" transform="translate(-4.588 -7.487)" fill="#73af00"></path><path id="Path_13831" data-name="Path 13831" d="M11.305,18.764a6.422,6.422,0,0,0,3.647-.705,6.418,6.418,0,0,0,2.885-2.338,6.421,6.421,0,0,0-3.646.705A6.422,6.422,0,0,0,11.305,18.764Z" transform="translate(4.063 28.338)" fill="#73af00"></path><path id="Path_13832" data-name="Path 13832" d="M14.845,21.367a6.417,6.417,0,0,0-.705-3.646A6.416,6.416,0,0,0,11.8,14.836a6.421,6.421,0,0,0,.705,3.646A6.423,6.423,0,0,0,14.845,21.367Z" transform="translate(7.055 22.692)" fill="#73af00"></path><path id="Path_13833" data-name="Path 13833" d="M10.715,17.664a6.418,6.418,0,0,0,3.711-.162,6.419,6.419,0,0,0,3.2-1.889,6.418,6.418,0,0,0-3.711.162A6.42,6.42,0,0,0,10.715,17.664Z" transform="translate(0.033 26.603)" fill="#73af00"></path><path id="Path_13834" data-name="Path 13834" d="M13.565,21.461A6.418,6.418,0,0,0,13.4,17.75a6.416,6.416,0,0,0-1.889-3.2,6.418,6.418,0,0,0,.162,3.711A6.423,6.423,0,0,0,13.565,21.461Z" transform="translate(4.092 20.755)" fill="#73af00"></path><path id="Path_13835" data-name="Path 13835" d="M10.17,16.371a6.418,6.418,0,0,0,3.679.507,6.419,6.419,0,0,0,3.485-1.284,6.421,6.421,0,0,0-3.679-.507A6.419,6.419,0,0,0,10.17,16.371Z" transform="translate(-3.694 24.029)" fill="#73af00"></path><path id="Path_13836" data-name="Path 13836" d="M12.253,21.352a6.422,6.422,0,0,0,.507-3.679,6.419,6.419,0,0,0-1.284-3.485,6.422,6.422,0,0,0-.507,3.679A6.419,6.419,0,0,0,12.253,21.352Z" transform="translate(1.387 18.27)" fill="#73af00"></path><path id="Path_13837" data-name="Path 13837" d="M9.719,15.105a6.42,6.42,0,0,0,3.531,1.15,6.424,6.424,0,0,0,3.657-.647,6.42,6.42,0,0,0-3.531-1.15A6.416,6.416,0,0,0,9.719,15.105Z" transform="translate(-6.776 19.955)" fill="#73af00"></path><path id="Path_13838" data-name="Path 13838" d="M11.221,20.856a6.419,6.419,0,0,0,1.15-3.531,6.424,6.424,0,0,0-.647-3.657,6.416,6.416,0,0,0-1.15,3.531A6.416,6.416,0,0,0,11.221,20.856Z" transform="translate(-1.09 14.709)" fill="#73af00"></path><path id="Path_13839" data-name="Path 13839" d="M9.455,13.956a6.419,6.419,0,0,0,3.21,1.867,6.421,6.421,0,0,0,3.711.137,6.419,6.419,0,0,0-3.21-1.867A6.418,6.418,0,0,0,9.455,13.956Z" transform="translate(-8.58 15.223)" fill="#73af00"></path><path id="Path_13840" data-name="Path 13840" d="M10.525,20.064a6.419,6.419,0,0,0,1.867-3.21,6.421,6.421,0,0,0,.137-3.711,6.419,6.419,0,0,0-1.867,3.21A6.414,6.414,0,0,0,10.525,20.064Z" transform="translate(-2.728 11.12)" fill="#73af00"></path><path id="Path_13841" data-name="Path 13841" d="M9.343,12.9a6.418,6.418,0,0,0,2.622,2.63,6.417,6.417,0,0,0,3.552,1.087,6.418,6.418,0,0,0-2.622-2.63A6.421,6.421,0,0,0,9.343,12.9Z" transform="translate(-9.343 9.409)" fill="#73af00"></path><path id="Path_13842" data-name="Path 13842" d="M10.142,18.753a6.418,6.418,0,0,0,2.63-2.622,6.421,6.421,0,0,0,1.087-3.552,6.418,6.418,0,0,0-2.63,2.622A6.418,6.418,0,0,0,10.142,18.753Z" transform="translate(-3.968 7.276)" fill="#73af00"></path><path id="Path_13843" data-name="Path 13843" d="M9.449,12.065a6.416,6.416,0,0,0,2.013,3.121,6.418,6.418,0,0,0,3.245,1.807,6.416,6.416,0,0,0-2.013-3.121A6.419,6.419,0,0,0,9.449,12.065Z" transform="translate(-8.619 3.763)" fill="#73af00"></path><path id="Path_13844" data-name="Path 13844" d="M10.12,17.28a6.416,6.416,0,0,0,3.121-2.013,6.416,6.416,0,0,0,1.807-3.245,6.416,6.416,0,0,0-3.121,2.013A6.419,6.419,0,0,0,10.12,17.28Z" transform="translate(-4.033 3.477)" fill="#73af00"></path><path id="Path_13845" data-name="Path 13845" d="M9.92,11.169A6.418,6.418,0,0,0,10.6,14.82a6.416,6.416,0,0,0,2.32,2.9,6.418,6.418,0,0,0-.682-3.651A6.42,6.42,0,0,0,9.92,11.169Z" transform="translate(-5.833 -2.357)" fill="#73af00"></path><path id="Path_13846" data-name="Path 13846" d="M10.248,14.679A6.418,6.418,0,0,0,13.9,14a6.416,6.416,0,0,0,2.9-2.32,6.418,6.418,0,0,0-3.651.682A6.421,6.421,0,0,0,10.248,14.679Z" transform="translate(-3.159 0.684)" fill="#73af00"></path><path id="Path_13847" data-name="Path 13847" d="M10.746,10.505a6.42,6.42,0,0,0-.324,3.7,6.416,6.416,0,0,0,1.455,3.417,6.42,6.42,0,0,0,.324-3.7A6.416,6.416,0,0,0,10.746,10.505Z" transform="translate(-2.764 -6.889)" fill="#73af00"></path><path id="Path_13848" data-name="Path 13848" d="M10.506,12.785a6.417,6.417,0,0,0,3.7.324,6.416,6.416,0,0,0,3.417-1.455,6.42,6.42,0,0,0-3.7-.324A6.42,6.42,0,0,0,10.506,12.785Z" transform="translate(-1.394 -2.052)" fill="#73af00"></path><path id="Path_13849" data-name="Path 13849" d="M11.606,10.044a6.417,6.417,0,0,0-.866,3.612,6.419,6.419,0,0,0,.936,3.594,6.417,6.417,0,0,0,.866-3.612A6.419,6.419,0,0,0,11.606,10.044Z" transform="translate(0.197 -10.044)" fill="#73af00"></path><path id="Path_13850" data-name="Path 13850" d="M10.859,11.78a6.417,6.417,0,0,0,3.612.866,6.419,6.419,0,0,0,3.594-.936,6.417,6.417,0,0,0-3.612-.866A6.421,6.421,0,0,0,10.859,11.78Z" transform="translate(1.013 -4.575)" fill="#73af00"></path><path id="Path_13851" data-name="Path 13851" d="M11.1,14.047a6.419,6.419,0,0,0,3.536-1.137,6.418,6.418,0,0,0,2.585-2.667A6.419,6.419,0,0,0,13.68,11.38,6.418,6.418,0,0,0,11.1,14.047Z" transform="translate(2.63 -8.735)" fill="#73af00"></path><path id="Path_13852" data-name="Path 13852" d="M13,53.143v-1.1A22.086,22.086,0,0,0,24.9,11.347l.6-.929A23.19,23.19,0,0,1,13,53.143Z" transform="translate(15.639 -7.487)" fill="#73af00"></path><path id="Path_13853" data-name="Path 13853" d="M20.393,18.764a6.422,6.422,0,0,1-3.647-.705,6.416,6.416,0,0,1-2.885-2.338,6.421,6.421,0,0,1,3.646.705A6.422,6.422,0,0,1,20.393,18.764Z" transform="translate(21.518 28.338)" fill="#73af00"></path><path id="Path_13854" data-name="Path 13854" d="M13.912,21.367a6.417,6.417,0,0,1,.705-3.646,6.416,6.416,0,0,1,2.338-2.885,6.421,6.421,0,0,1-.705,3.646A6.423,6.423,0,0,1,13.912,21.367Z" transform="translate(21.466 22.692)" fill="#73af00"></path><path id="Path_13855" data-name="Path 13855" d="M21.311,17.664A6.418,6.418,0,0,1,17.6,17.5a6.419,6.419,0,0,1-3.2-1.889,6.418,6.418,0,0,1,3.711.162A6.42,6.42,0,0,1,21.311,17.664Z" transform="translate(25.219 26.603)" fill="#73af00"></path><path id="Path_13856" data-name="Path 13856" d="M14.58,21.461a6.418,6.418,0,0,1,.162-3.711,6.418,6.418,0,0,1,1.889-3.2,6.418,6.418,0,0,1-.162,3.711A6.42,6.42,0,0,1,14.58,21.461Z" transform="translate(25.041 20.755)" fill="#73af00"></path><path id="Path_13857" data-name="Path 13857" d="M22.079,16.371a6.418,6.418,0,0,1-3.679.507,6.419,6.419,0,0,1-3.485-1.284,6.421,6.421,0,0,1,3.679-.507A6.419,6.419,0,0,1,22.079,16.371Z" transform="translate(28.724 24.029)" fill="#73af00"></path><path id="Path_13858" data-name="Path 13858" d="M15.406,21.352a6.418,6.418,0,0,1-.507-3.679,6.419,6.419,0,0,1,1.284-3.485,6.421,6.421,0,0,1,.507,3.679A6.419,6.419,0,0,1,15.406,21.352Z" transform="translate(28.233 18.27)" fill="#73af00"></path><path id="Path_13859" data-name="Path 13859" d="M22.552,15.105a6.42,6.42,0,0,1-3.531,1.15,6.423,6.423,0,0,1-3.657-.647,6.42,6.42,0,0,1,3.531-1.15A6.416,6.416,0,0,1,22.552,15.105Z" transform="translate(31.784 19.955)" fill="#73af00"></path><path id="Path_13860" data-name="Path 13860" d="M16.388,20.856a6.42,6.42,0,0,1-1.15-3.531,6.421,6.421,0,0,1,.647-3.657,6.42,6.42,0,0,1,1.15,3.531A6.416,6.416,0,0,1,16.388,20.856Z" transform="translate(30.759 14.709)" fill="#73af00"></path><path id="Path_13861" data-name="Path 13861" d="M22.583,13.956a6.419,6.419,0,0,1-3.21,1.867,6.421,6.421,0,0,1-3.711.137,6.419,6.419,0,0,1,3.21-1.867A6.418,6.418,0,0,1,22.583,13.956Z" transform="translate(33.82 15.223)" fill="#73af00"></path><path id="Path_13862" data-name="Path 13862" d="M17.6,20.064a6.419,6.419,0,0,1-1.867-3.21,6.421,6.421,0,0,1-.137-3.711,6.419,6.419,0,0,1,1.867,3.21A6.414,6.414,0,0,1,17.6,20.064Z" transform="translate(31.885 11.12)" fill="#73af00"></path><path id="Path_13863" data-name="Path 13863" d="M22.043,12.9a6.418,6.418,0,0,1-2.622,2.63,6.417,6.417,0,0,1-3.552,1.087,6.418,6.418,0,0,1,2.622-2.63A6.42,6.42,0,0,1,22.043,12.9Z" transform="translate(35.236 9.409)" fill="#73af00"></path><path id="Path_13864" data-name="Path 13864" d="M19.122,18.753a6.418,6.418,0,0,1-2.63-2.622A6.421,6.421,0,0,1,15.4,12.579a6.418,6.418,0,0,1,2.63,2.622A6.418,6.418,0,0,1,19.122,18.753Z" transform="translate(31.983 7.276)" fill="#73af00"></path><path id="Path_13865" data-name="Path 13865" d="M21.137,12.065a6.416,6.416,0,0,1-2.013,3.121,6.418,6.418,0,0,1-3.245,1.807,6.416,6.416,0,0,1,2.013-3.121A6.419,6.419,0,0,1,21.137,12.065Z" transform="translate(35.312 3.763)" fill="#73af00"></path><path id="Path_13866" data-name="Path 13866" d="M20.179,17.28a6.416,6.416,0,0,1-3.121-2.013,6.416,6.416,0,0,1-1.807-3.245,6.416,6.416,0,0,1,3.121,2.013A6.421,6.421,0,0,1,20.179,17.28Z" transform="translate(31.013 3.477)" fill="#73af00"></path><path id="Path_13867" data-name="Path 13867" d="M18.809,11.169a6.418,6.418,0,0,1-.682,3.651,6.418,6.418,0,0,1-2.32,2.9,6.418,6.418,0,0,1,.682-3.651A6.421,6.421,0,0,1,18.809,11.169Z" transform="translate(34.383 -2.357)" fill="#73af00"></path><path id="Path_13868" data-name="Path 13868" d="M21.467,14.679A6.418,6.418,0,0,1,17.816,14a6.419,6.419,0,0,1-2.9-2.32,6.418,6.418,0,0,1,3.651.682A6.42,6.42,0,0,1,21.467,14.679Z" transform="translate(28.723 0.684)" fill="#73af00"></path><path id="Path_13869" data-name="Path 13869" d="M17.008,10.505a6.42,6.42,0,0,1,.325,3.7,6.416,6.416,0,0,1-1.455,3.417,6.417,6.417,0,0,1-.324-3.7A6.413,6.413,0,0,1,17.008,10.505Z" transform="translate(32.288 -6.889)" fill="#73af00"></path><path id="Path_13870" data-name="Path 13870" d="M21.7,12.785a6.417,6.417,0,0,1-3.7.324,6.416,6.416,0,0,1-3.417-1.455,6.419,6.419,0,0,1,3.7-.324A6.422,6.422,0,0,1,21.7,12.785Z" transform="translate(26.464 -2.052)" fill="#73af00"></path><path id="Path_13871" data-name="Path 13871" d="M15.967,10.044a6.417,6.417,0,0,1,.866,3.612,6.419,6.419,0,0,1-.936,3.594,6.417,6.417,0,0,1-.866-3.612A6.419,6.419,0,0,1,15.967,10.044Z" transform="translate(29.51 -10.044)" fill="#73af00"></path><path id="Path_13872" data-name="Path 13872" d="M21.427,11.78a6.416,6.416,0,0,1-3.612.866,6.419,6.419,0,0,1-3.594-.936,6.417,6.417,0,0,1,3.612-.866A6.419,6.419,0,0,1,21.427,11.78Z" transform="translate(23.98 -4.575)" fill="#73af00"></path><path id="Path_13873" data-name="Path 13873" d="M20.243,14.047a6.419,6.419,0,0,1-3.536-1.137,6.418,6.418,0,0,1-2.585-2.667,6.419,6.419,0,0,1,3.536,1.137A6.416,6.416,0,0,1,20.243,14.047Z" transform="translate(23.31 -8.735)" fill="#73af00"></path></g><path id="Path_13874" data-name="Path 13874" d="M16.618,20.356,12.6,24.376l-1.982-3.964,5.946-5.946,1.982,1.982-.573,1.718A5.606,5.606,0,0,1,16.618,20.356Z" transform="translate(72.526 98.815)" fill="#966446"></path><path id="Path_13875" data-name="Path 13875" d="M33.536,11.429l-21.8,21.8a1.4,1.4,0,0,0,0,1.982l.991.991,3.964-3.964L32.545,14.4l1.982-1.982Z" transform="translate(77.355 78.068)" fill="#b9b9b9"></path><path id="Path_13876" data-name="Path 13876" d="M12.42,27.254a1.4,1.4,0,0,0-.41.991v1.4L27.865,11.808Z" transform="translate(82.035 80.662)" fill="#966446"></path><path id="Path_13877" data-name="Path 13877" d="M16.016,21.064l-.991-.991-.991.991.991.991.991.991,10.9-12.883Z" transform="translate(95.866 69.424)" fill="#a0a0a0"></path><path id="Path_13878" data-name="Path 13878" d="M16.438,20.356l4.019,4.019,1.982-3.964-5.946-5.946-1.982,1.982.573,1.718A5.6,5.6,0,0,0,16.438,20.356Z" transform="translate(99.128 98.815)" fill="#966446"></path><path id="Path_13879" data-name="Path 13879" d="M12.845,11.429l21.8,21.8a1.4,1.4,0,0,1,0,1.982l-.991.991-3.964-3.964L13.836,14.4,11.854,12.42Z" transform="translate(80.975 78.068)" fill="#b9b9b9"></path><path id="Path_13880" data-name="Path 13880" d="M27.553,27.254a1.4,1.4,0,0,1,.41.991v1.4L12.107,11.808Z" transform="translate(82.704 80.662)" fill="#966446"></path><path id="Path_13881" data-name="Path 13881" d="M21.363,21.064l.991-.991.991.991-.991.991-.991.991-10.9-12.883Z" transform="translate(71.466 69.424)" fill="#a0a0a0"></path><path id="Path_13882" data-name="Path 13882" d="M12.032,31.585l.985.9A262.621,262.621,0,0,1,32.864,12.7S24.608,17.8,12.032,31.585Z" transform="translate(82.189 86.761)" fill="#b9b9b9"></path><path id="Path_13883" data-name="Path 13883" d="M11.922,18.962h0a.867.867,0,0,1-.056-1.224l2.111-2.314a.867.867,0,0,1,1.224-.056h0a.866.866,0,0,1,.056,1.224l-2.111,2.314A.866.866,0,0,1,11.922,18.962Z" transform="translate(79.512 103.429)" fill="#ffe15a"></path><path id="Path_13884" data-name="Path 13884" d="M14.27,15.019l-.572.255c-.509.253-1.846,1.01-2.077,2.088a1.689,1.689,0,0,0,.442,1.48.86.86,0,0,1,.164-.273l.266-.291a1,1,0,0,1-.22-.774c.144-.675,1.045-1.277,1.61-1.575l2.528,2.306.629-.689Z" transform="translate(79.151 102.598)" fill="#ffc855"></path><path id="Path_13885" data-name="Path 13885" d="M32.28,31.724l-.985.9A262.62,262.62,0,0,0,11.448,12.84S19.7,17.937,32.28,31.724Z" transform="translate(78.2 87.713)" fill="#b9b9b9"></path><path id="Path_13886" data-name="Path 13886" d="M17.57,19.1h0a.867.867,0,0,0,.056-1.224l-2.111-2.314a.867.867,0,0,0-1.224-.056h0a.867.867,0,0,0-.056,1.224l2.111,2.314A.866.866,0,0,0,17.57,19.1Z" transform="translate(95.696 104.38)" fill="#ffe15a"></path><path id="Path_13887" data-name="Path 13887" d="M16.625,15.159l.572.255c.509.253,1.846,1.01,2.077,2.088a1.689,1.689,0,0,1-.442,1.48.86.86,0,0,0-.164-.273l-.266-.291a1,1,0,0,0,.22-.774c-.144-.675-1.045-1.277-1.61-1.575l-2.528,2.306-.629-.689Z" transform="translate(94.654 103.549)" fill="#ffc855"></path><path id="Path_13888" data-name="Path 13888" d="M15.909,12.579a1.657,1.657,0,1,0-2.517.708c-.6,4.811,4.144,5.178,5.952,5.851,2.742,1.02,6.182,3.085,5.966,8.855-.21,5.609-3.757,11.021-3.757,11.021l2.945-4c-1.077,4.554-3.591,10.354-9.57,17.253a63.151,63.151,0,0,0,7.5-9.156c-2.51,5.9-5.291,11.364-5.291,11.364a69.662,69.662,0,0,0,8.9-17.46C30.862,23.6,20.713,15.537,15.909,12.579Z" transform="translate(86.877 70.387)" fill="#69b469"></path><rect id="Rectangle_2481" data-name="Rectangle 2481" width="4.418" height="2.208" transform="translate(94.073 102.774)" fill="#f4e08f"></rect><g id="Group_763" data-name="Group 763" transform="translate(91.864 88.42)"><ellipse id="Ellipse_139" data-name="Ellipse 139" cx="2.208" cy="2.208" rx="2.208" ry="2.208" transform="translate(0 14.356)" fill="#ecd077"></ellipse><ellipse id="Ellipse_140" data-name="Ellipse 140" cx="2.208" cy="2.208" rx="2.208" ry="2.208" fill="#ecd077"></ellipse></g><path id="Path_13889" data-name="Path 13889" d="M27.19,15.708a2.208,2.208,0,1,0,0-4.417H13.939A2.208,2.208,0,1,1,11.731,13.5c0,3.707,3.1,8.189,4.1,12.146a8.107,8.107,0,0,1,.314,2.208,2.208,2.208,0,0,1-2.208,2.208H27.19A2.208,2.208,0,0,0,29.4,27.854c0-3.707-3.1-8.189-4.1-12.146Z" transform="translate(80.135 77.13)" fill="#fcf0a8"></path><g id="Group_764" data-name="Group 764" transform="translate(94.074 90.629)"><path id="Path_13890" data-name="Path 13890" d="M14.221,11.573a2.208,2.208,0,0,1-2.208,2.208h13.25a2.208,2.208,0,0,0,2.208-2.208Z" transform="translate(-12.013 -11.573)" fill="#f4e08f"></path><path id="Path_13891" data-name="Path 13891" d="M14.221,13.406a2.208,2.208,0,0,1-2.208,2.208h13.25a2.208,2.208,0,0,0,2.208-2.208Z" transform="translate(-12.013 0.949)" fill="#f4e08f"></path></g></g></g></svg>