<svg xmlns="http://www.w3.org/2000/svg" xmlns:xlink="http://www.w3.org/1999/xlink" width="176" height="176" viewBox="0 0 176 176"><defs><clipPath id="clip-path"><rect id="Rectangle_2619" data-name="Rectangle 2619" width="176" height="176" rx="5" transform="translate(1100.928 5557.929)" fill="#47b962"></rect></clipPath></defs><g id="Mask_Group_113" data-name="Mask Group 113" transform="translate(-1100.928 -5557.928)" clip-path="url(#clip-path)"><g id="estados-unidos" transform="translate(1099.947 5556.947)"><g id="Group_881" data-name="Group 881" transform="translate(0.981 13.69)"><rect id="Rectangle_2612" data-name="Rectangle 2612" width="176" height="15" transform="translate(0 26.292)" fill="#f5f5f5"></rect><path id="Path_14740" data-name="Path 14740" d="M167.181,2H7.805A38.857,38.857,0,0,0,.255,15.69H174.732A38.857,38.857,0,0,0,167.181,2Z" transform="translate(0.507 -2)" fill="#f5f5f5"></path><rect id="Rectangle_2613" data-name="Rectangle 2613" width="176" height="13" transform="translate(0 55.292)" fill="#f5f5f5"></rect><rect id="Rectangle_2614" data-name="Rectangle 2614" width="176" height="13" transform="translate(0 82.291)" fill="#f5f5f5"></rect><rect id="Rectangle_2615" data-name="Rectangle 2615" width="176" height="15" transform="translate(0 109.292)" fill="#f5f5f5"></rect><path id="Path_14741" data-name="Path 14741" d="M174.732,22H.255A38.85,38.85,0,0,0,7.805,35.689H167.181A38.851,38.851,0,0,0,174.732,22Z" transform="translate(0.507 114.894)" fill="#f5f5f5"></path></g><g id="Group_882" data-name="Group 882"><path id="Path_14742" data-name="Path 14742" d="M131.1,0H30.994A38.841,38.841,0,0,0,1.358,13.69H160.733A38.839,38.839,0,0,0,131.1,0Z" transform="translate(7.935)" fill="#ff4b55"></path><rect id="Rectangle_2616" data-name="Rectangle 2616" width="176" height="14" transform="translate(0.981 54.982)" fill="#ff4b55"></rect><path id="Path_14743" data-name="Path 14743" d="M177.962,15.55A38.91,38.91,0,0,0,176.22,4H1.742A38.91,38.91,0,0,0,0,15.55v2.139H177.962Z" transform="translate(0 23.379)" fill="#ff4b55"></path><rect id="Rectangle_2617" data-name="Rectangle 2617" width="176" height="14" transform="translate(0.981 81.982)" fill="#ff4b55"></rect><path id="Path_14744" data-name="Path 14744" d="M177.962,22.139V20H0v2.139A38.914,38.914,0,0,0,1.742,33.69H176.22A38.914,38.914,0,0,0,177.962,22.139Z" transform="translate(0 116.894)" fill="#ff4b55"></path><path id="Path_14745" data-name="Path 14745" d="M160.734,24H1.358a38.841,38.841,0,0,0,29.636,13.69H131.1A38.841,38.841,0,0,0,160.734,24Z" transform="translate(7.935 140.273)" fill="#ff4b55"></path><rect id="Rectangle_2618" data-name="Rectangle 2618" width="176" height="14" transform="translate(0.981 108.982)" fill="#ff4b55"></rect></g><path id="Path_14746" data-name="Path 14746" d="M95.826,0h-56.9A38.929,38.929,0,0,0,0,38.929v56.9H95.826Z" fill="#41479b"></path><g id="Group_883" data-name="Group 883" transform="translate(9.036 8.342)"><path id="Path_14747" data-name="Path 14747" d="M1.524,6.791a.314.314,0,0,0,.483.351l1.9-1.357L5.8,7.141a.315.315,0,0,0,.483-.351l-.7-2.225L7.461,3.179a.315.315,0,0,0-.185-.568L4.943,2.593,4.544,1.4A39.11,39.11,0,0,0,1.684,4.163l.545.4Z" transform="translate(-0.221 -0.165)" fill="#f5f5f5"></path><path id="Path_14748" data-name="Path 14748" d="M5.3,4.132l.738,2.214,2.334.018a.315.315,0,0,1,.185.568L6.682,8.318l.7,2.225a.315.315,0,0,1-.483.351L5,9.537,3.1,10.894a.315.315,0,0,1-.483-.351l.7-2.225L1.448,6.932a.315.315,0,0,1,.184-.568l2.334-.018L4.7,4.132A.316.316,0,0,1,5.3,4.132Z" transform="translate(-1.32 14.552)" fill="#f5f5f5"></path><path id="Path_14749" data-name="Path 14749" d="M5.3,7.125l.738,2.214,2.334.018a.315.315,0,0,1,.185.568L6.682,11.311l.7,2.225a.315.315,0,0,1-.483.351L5,12.53,3.1,13.887a.315.315,0,0,1-.483-.351l.7-2.225L1.448,9.925a.315.315,0,0,1,.184-.568l2.334-.018L4.7,7.125A.316.316,0,0,1,5.3,7.125Z" transform="translate(-1.32 32.044)" fill="#f5f5f5"></path><path id="Path_14750" data-name="Path 14750" d="M5.3,9.874l.738,2.214,2.334.018a.315.315,0,0,1,.185.568L6.682,14.061l.7,2.225a.315.315,0,0,1-.483.351L5,15.279,3.1,16.637a.315.315,0,0,1-.483-.351l.7-2.225L1.448,12.674a.315.315,0,0,1,.184-.568l2.334-.018L4.7,9.874A.316.316,0,0,1,5.3,9.874Z" transform="translate(-1.32 48.114)" fill="#f5f5f5"></path><path id="Path_14751" data-name="Path 14751" d="M5.3,12.377l.738,2.214,2.334.018a.315.315,0,0,1,.185.568L6.682,16.563l.7,2.225a.315.315,0,0,1-.483.351L5,17.782,3.1,19.139a.315.315,0,0,1-.483-.351l.7-2.225L1.448,15.176a.315.315,0,0,1,.184-.568l2.334-.018L4.7,12.377A.316.316,0,0,1,5.3,12.377Z" transform="translate(-1.32 62.738)" fill="#f5f5f5"></path><path id="Path_14752" data-name="Path 14752" d="M6.615,2.712l.738,2.214,2.334.018a.314.314,0,0,1,.185.567L7.994,6.9l.7,2.225a.314.314,0,0,1-.483.351l-1.9-1.357-1.9,1.357a.315.315,0,0,1-.483-.351l.7-2.225L2.762,5.511a.314.314,0,0,1,.184-.567L5.28,4.926l.738-2.214A.315.315,0,0,1,6.615,2.712Z" transform="translate(6.357 6.249)" fill="#f5f5f5"></path><path id="Path_14753" data-name="Path 14753" d="M6.616,5.7l.738,2.214,2.334.018a.315.315,0,0,1,.185.568L7.995,9.891l.7,2.225a.314.314,0,0,1-.483.351l-1.9-1.357-1.9,1.357a.315.315,0,0,1-.483-.351l.7-2.225L2.762,8.5a.315.315,0,0,1,.184-.568L5.28,7.918,6.018,5.7A.315.315,0,0,1,6.616,5.7Z" transform="translate(6.356 23.741)" fill="#f5f5f5"></path><path id="Path_14754" data-name="Path 14754" d="M6.616,8.547l.738,2.214,2.334.018a.315.315,0,0,1,.185.568L7.995,12.734l.7,2.225a.315.315,0,0,1-.483.351l-1.9-1.357-1.9,1.357a.315.315,0,0,1-.483-.351l.7-2.225L2.762,11.347a.315.315,0,0,1,.184-.568l2.334-.018.738-2.214A.315.315,0,0,1,6.616,8.547Z" transform="translate(6.356 40.359)" fill="#f5f5f5"></path><path id="Path_14755" data-name="Path 14755" d="M6.616,11.1l.738,2.214,2.334.018a.315.315,0,0,1,.185.568L7.995,15.287l.7,2.225a.314.314,0,0,1-.483.351l-1.9-1.357-1.9,1.357a.315.315,0,0,1-.483-.351l.7-2.225L2.762,13.9a.315.315,0,0,1,.184-.568l2.334-.018L6.018,11.1A.315.315,0,0,1,6.616,11.1Z" transform="translate(6.356 55.283)" fill="#f5f5f5"></path><path id="Path_14756" data-name="Path 14756" d="M7.929,1.434l.738,2.214L11,3.666a.314.314,0,0,1,.185.567L9.308,5.619l.7,2.225a.315.315,0,0,1-.483.351L7.63,6.838,5.731,8.2a.315.315,0,0,1-.483-.351l.7-2.225L4.075,4.233a.314.314,0,0,1,.184-.567l2.334-.018.738-2.214A.315.315,0,0,1,7.929,1.434Z" transform="translate(14.032 -1.219)" fill="#f5f5f5"></path><path id="Path_14757" data-name="Path 14757" d="M7.929,4.132l.738,2.214L11,6.364a.315.315,0,0,1,.185.568L9.308,8.318l.7,2.225a.315.315,0,0,1-.483.351L7.63,9.537l-1.9,1.357a.315.315,0,0,1-.483-.351l.7-2.225L4.075,6.932a.315.315,0,0,1,.184-.568l2.334-.018.738-2.214A.315.315,0,0,1,7.929,4.132Z" transform="translate(14.032 14.552)" fill="#f5f5f5"></path><path id="Path_14758" data-name="Path 14758" d="M7.929,7.125l.738,2.214L11,9.357a.315.315,0,0,1,.185.568L9.308,11.311l.7,2.225a.315.315,0,0,1-.483.351L7.63,12.53l-1.9,1.357a.315.315,0,0,1-.483-.351l.7-2.225L4.075,9.925a.315.315,0,0,1,.184-.568l2.334-.018.738-2.214A.315.315,0,0,1,7.929,7.125Z" transform="translate(14.032 32.044)" fill="#f5f5f5"></path><path id="Path_14759" data-name="Path 14759" d="M7.929,9.874l.738,2.214L11,12.107a.315.315,0,0,1,.185.568L9.308,14.061l.7,2.225a.315.315,0,0,1-.483.351l-1.9-1.357-1.9,1.357a.315.315,0,0,1-.483-.351l.7-2.225L4.075,12.674a.315.315,0,0,1,.184-.568l2.334-.018.738-2.214A.315.315,0,0,1,7.929,9.874Z" transform="translate(14.032 48.114)" fill="#f5f5f5"></path><path id="Path_14760" data-name="Path 14760" d="M7.929,12.377l.738,2.214L11,14.609a.315.315,0,0,1,.185.568L9.308,16.563l.7,2.225a.315.315,0,0,1-.483.351l-1.9-1.357-1.9,1.357a.315.315,0,0,1-.483-.351l.7-2.225L4.075,15.176a.315.315,0,0,1,.184-.568l2.334-.018.738-2.214A.315.315,0,0,1,7.929,12.377Z" transform="translate(14.032 62.738)" fill="#f5f5f5"></path><path id="Path_14761" data-name="Path 14761" d="M9.243,2.712l.738,2.214,2.334.018a.314.314,0,0,1,.184.567L10.622,6.9l.7,2.225a.314.314,0,0,1-.483.351l-1.9-1.357-1.9,1.357a.315.315,0,0,1-.483-.351l.7-2.225L5.388,5.511a.314.314,0,0,1,.185-.567l2.334-.018.738-2.214A.315.315,0,0,1,9.243,2.712Z" transform="translate(21.708 6.249)" fill="#f5f5f5"></path><path id="Path_14762" data-name="Path 14762" d="M9.243,5.7l.738,2.214,2.334.018A.315.315,0,0,1,12.5,8.5L10.622,9.891l.7,2.225a.314.314,0,0,1-.483.351l-1.9-1.357-1.9,1.357a.315.315,0,0,1-.483-.351l.7-2.225L5.388,8.5a.315.315,0,0,1,.185-.568l2.334-.018L8.645,5.7A.315.315,0,0,1,9.243,5.7Z" transform="translate(21.708 23.741)" fill="#f5f5f5"></path><path id="Path_14763" data-name="Path 14763" d="M9.243,8.547l.738,2.214,2.334.018a.315.315,0,0,1,.184.568l-1.877,1.386.7,2.225a.315.315,0,0,1-.483.351l-1.9-1.357-1.9,1.357a.315.315,0,0,1-.483-.351l.7-2.225L5.388,11.347a.315.315,0,0,1,.185-.568l2.334-.018.738-2.214A.315.315,0,0,1,9.243,8.547Z" transform="translate(21.708 40.359)" fill="#f5f5f5"></path><path id="Path_14764" data-name="Path 14764" d="M9.243,11.1l.738,2.214,2.334.018a.315.315,0,0,1,.184.568l-1.877,1.387.7,2.225a.314.314,0,0,1-.483.351l-1.9-1.357-1.9,1.357a.315.315,0,0,1-.483-.351l.7-2.225L5.388,13.9a.315.315,0,0,1,.185-.568l2.334-.018L8.645,11.1A.315.315,0,0,1,9.243,11.1Z" transform="translate(21.708 55.283)" fill="#f5f5f5"></path><path id="Path_14765" data-name="Path 14765" d="M10.556,1.434l.738,2.214,2.334.018a.314.314,0,0,1,.184.567L11.935,5.619l.7,2.225a.315.315,0,0,1-.483.351l-1.9-1.357L8.358,8.2a.315.315,0,0,1-.483-.351l.7-2.225L6.7,4.233a.314.314,0,0,1,.185-.567L9.22,3.648l.738-2.214A.315.315,0,0,1,10.556,1.434Z" transform="translate(29.385 -1.219)" fill="#f5f5f5"></path><path id="Path_14766" data-name="Path 14766" d="M10.556,4.132l.738,2.214,2.334.018a.315.315,0,0,1,.184.568L11.934,8.318l.7,2.225a.315.315,0,0,1-.483.351l-1.9-1.357-1.9,1.357a.315.315,0,0,1-.483-.351l.7-2.225L6.7,6.932a.315.315,0,0,1,.185-.568L9.22,6.346l.738-2.214A.315.315,0,0,1,10.556,4.132Z" transform="translate(29.385 14.552)" fill="#f5f5f5"></path><path id="Path_14767" data-name="Path 14767" d="M10.556,7.125l.738,2.214,2.334.018a.315.315,0,0,1,.184.568l-1.877,1.387.7,2.225a.315.315,0,0,1-.483.351l-1.9-1.357-1.9,1.357a.315.315,0,0,1-.483-.351l.7-2.225L6.7,9.925a.315.315,0,0,1,.185-.568L9.22,9.339l.738-2.214A.315.315,0,0,1,10.556,7.125Z" transform="translate(29.385 32.044)" fill="#f5f5f5"></path><path id="Path_14768" data-name="Path 14768" d="M10.556,9.874l.738,2.214,2.334.018a.315.315,0,0,1,.184.568l-1.877,1.386.7,2.225a.315.315,0,0,1-.483.351l-1.9-1.357-1.9,1.357a.315.315,0,0,1-.483-.351l.7-2.225L6.7,12.674a.315.315,0,0,1,.185-.568l2.334-.018.738-2.214A.315.315,0,0,1,10.556,9.874Z" transform="translate(29.385 48.114)" fill="#f5f5f5"></path><path id="Path_14769" data-name="Path 14769" d="M10.556,12.377l.738,2.214,2.334.018a.315.315,0,0,1,.184.568l-1.877,1.387.7,2.225a.315.315,0,0,1-.483.351l-1.9-1.357-1.9,1.357a.315.315,0,0,1-.483-.351l.7-2.225L6.7,15.176a.315.315,0,0,1,.185-.568l2.334-.018.738-2.214A.315.315,0,0,1,10.556,12.377Z" transform="translate(29.385 62.738)" fill="#f5f5f5"></path><path id="Path_14770" data-name="Path 14770" d="M11.87,2.712l.738,2.214,2.334.018a.314.314,0,0,1,.184.567L13.248,6.9l.7,2.225a.315.315,0,0,1-.483.351l-1.9-1.357-1.9,1.357a.315.315,0,0,1-.483-.351l.7-2.225L8.015,5.511A.314.314,0,0,1,8.2,4.944l2.334-.018.738-2.214A.316.316,0,0,1,11.87,2.712Z" transform="translate(37.061 6.249)" fill="#f5f5f5"></path><path id="Path_14771" data-name="Path 14771" d="M11.87,5.7l.738,2.214,2.334.018a.315.315,0,0,1,.184.568L13.248,9.891l.7,2.225a.315.315,0,0,1-.483.351l-1.9-1.357-1.9,1.357a.315.315,0,0,1-.483-.351l.7-2.225L8.015,8.5A.315.315,0,0,1,8.2,7.936l2.334-.018L11.271,5.7A.316.316,0,0,1,11.87,5.7Z" transform="translate(37.061 23.741)" fill="#f5f5f5"></path><path id="Path_14772" data-name="Path 14772" d="M11.87,8.547l.738,2.214,2.334.018a.315.315,0,0,1,.184.568l-1.878,1.386.7,2.225a.315.315,0,0,1-.483.351l-1.9-1.357-1.9,1.357a.315.315,0,0,1-.483-.351l.7-2.225L8.015,11.347A.315.315,0,0,1,8.2,10.78l2.334-.018.738-2.214A.316.316,0,0,1,11.87,8.547Z" transform="translate(37.061 40.359)" fill="#f5f5f5"></path><path id="Path_14773" data-name="Path 14773" d="M11.87,11.1l.738,2.214,2.334.018a.315.315,0,0,1,.184.568l-1.878,1.387.7,2.225a.315.315,0,0,1-.483.351l-1.9-1.357-1.9,1.357a.315.315,0,0,1-.483-.351l.7-2.225L8.015,13.9a.315.315,0,0,1,.184-.568l2.334-.018.738-2.214A.316.316,0,0,1,11.87,11.1Z" transform="translate(37.061 55.283)" fill="#f5f5f5"></path><path id="Path_14774" data-name="Path 14774" d="M13.183,1.434l.738,2.214,2.334.018a.314.314,0,0,1,.184.567L14.562,5.619l.7,2.225a.315.315,0,0,1-.483.351l-1.9-1.357L10.985,8.2a.315.315,0,0,1-.483-.351l.7-2.225L9.328,4.233a.314.314,0,0,1,.185-.567l2.334-.018.738-2.214A.316.316,0,0,1,13.183,1.434Z" transform="translate(44.736 -1.219)" fill="#f5f5f5"></path><path id="Path_14775" data-name="Path 14775" d="M13.183,4.132l.738,2.214,2.334.018a.315.315,0,0,1,.184.568L14.562,8.318l.7,2.225a.315.315,0,0,1-.483.351l-1.9-1.357-1.9,1.357a.315.315,0,0,1-.483-.351l.7-2.225L9.328,6.932a.315.315,0,0,1,.185-.568l2.334-.018.738-2.214A.316.316,0,0,1,13.183,4.132Z" transform="translate(44.736 14.552)" fill="#f5f5f5"></path><path id="Path_14776" data-name="Path 14776" d="M13.183,7.125l.738,2.214,2.334.018a.315.315,0,0,1,.184.568l-1.878,1.387.7,2.225a.315.315,0,0,1-.483.351l-1.9-1.357-1.9,1.357a.315.315,0,0,1-.483-.351l.7-2.225L9.328,9.925a.315.315,0,0,1,.185-.568l2.334-.018.738-2.214A.316.316,0,0,1,13.183,7.125Z" transform="translate(44.736 32.044)" fill="#f5f5f5"></path><path id="Path_14777" data-name="Path 14777" d="M13.183,9.874l.738,2.214,2.334.018a.315.315,0,0,1,.184.568l-1.878,1.386.7,2.225a.315.315,0,0,1-.483.351l-1.9-1.357-1.9,1.357a.315.315,0,0,1-.483-.351l.7-2.225L9.328,12.674a.315.315,0,0,1,.185-.568l2.334-.018.738-2.214A.316.316,0,0,1,13.183,9.874Z" transform="translate(44.736 48.114)" fill="#f5f5f5"></path><path id="Path_14778" data-name="Path 14778" d="M13.183,12.377l.738,2.214,2.334.018a.315.315,0,0,1,.184.568l-1.878,1.387.7,2.225a.315.315,0,0,1-.483.351l-1.9-1.357-1.9,1.357a.315.315,0,0,1-.483-.351l.7-2.225L9.328,15.176a.315.315,0,0,1,.185-.568l2.334-.018.738-2.214A.316.316,0,0,1,13.183,12.377Z" transform="translate(44.736 62.738)" fill="#f5f5f5"></path><path id="Path_14779" data-name="Path 14779" d="M14.5,2.712l.738,2.214,2.334.018a.314.314,0,0,1,.184.567L15.875,6.9l.7,2.225a.315.315,0,0,1-.483.351L14.2,8.116,12.3,9.473a.315.315,0,0,1-.483-.351l.7-2.225L10.642,5.511a.314.314,0,0,1,.184-.567l2.334-.018L13.9,2.712A.315.315,0,0,1,14.5,2.712Z" transform="translate(52.413 6.249)" fill="#f5f5f5"></path><path id="Path_14780" data-name="Path 14780" d="M14.5,5.7l.738,2.214,2.334.018a.315.315,0,0,1,.184.568L15.875,9.891l.7,2.225a.315.315,0,0,1-.483.351l-1.9-1.357-1.9,1.357a.315.315,0,0,1-.483-.351l.7-2.225L10.642,8.5a.315.315,0,0,1,.184-.568l2.334-.018L13.9,5.7A.315.315,0,0,1,14.5,5.7Z" transform="translate(52.413 23.741)" fill="#f5f5f5"></path><path id="Path_14781" data-name="Path 14781" d="M14.5,8.547l.738,2.214,2.334.018a.315.315,0,0,1,.184.568l-1.878,1.386.7,2.225a.315.315,0,0,1-.483.351l-1.9-1.357L12.3,15.31a.315.315,0,0,1-.483-.351l.7-2.225-1.878-1.386a.315.315,0,0,1,.184-.568l2.334-.018L13.9,8.547A.315.315,0,0,1,14.5,8.547Z" transform="translate(52.413 40.359)" fill="#f5f5f5"></path><path id="Path_14782" data-name="Path 14782" d="M14.5,11.1l.738,2.214,2.334.018a.315.315,0,0,1,.184.568l-1.878,1.387.7,2.225a.315.315,0,0,1-.483.351l-1.9-1.357-1.9,1.357a.315.315,0,0,1-.483-.351l.7-2.225L10.642,13.9a.315.315,0,0,1,.184-.568l2.334-.018L13.9,11.1A.315.315,0,0,1,14.5,11.1Z" transform="translate(52.413 55.283)" fill="#f5f5f5"></path><path id="Path_14783" data-name="Path 14783" d="M15.81,1.434l.738,2.214,2.334.018a.314.314,0,0,1,.185.567L17.188,5.619l.7,2.225a.315.315,0,0,1-.483.351l-1.9-1.357L13.612,8.2a.315.315,0,0,1-.483-.351l.7-2.225L11.955,4.233a.314.314,0,0,1,.184-.567l2.334-.018.738-2.214A.316.316,0,0,1,15.81,1.434Z" transform="translate(60.089 -1.219)" fill="#f5f5f5"></path><path id="Path_14784" data-name="Path 14784" d="M15.81,4.132l.738,2.214,2.334.018a.315.315,0,0,1,.185.568L17.188,8.318l.7,2.225a.315.315,0,0,1-.483.351l-1.9-1.357-1.9,1.357a.315.315,0,0,1-.483-.351l.7-2.225L11.955,6.932a.315.315,0,0,1,.184-.568l2.334-.018.738-2.214A.316.316,0,0,1,15.81,4.132Z" transform="translate(60.089 14.552)" fill="#f5f5f5"></path><path id="Path_14785" data-name="Path 14785" d="M15.81,7.125l.738,2.214,2.334.018a.315.315,0,0,1,.185.568l-1.878,1.387.7,2.225a.315.315,0,0,1-.483.351l-1.9-1.357-1.9,1.357a.315.315,0,0,1-.483-.351l.7-2.225L11.955,9.925a.315.315,0,0,1,.184-.568l2.334-.018.738-2.214A.316.316,0,0,1,15.81,7.125Z" transform="translate(60.089 32.044)" fill="#f5f5f5"></path><path id="Path_14786" data-name="Path 14786" d="M15.81,9.874l.738,2.214,2.334.018a.315.315,0,0,1,.185.568l-1.878,1.386.7,2.225a.315.315,0,0,1-.483.351l-1.9-1.357-1.9,1.357a.315.315,0,0,1-.483-.351l.7-2.225-1.878-1.386a.315.315,0,0,1,.184-.568l2.334-.018.738-2.214A.316.316,0,0,1,15.81,9.874Z" transform="translate(60.089 48.114)" fill="#f5f5f5"></path><path id="Path_14787" data-name="Path 14787" d="M15.81,12.377l.738,2.214,2.334.018a.315.315,0,0,1,.185.568l-1.878,1.387.7,2.225a.315.315,0,0,1-.483.351l-1.9-1.357-1.9,1.357a.315.315,0,0,1-.483-.351l.7-2.225-1.878-1.387a.315.315,0,0,1,.184-.568l2.334-.018.738-2.214A.316.316,0,0,1,15.81,12.377Z" transform="translate(60.089 62.738)" fill="#f5f5f5"></path></g></g></g></svg>