<svg xmlns="http://www.w3.org/2000/svg" xmlns:xlink="http://www.w3.org/1999/xlink" width="208" height="207" viewBox="0 0 208 207"><defs><clipPath id="clip-path"><rect id="Rectangle_2645" data-name="Rectangle 2645" width="208" height="207" rx="5" transform="translate(-0.408 -0.273)" fill="#47b962"></rect></clipPath></defs><g id="Mask_Group_126" data-name="Mask Group 126" transform="translate(0.408 0.272)" clip-path="url(#clip-path)"><g id="ecuador" transform="translate(0.416 0.597)"><path id="Path_14971" data-name="Path 14971" d="M0,26A45.141,45.141,0,0,0,41.955,71.024H164.4A45.141,45.141,0,0,0,206.351,26V19.493H0Z" transform="translate(0 135.101)" fill="#ff4b55"></path><path id="Path_14972" data-name="Path 14972" d="M164.4.014H41.956A45.141,45.141,0,0,0,0,45.04v58.036H206.351V45.04A45.141,45.141,0,0,0,164.4.014Z" transform="translate(0 -0.014)" fill="#ffe15a"></path><rect id="Rectangle_2642" data-name="Rectangle 2642" width="206.351" height="51.531" transform="translate(0 103.062)" fill="#41479b"></rect><path id="Path_14973" data-name="Path 14973" d="M12.533,34.968,38.52,12.693V44.93a9.837,9.837,0,0,1-9.838,9.838h0A9.838,9.838,0,0,1,22.1,52.242L12.532,43.63V34.968Z" transform="translate(86.931 87.933)" fill="#ffe15a"></path><path id="Path_14974" data-name="Path 14974" d="M20.832,43.008,13.312,36.24V25.029L26.924,13.361V40.295a3.65,3.65,0,0,1-6.092,2.713Z" transform="translate(92.339 92.569)" fill="#ff4b55"></path><path id="Path_14975" data-name="Path 14975" d="M17.025,21.847V34.59l6.187,5.586V16.544l3.712-3.182V40.295a3.65,3.65,0,0,1-6.092,2.713l-7.521-6.768V25.029Z" transform="translate(92.338 92.569)" fill="#41479b"></path><path id="Path_14976" data-name="Path 14976" d="M36.181,34.968,10.193,12.693V44.93a9.837,9.837,0,0,0,9.838,9.838h0a9.837,9.837,0,0,0,6.581-2.525l9.569-8.612Z" transform="translate(70.707 87.933)" fill="#ffe15a"></path><path id="Path_14977" data-name="Path 14977" d="M17.065,43.008l7.521-6.768V25.029L10.973,13.361V40.295a3.65,3.65,0,0,0,6.092,2.713Z" transform="translate(76.115 92.569)" fill="#ff4b55"></path><g id="Group_900" data-name="Group 900" transform="translate(80.005 100.737)"><path id="Path_14978" data-name="Path 14978" d="M20.873,21.847V34.59l-6.187,5.586V16.544l-3.712-3.182V40.295a3.65,3.65,0,0,0,6.092,2.713l7.521-6.768V25.029Z" transform="translate(-3.89 -8.168)" fill="#41479b"></path><rect id="Rectangle_2643" data-name="Rectangle 2643" width="1.779" height="10.659" transform="translate(44.547)" fill="#41479b"></rect><rect id="Rectangle_2644" data-name="Rectangle 2644" width="1.779" height="10.659" fill="#41479b"></rect></g><g id="Group_901" data-name="Group 901" transform="translate(74.714 85.327)"><path id="Path_14979" data-name="Path 14979" d="M34.163,21.115s2.475-11.756-6.187-10.209-8.662,4.022-18.562,8.972c0,0,11.137,2.475,16.087,1.237,0,0,3.712,4.95,7.425,6.187h3.712Z" transform="translate(-9.414 -10.765)" fill="#5a4646"></path><path id="Path_14980" data-name="Path 14980" d="M15.631,21.115S13.156,9.359,21.818,10.906s8.662,4.022,18.562,8.972c0,0-11.137,2.475-16.087,1.237,0,0-3.712,4.95-7.425,6.187H13.156Z" transform="translate(16.543 -10.765)" fill="#5a4646"></path><path id="Path_14981" data-name="Path 14981" d="M19.957,21.5H12.532V15.268A3.667,3.667,0,0,1,16.2,11.6h.091a3.667,3.667,0,0,1,3.667,3.667V21.5Z" transform="translate(12.217 -4.965)" fill="#5a4646"></path></g><circle id="Ellipse_199" data-name="Ellipse 199" cx="2.475" cy="2.475" r="2.475" transform="translate(100.701 93.2)" fill="#e6e1cd"></circle><path id="Path_14982" data-name="Path 14982" d="M12.331,13.716,16.985,16.2a1,1,0,0,0,1.184-.176h0a1,1,0,0,0,0-1.421l-3-3h-.722a2.114,2.114,0,0,0-2.114,2.114Z" transform="translate(85.534 80.363)" fill="#ffd0af"></path><path id="Path_14983" data-name="Path 14983" d="M15.792,14.076H12.065l1.631-1.91a1.612,1.612,0,0,1,1.226-.565h2.093v1.253A1.223,1.223,0,0,1,15.792,14.076Z" transform="translate(83.687 80.363)" fill="#ffaf94"></path><g id="Group_902" data-name="Group 902" transform="translate(83.376 98.371)"><path id="Path_14984" data-name="Path 14984" d="M15.042,15.9a3.5,3.5,0,0,1-.606-3.442,3.494,3.494,0,0,1,3.29,1.181,3.449,3.449,0,0,1,.719,2.93c.247.42.55.96.882,1.6a2.728,2.728,0,0,1,.039-.271,2.877,2.877,0,0,1,2.07-2,2.877,2.877,0,0,1,.709,2.788,2.84,2.84,0,0,1-1.685,1.846c.311.713.618,1.482.905,2.293.017-.048.018-.1.037-.143a2.875,2.875,0,0,1,2.277-1.758,2.876,2.876,0,0,1,.4,2.849,2.841,2.841,0,0,1-1.92,1.661,21.757,21.757,0,0,1,.716,5.313H21.635a20.047,20.047,0,0,0-.609-4.678,2.812,2.812,0,0,1-2.355-.258,2.85,2.85,0,0,1-1.355-2.508,2.851,2.851,0,0,1,2.85.067c.032.02.054.049.085.07-.265-.762-.547-1.485-.837-2.162A2.813,2.813,0,0,1,17,21.31a2.85,2.85,0,0,1-1.623-2.344,2.85,2.85,0,0,1,2.831-.25c-.341-.655-.648-1.2-.889-1.613A3.445,3.445,0,0,1,15.042,15.9Z" transform="translate(15.311 -12.409)" fill="#8cb400"></path><path id="Path_14985" data-name="Path 14985" d="M19.751,15.9a3.5,3.5,0,0,0,.606-3.442,3.494,3.494,0,0,0-3.29,1.181,3.449,3.449,0,0,0-.719,2.93c-.247.42-.55.96-.882,1.6a2.729,2.729,0,0,0-.039-.271,2.876,2.876,0,0,0-2.07-2,2.877,2.877,0,0,0-.709,2.788,2.84,2.84,0,0,0,1.685,1.846c-.311.713-.618,1.482-.906,2.293-.017-.048-.018-.1-.037-.143a2.875,2.875,0,0,0-2.277-1.758,2.876,2.876,0,0,0-.4,2.849,2.841,2.841,0,0,0,1.92,1.661,21.757,21.757,0,0,0-.716,5.313h1.237a20.048,20.048,0,0,1,.609-4.678,2.812,2.812,0,0,0,2.355-.258,2.85,2.85,0,0,0,1.355-2.508,2.851,2.851,0,0,0-2.85.067c-.032.02-.054.049-.085.07.265-.762.547-1.485.837-2.162a2.813,2.813,0,0,0,2.419.028,2.85,2.85,0,0,0,1.623-2.344,2.85,2.85,0,0,0-2.831-.25c.341-.655.648-1.2.889-1.613A3.445,3.445,0,0,0,19.751,15.9Z" transform="translate(-10.505 -12.409)" fill="#8cb400"></path></g><path id="Path_14986" data-name="Path 14986" d="M35.713,35.747,9.726,13.473V45.71a9.838,9.838,0,0,0,9.838,9.838h0a9.838,9.838,0,0,0,6.581-2.525l9.569-8.612Z" transform="translate(67.463 93.341)" fill="#ffe15a"></path><path id="Path_14987" data-name="Path 14987" d="M16.6,43.788l7.521-6.769V25.809L10.505,14.141V41.075A3.65,3.65,0,0,0,16.6,43.788Z" transform="translate(72.87 97.976)" fill="#ff4b55"></path><path id="Path_14988" data-name="Path 14988" d="M20.4,22.627V35.369l-6.187,5.586V17.323l-3.712-3.182V41.075A3.65,3.65,0,0,0,16.6,43.787l7.521-6.768V25.809Z" transform="translate(72.871 97.976)" fill="#41479b"></path><path id="Path_14989" data-name="Path 14989" d="M13,35.747,38.987,13.473V45.71a9.838,9.838,0,0,1-9.838,9.838h0a9.838,9.838,0,0,1-6.581-2.525L13,44.41Z" transform="translate(90.176 93.341)" fill="#ffe15a"></path><path id="Path_14990" data-name="Path 14990" d="M21.3,43.788,13.78,37.019V25.809L27.392,14.141V41.075A3.65,3.65,0,0,1,21.3,43.788Z" transform="translate(95.584 97.976)" fill="#ff4b55"></path><path id="Path_14991" data-name="Path 14991" d="M17.492,22.627V35.369l6.187,5.586V17.323l3.712-3.182V41.075A3.65,3.65,0,0,1,21.3,43.787L13.78,37.019V25.809Z" transform="translate(95.583 97.976)" fill="#41479b"></path><ellipse id="Ellipse_200" data-name="Ellipse 200" cx="12.375" cy="18.564" rx="12.375" ry="18.564" transform="translate(90.801 101.861)" fill="#69c3ff"></ellipse><path id="Path_14992" data-name="Path 14992" d="M11.6,25.546H33.872l1.237-4.95-5.64.94a3.876,3.876,0,0,1-3.159-.88l-6.4-5.487a3.155,3.155,0,0,0-2.054-.76h0a3.156,3.156,0,0,0-2.232.925L11.6,19.358v6.187Z" transform="translate(80.441 99.831)" fill="#009b64"></path><path id="Path_14993" data-name="Path 14993" d="M21.56,19.764l2.126-1.358-3.778-3.238a3.155,3.155,0,0,0-2.054-.76h0a3.156,3.156,0,0,0-2.232.925L11.6,19.358V20.6l6.187-1.237,1.094.547A2.721,2.721,0,0,0,21.56,19.764Z" transform="translate(80.441 99.831)" fill="#f5f5f5"></path><path id="Path_14994" data-name="Path 14994" d="M11.6,15.812l1.237,7.425,6.188,6.188h3.712l4.95-1.238,4.95-4.95,1.237-7.425Z" transform="translate(80.442 109.565)" fill="#5aa0e6"></path><path id="Path_14995" data-name="Path 14995" d="M24.9,52.292c-7.506,0-13.612-8.882-13.612-19.8s6.106-19.8,13.612-19.8,13.612,8.882,13.612,19.8S32.4,52.292,24.9,52.292Zm0-37.125c-6.141,0-11.137,7.772-11.137,17.325s5,17.325,11.137,17.325,11.137-7.772,11.137-17.325S31.038,15.168,24.9,15.168Z" transform="translate(78.278 87.934)" fill="#ffc88c"></path><g id="Group_903" data-name="Group 903" transform="translate(85.783 136.514)"><path id="Path_14996" data-name="Path 14996" d="M19.471,19.579a5.377,5.377,0,0,0-4.331-2.364,5.377,5.377,0,0,0-4.331,2.364,5.973,5.973,0,0,1,3.9,3.82,7.275,7.275,0,0,1,.428,2.478A6.369,6.369,0,0,1,19.471,19.579Z" transform="translate(-10.809 -17.215)" fill="#e1e1e1"></path><path id="Path_14997" data-name="Path 14997" d="M13.157,18.03a4.16,4.16,0,0,1-.943,2.423l-.035-.029A4.16,4.16,0,0,1,11.236,18Z" transform="translate(-7.843 -11.762)" fill="#e1e1e1"></path></g><path id="Path_14998" data-name="Path 14998" d="M42.537,19.154H11.584a.611.611,0,0,1-.611-.611v-.015a.611.611,0,0,1,.611-.611H42.537a.611.611,0,0,1,.611.611v.015A.611.611,0,0,1,42.537,19.154Z" transform="translate(76.115 124.166)" fill="#966446"></path><path id="Path_14999" data-name="Path 14999" d="M26.789,22.632H14.353a2.444,2.444,0,0,1-2.444-2.444v-.061a2.444,2.444,0,0,1,2.444-2.444H26.789a2.444,2.444,0,0,1,2.444,2.444v.061A2.444,2.444,0,0,1,26.789,22.632Z" transform="translate(82.605 122.544)" fill="#be915a"></path><path id="Path_15000" data-name="Path 15000" d="M15.923,17.916H11.592a.619.619,0,1,0,0,1.237h4.331Z" transform="translate(76.115 124.166)" fill="#b9b9b9"></path><path id="Path_15001" data-name="Path 15001" d="M17.326,18.306V29.613l-4.95-1.407,2.475-9.9Z" transform="translate(85.849 126.87)" fill="#ff4b55"></path><path id="Path_15002" data-name="Path 15002" d="M19.334,18.306l-2.475,8.662-4.95-1.237,3.712-7.425Z" transform="translate(82.605 126.87)" fill="#41479b"></path><path id="Path_15003" data-name="Path 15003" d="M15.465,18.306l-3.713,4.95,3.713,1.237,2.475-6.187Z" transform="translate(81.523 126.87)" fill="#ffe15a"></path><path id="Path_15004" data-name="Path 15004" d="M13,18.306V29.613l4.95-1.407-2.475-9.9Z" transform="translate(90.176 126.87)" fill="#ff4b55"></path><path id="Path_15005" data-name="Path 15005" d="M13.156,18.306l2.475,8.662,4.95-1.237-3.712-7.425Z" transform="translate(91.257 126.87)" fill="#41479b"></path><path id="Path_15006" data-name="Path 15006" d="M15.943,18.306l3.713,4.95-3.713,1.237-2.475-6.187Z" transform="translate(93.42 126.87)" fill="#ffe15a"></path><g id="Group_904" data-name="Group 904" transform="translate(76.3 106.813)"><path id="Path_15007" data-name="Path 15007" d="M11.392,24.132,9.614,22.339V13.473h1.779Z" transform="translate(-9.614 -13.473)" fill="#41479b"></path><path id="Path_15008" data-name="Path 15008" d="M17.939,22.339,16.16,24.132V13.473h1.779Z" transform="translate(35.798 -13.473)" fill="#41479b"></path></g></g></g></svg>