<svg xmlns="http://www.w3.org/2000/svg" xmlns:xlink="http://www.w3.org/1999/xlink" width="208" height="206" viewBox="0 0 208 206"><defs><clipPath id="clip-path"><rect id="Rectangle_2637" data-name="Rectangle 2637" width="208" height="206" rx="5" transform="translate(-0.056 -0.117)" fill="#47b962"></rect></clipPath></defs><g id="Mask_Group_123" data-name="Mask Group 123" transform="translate(0.057 0.117)" clip-path="url(#clip-path)"><g id="republica-dominicana" transform="translate(0.497 -1.495)"><path id="Path_14908" data-name="Path 14908" d="M46.256,0H161.13a46.256,46.256,0,0,1,46.256,46.256V161.13a46.256,46.256,0,0,1-46.256,46.256H46.256A46.256,46.256,0,0,1,0,161.13V46.256A46.256,46.256,0,0,1,46.256,0Z" fill="#f5f5f5"></path><path id="Path_14909" data-name="Path 14909" d="M81.863,0h-36.5A45.365,45.365,0,0,0,0,45.367v36.5H81.863Zm0,0" transform="translate(0)" fill="#41479b"></path><path id="Path_14910" data-name="Path 14910" d="M15.737,97.6h36.5A45.368,45.368,0,0,0,97.6,52.235v-36.5H15.737Zm0,0" transform="translate(109.785 109.785)" fill="#41479b"></path><path id="Path_14911" data-name="Path 14911" d="M52.239,0h-36.5V81.863H97.6v-36.5A45.367,45.367,0,0,0,52.239,0Zm0,0" transform="translate(109.785)" fill="#ff4b55"></path><path id="Path_14912" data-name="Path 14912" d="M0,15.737v36.5A45.366,45.366,0,0,0,45.367,97.6h36.5V15.737Zm0,0" transform="translate(0 109.785)" fill="#ff4b55"></path><path id="Path_14913" data-name="Path 14913" d="M12.607,15.193a4.858,4.858,0,0,1,2.836,5.287l1.317-.024s-.83-4.731-1.519-5.3-2.634.034-2.634.034Zm0,0" transform="translate(87.951 104.061)" fill="#64b496"></path><path id="Path_14914" data-name="Path 14914" d="M32.3,37.889a23.964,23.964,0,0,1-6.343-.688A5.356,5.356,0,0,0,27.31,33.35c0-3.243-2.235-1.175-2.235-1.175s-1.471,1.236-.581,4.545a12.816,12.816,0,0,1-2.548-1.3,11.883,11.883,0,0,0,2.118-4.5s-3.724-.736-4.743,2.068a12.845,12.845,0,0,1-1.606-2.67c.959.012,2.294-.619,2.294-4.266a3.307,3.307,0,0,0-3.083,2.114,20.778,20.778,0,0,1-.593-2.826c.971.283,3.481.484,3.481-4.964,0,0-3.014,0-3.712,2.676q-.056-1.026-.047-2.118a5.877,5.877,0,0,0,3.275-5.91A7.053,7.053,0,0,0,16.664,16.4,4.74,4.74,0,0,0,14.8,11.573a5.027,5.027,0,0,0,.851,5.926,5.513,5.513,0,0,0-.608,1.123,5.8,5.8,0,0,0-3.144-2.3,5.9,5.9,0,0,0,3.368,6.212,23.144,23.144,0,0,0,1.185,6.784,14.469,14.469,0,0,1-2.12-2.453c0-4.865-3.989-4.988-3.989-4.988-.745,5.554,3.362,5.779,3.362,5.779l2.248,2.455c-4.867-.813-4.867,3.243-4.867,3.243,3.245.811,4.867-.811,4.867-.811l1.754.9a4.85,4.85,0,0,0-4.187,3.152,14.809,14.809,0,0,0,7.745-.653C25.2,38.7,30.06,38.7,32.3,38.7v-.811Zm0,0" transform="translate(71.526 80.735)" fill="#64b496"></path><path id="Path_14915" data-name="Path 14915" d="M12.982,37.889a23.944,23.944,0,0,0,6.341-.688,5.365,5.365,0,0,1-1.349-3.851c0-3.243,2.235-1.175,2.235-1.175s1.472,1.236.581,4.545a12.838,12.838,0,0,0,2.548-1.3,11.883,11.883,0,0,1-2.118-4.5s3.724-.736,4.743,2.068a12.846,12.846,0,0,0,1.606-2.67c-.959.012-2.294-.619-2.294-4.266a3.308,3.308,0,0,1,3.083,2.114,20.654,20.654,0,0,0,.593-2.826c-.971.283-3.48.484-3.48-4.964,0,0,3.014,0,3.712,2.676q.056-1.026.045-2.118a5.878,5.878,0,0,1-3.273-5.91A7.038,7.038,0,0,1,28.619,16.4a4.742,4.742,0,0,1,1.865-4.832,5.025,5.025,0,0,1-.853,5.926,5.518,5.518,0,0,1,.609,1.123,5.789,5.789,0,0,1,3.145-2.3,5.9,5.9,0,0,1-3.368,6.212,23.145,23.145,0,0,1-1.185,6.784,14.577,14.577,0,0,0,2.12-2.453c0-4.865,3.989-4.988,3.989-4.988.745,5.554-3.362,5.779-3.362,5.779l-2.249,2.455C34.2,29.294,34.2,33.35,34.2,33.35c-3.243.811-4.865-.811-4.865-.811l-1.756.9a4.85,4.85,0,0,1,4.189,3.152,14.805,14.805,0,0,1-7.745-.653C20.079,38.7,15.226,38.7,12.983,38.7v-.811Zm0,0" transform="translate(90.57 80.735)" fill="#64b496"></path><path id="Path_14916" data-name="Path 14916" d="M17.75,10.439a27.79,27.79,0,0,0-7.393,6.9l2.611,1.924a24.577,24.577,0,0,1,6.523-6.094Zm0,0" transform="translate(72.257 72.824)" fill="#41479b"></path><path id="Path_14917" data-name="Path 14917" d="M13,13.083H24.356v6.489a3.243,3.243,0,0,1-3.243,3.243H16.245A4.035,4.035,0,0,0,13,24.46Zm0,0" transform="translate(90.702 91.269)" fill="#ff6b71"></path><path id="Path_14918" data-name="Path 14918" d="M13.306,19.971V11.049H25.472l-3.243,3.244v8.922H13.306Zm0,0" transform="translate(92.829 77.081)" fill="#5f64b9"></path><path id="Path_14919" data-name="Path 14919" d="M13.916,12.574h4.055v4.055H13.916Z" transform="translate(97.086 87.721)" fill="#f5f5f5"></path><path id="Path_14920" data-name="Path 14920" d="M22.934,13.083H11.578v6.489a3.243,3.243,0,0,0,3.243,3.243h4.867a4.04,4.04,0,0,1,3.245,1.645V13.083Zm0,0" transform="translate(80.769 91.269)" fill="#ff6b71"></path><path id="Path_14921" data-name="Path 14921" d="M12.747,20.174A4.093,4.093,0,0,1,14.757,21.6h.037A4.1,4.1,0,0,1,16.8,20.174V13.489H12.747v6.685Zm0,0" transform="translate(88.926 94.106)" fill="#f5f5f5"></path><path id="Path_14922" data-name="Path 14922" d="M23.338,19.971V11.049H11.171l3.246,3.244v8.922h8.922Zm0,0" transform="translate(77.93 77.081)" fill="#5f64b9"></path><path id="Path_14923" data-name="Path 14923" d="M11.578,12.574h4.055v4.055H11.578Z" transform="translate(80.769 87.721)" fill="#f5f5f5"></path><path id="Path_14924" data-name="Path 14924" d="M12.086,11.557v2.435l2.433,1.622V13.992Zm0,0" transform="translate(84.317 80.627)" fill="#41479b"></path><path id="Path_14925" data-name="Path 14925" d="M12.391,11.862V14.3l3.243,1.622v-.811Zm0,0" transform="translate(86.445 82.757)" fill="#f5f5f5"></path><path id="Path_14926" data-name="Path 14926" d="M16.044,11.557v2.435l-2.432,1.622V13.992Zm0,0" transform="translate(94.957 80.627)" fill="#41479b"></path><path id="Path_14927" data-name="Path 14927" d="M16.449,11.862V14.3L13.2,15.917v-.811Zm0,0" transform="translate(92.12 82.757)" fill="#f5f5f5"></path><path id="Path_14928" data-name="Path 14928" d="M25.7,28.315H15.912a4.042,4.042,0,0,1-4.029-4.056V11.713l8.981,6.056,8.861-6.056V24.258A4.042,4.042,0,0,1,25.7,28.315Zm0,0" transform="translate(82.9 81.715)" fill="#ff4b55"></path><g id="Group_898" data-name="Group 898" transform="translate(94.779 92.995)"><path id="Path_14929" data-name="Path 14929" d="M15.128,14.093l-3.245-2.434v8.924L15.128,22.2Zm0,0" transform="translate(-11.882 -11.659)" fill="#41479b"></path><path id="Path_14930" data-name="Path 14930" d="M13.713,14.093l3.245-2.434v8.924L13.713,22.2Zm0,0" transform="translate(0.887 -11.659)" fill="#41479b"></path><path id="Path_14931" data-name="Path 14931" d="M12.391,12.981h9.735v4.055H12.391Z" transform="translate(-8.334 -2.437)" fill="#41479b"></path></g><path id="Path_14932" data-name="Path 14932" d="M12.391,12.066,17.258,14.5l4.865-2.433v7.3H12.391v-7.3Zm0,0" transform="translate(86.444 84.175)" fill="#ff4b55"></path><path id="Path_14933" data-name="Path 14933" d="M21.971,13.609v8.154a1.218,1.218,0,0,1-1.216,1.216H15.888a1.219,1.219,0,0,1-1.217-1.216V13.64l-2.432-1.63v9.752a3.651,3.651,0,0,0,3.649,3.649h4.867A3.653,3.653,0,0,0,24.4,21.762V11.955Zm0,0" transform="translate(85.381 83.399)" fill="#f5f5f5"></path><path id="Path_14934" data-name="Path 14934" d="M25.3,14.437a18.141,18.141,0,0,0-4.5.817,18.145,18.145,0,0,0-4.5-.817c-2.287-.205-3.643-.405-4.421-1.784v2.342a9.269,9.269,0,0,0,4.274,1.058,15.848,15.848,0,0,1,4.357.823l.288.107.287-.107a15.848,15.848,0,0,1,4.357-.823A9.28,9.28,0,0,0,29.724,15v-2.35c-.776,1.384-2.133,1.584-4.424,1.79Zm0,0" transform="translate(82.9 88.235)" fill="#f5f5f5"></path><path id="Path_14935" data-name="Path 14935" d="M16.043,12.979H14.827V11.76h-.813v1.219H12.8v.811h1.217v3.649h.813V13.79h1.216Zm0,0" transform="translate(89.281 82.045)" fill="#ffe15a"></path><path id="Path_14936" data-name="Path 14936" d="M12,11.9l.445-.445L19.57,18.58l-.445.445Zm0,0" transform="translate(83.706 79.897)" fill="#464655"></path><path id="Path_14937" data-name="Path 14937" d="M11.859,11.312l.89,1.784.892-.892Zm0,0" transform="translate(82.732 78.915)" fill="#ffe15a"></path><path id="Path_14938" data-name="Path 14938" d="M12.2,11.678l.51-.371,5.933,8.148-.508.369Zm0,0" transform="translate(85.082 78.879)" fill="#464655"></path><path id="Path_14939" data-name="Path 14939" d="M12.088,11.138l.6,1.9,1.019-.742Zm0,0" transform="translate(84.327 77.706)" fill="#ffe15a"></path><path id="Path_14940" data-name="Path 14940" d="M11.831,12.154l.362-.516,8.263,5.769-.36.516Zm0,0" transform="translate(82.541 81.191)" fill="#464655"></path><path id="Path_14941" data-name="Path 14941" d="M11.66,11.536l1.188,1.6L13.57,12.1Zm0,0" transform="translate(81.344 80.476)" fill="#ffe15a"></path><path id="Path_14942" data-name="Path 14942" d="M13.5,19.024l-.447-.445,7.128-7.128.445.447Zm0,0" transform="translate(91.058 79.89)" fill="#464655"></path><path id="Path_14943" data-name="Path 14943" d="M15.7,11.312,14.809,13.1l-.89-.892Zm0,0" transform="translate(97.108 78.915)" fill="#ffe15a"></path><path id="Path_14944" data-name="Path 14944" d="M13.51,19.824,13,19.453l5.936-8.146.51.37Zm0,0" transform="translate(90.688 78.879)" fill="#464655"></path><path id="Path_14945" data-name="Path 14945" d="M15.333,11.138l-.6,1.9L13.711,12.3Zm0,0" transform="translate(95.652 77.706)" fill="#ffe15a"></path><path id="Path_14946" data-name="Path 14946" d="M13.451,17.927l-.362-.516,8.265-5.772.359.516Zm0,0" transform="translate(91.31 81.198)" fill="#464655"></path><path id="Path_14947" data-name="Path 14947" d="M16.013,11.536l-1.188,1.6L14.1,12.1Zm0,0" transform="translate(98.384 80.476)" fill="#ffe15a"></path><path id="Path_14948" data-name="Path 14948" d="M15.229,25.083s-3.137-3.37-2.528-6.461c.488-2.488,1.973-5.229,3.135-5.9,0,0,1.643-.1,1.232,1.325s-.914,1.8-.768,3.2C16.554,19.686,16.947,22.571,15.229,25.083Zm0,0" transform="translate(88.061 88.772)" fill="#f5f5f5"></path><path id="Path_14949" data-name="Path 14949" d="M16.182,12.742a1.937,1.937,0,0,0-.346-.016c-1.161.666-2.646,3.407-3.135,5.9a6.3,6.3,0,0,0,.849,4.045C13.154,17.568,14.642,15.758,16.182,12.742Zm0,0" transform="translate(88.061 88.771)" fill="#41479b"></path><path id="Path_14950" data-name="Path 14950" d="M14.169,17.236c-.146-1.406.354-1.774.766-3.2a.929.929,0,0,0-.884-1.307,14.6,14.6,0,0,0-1.116,4.019c-.06,1.42.3,7.2.162,8.321C14.815,22.554,14.422,19.669,14.169,17.236Zm0,0" transform="translate(90.193 88.789)" fill="#ff4b55"></path><path id="Path_14951" data-name="Path 14951" d="M13.936,17.189a2.852,2.852,0,0,1,2.472-.768L15.127,12.3a2.842,2.842,0,0,0-2.47.767Q13.294,15.127,13.936,17.189Zm0,0" transform="translate(88.297 85.53)" fill="#f5f0f0"></path><path id="Path_14952" data-name="Path 14952" d="M14.248,17.093a2.85,2.85,0,0,1,2.47-.769q-.638-2.059-1.28-4.12a2.853,2.853,0,0,0-2.472.77Zm0,0" transform="translate(90.458 84.857)" fill="#f5f5f5"></path><path id="Path_14953" data-name="Path 14953" d="M24.94,13.39a24.585,24.585,0,0,0-12.595,3.135q-.792-1.416-1.586-2.83a27.831,27.831,0,0,1,14.256-3.548Q24.976,11.767,24.94,13.39Zm0,0" transform="translate(75.057 70.738)" fill="#5f64b9"></path><path id="Path_14954" data-name="Path 14954" d="M16.24,10.439a27.79,27.79,0,0,1,7.393,6.9l-2.611,1.924A24.586,24.586,0,0,0,14.5,13.174Zm0,0" transform="translate(101.157 72.824)" fill="#41479b"></path><path id="Path_14955" data-name="Path 14955" d="M13.532,13.39a24.572,24.572,0,0,1,12.593,3.135q.8-1.416,1.588-2.83a27.831,27.831,0,0,0-14.256-3.548Q13.494,11.767,13.532,13.39Zm0,0" transform="translate(93.876 70.738)" fill="#5f64b9"></path><path id="Path_14956" data-name="Path 14956" d="M25.913,14.038a24.61,24.61,0,0,0-12.976,0q-.43-1.563-.857-3.129a27.837,27.837,0,0,1,14.689,0q-.427,1.563-.856,3.129Zm0,0" transform="translate(84.277 69.225)" fill="#41479b"></path><path id="Path_14957" data-name="Path 14957" d="M20.575,15a58.8,58.8,0,0,0-10.217,3.7q.691,1.465,1.382,2.935a55.551,55.551,0,0,1,9.867-3.55Zm0,0" transform="translate(72.257 104.62)" fill="#ff6b71"></path><path id="Path_14958" data-name="Path 14958" d="M15.267,15a58.8,58.8,0,0,1,10.217,3.7L24.1,21.631a55.536,55.536,0,0,0-9.867-3.55Zm0,0" transform="translate(99.306 104.62)" fill="#ff6b71"></path><path id="Path_14959" data-name="Path 14959" d="M38,19.492a55.567,55.567,0,0,0-25.957,0q-.377-1.578-.757-3.154a58.834,58.834,0,0,1,27.471,0Q38.38,17.915,38,19.492Zm0,0" transform="translate(78.749 102.634)" fill="#ff4b55"></path><path id="Path_14960" data-name="Path 14960" d="M15.84,17.35l-2.237.56a.811.811,0,0,1-1.009-.787V15.956a.812.812,0,0,1,1.009-.787l2.237.559Zm0,0" transform="translate(87.863 105.656)" fill="#ff4b55"></path><path id="Path_14961" data-name="Path 14961" d="M13,15.728l2.235-.559a.813.813,0,0,1,1.009.787v1.167a.812.812,0,0,1-1.009.787L13,17.35Zm0,0" transform="translate(90.702 105.656)" fill="#ff4b55"></path><path id="Path_14962" data-name="Path 14962" d="M13.882,16.84h-.346A.636.636,0,0,1,12.9,16.2v-.348a.636.636,0,0,1,.637-.637h.346a.638.638,0,0,1,.639.637V16.2A.638.638,0,0,1,13.882,16.84Zm0,0" transform="translate(89.993 106.166)" fill="#ff6b71"></path></g></g></svg>