<svg xmlns="http://www.w3.org/2000/svg" xmlns:xlink="http://www.w3.org/1999/xlink" width="204" height="207" viewBox="0 0 204 207"><defs><clipPath id="clip-path"><rect id="Rectangle_2631" data-name="Rectangle 2631" width="204" height="207" rx="5" transform="translate(0.14 -0.437)" fill="#fff"></rect></clipPath></defs><g id="Mask_Group_118" data-name="Mask Group 118" transform="translate(-0.141 0.437)" clip-path="url(#clip-path)"><g id="costa-rica" transform="translate(-0.087 1.184)"><rect id="Rectangle_2623" data-name="Rectangle 2623" width="204.455" height="64.563" transform="translate(0 69.946)" fill="#ff4b55"></rect><path id="Path_14835" data-name="Path 14835" d="M158.8,0H43.791A44.739,44.739,0,0,0,.136,34.973H202.452A44.739,44.739,0,0,0,158.8,0Z" transform="translate(0.933)" fill="#41479b"></path><path id="Path_14836" data-name="Path 14836" d="M1.069,4.447A44.861,44.861,0,0,0,0,14.2V39.42H204.455V14.2a44.86,44.86,0,0,0-1.069-9.752Z" transform="translate(0 30.525)" fill="#f5f5f5"></path><path id="Path_14837" data-name="Path 14837" d="M43.791,56.525H158.8a44.739,44.739,0,0,0,43.655-34.973H.136A44.739,44.739,0,0,0,43.791,56.525Z" transform="translate(0.933 147.929)" fill="#41479b"></path><g id="Group_885" data-name="Group 885" transform="translate(0 75.325)"><path id="Path_14838" data-name="Path 14838" d="M0,42.326a44.861,44.861,0,0,0,1.069,9.752H203.385a44.862,44.862,0,0,0,1.069-9.752V17.105H0Z" transform="translate(0 42.08)" fill="#f5f5f5"></path><ellipse id="Ellipse_198" data-name="Ellipse 198" cx="25.165" cy="26.903" rx="25.165" ry="26.903" transform="translate(21.564)" fill="#f5f5f5"></ellipse></g><rect id="Rectangle_2624" data-name="Rectangle 2624" width="26.032" height="13.017" transform="translate(33.711 91.813)" fill="#3cc8ff"></rect><path id="Path_14839" data-name="Path 14839" d="M8.872,12.617l.3,2.872,1.17-2.64-.6,2.823,1.928-2.148-1.448,2.5,2.5-1.448L10.564,16.5l2.823-.6-2.639,1.17,2.872.3-2.872.3,2.639,1.17-2.823-.6,2.149,1.928-2.5-1.448,1.448,2.5L9.734,19.056l.6,2.823-1.17-2.64-.3,2.872-.3-2.872L7.4,21.879l.6-2.823L6.082,21.2l1.448-2.5-2.5,1.448L7.18,18.226l-2.823.6L7,17.661l-2.872-.3L7,17.067,4.357,15.9l2.823.6L5.031,14.574l2.5,1.448-1.448-2.5L8.01,15.672l-.6-2.823,1.17,2.64Z" transform="translate(28.312 86.599)" fill="#ffe15a"></path><path id="Path_14840" data-name="Path 14840" d="M24.026,32.312H13.612L4.066,24.5V13.221H34.44V24.5Z" transform="translate(27.911 90.742)" fill="#41479b"></path><path id="Path_14841" data-name="Path 14841" d="M29.99,13.828h0a.433.433,0,0,0-.866,0h0a9.978,9.978,0,0,1-1.943,5.081,11.774,11.774,0,0,1-2.268-5.453.978.978,0,0,0-1.406-.724.994.994,0,0,0-.529.739c-.664,4.256-2.671,6.065-3.97,6.808-1.945-1.88-2.586-4.924-2.8-6.722a1.011,1.011,0,0,0-1.46-.786,1.022,1.022,0,0,0-.507.6A13.061,13.061,0,0,1,3.956,22.506v2.6H34.329V20.771C30.858,19.9,29.99,13.828,29.99,13.828Z" transform="translate(27.153 86.664)" fill="#73af00"></path><g id="Group_886" data-name="Group 886" transform="translate(25.034 85.739)"><path id="Path_14842" data-name="Path 14842" d="M36.6,17.846c-3.471-1.735-3.471-3.471-3.471-3.471a25.652,25.652,0,0,0-7.81-1.735s.868-1.735-.868-1.735H19.246c-1.735,0-.868,1.735-.868,1.735a25.652,25.652,0,0,0-7.81,1.735s0,1.735-3.471,3.471a6.648,6.648,0,0,0-3.471,5.641,1.3,1.3,0,1,0,2.6,0,1.284,1.284,0,0,0-.076-.421l.076-.012,8.678-6.075H28.791l8.678,6.075.076.012a1.284,1.284,0,0,0-.076.421,1.3,1.3,0,1,0,2.6,0A6.645,6.645,0,0,0,36.6,17.846Z" transform="translate(-0.154 -10.903)" fill="#f0aa00"></path><path id="Path_14843" data-name="Path 14843" d="M42.235,19.17c-.868,0-3.471,0-3.471-2.6s3.471-2.6,3.471-2.6l-5.207-1.735C35.293,18.3,38.764,18.3,38.764,26.112c0,7-7.81,11.281-10.414,11.281a3.76,3.76,0,0,0-3.471,1.735,3.76,3.76,0,0,0-3.471-1.735c-2.6,0-10.414-4.285-10.414-11.281,0-7.81,3.471-7.81,1.735-13.885L7.523,13.963s3.471,0,3.471,2.6-2.6,2.6-3.471,2.6-4.339,0-4.339,4.339S7.523,33.055,13.6,36.526s3.471,6.942,11.281,6.942S30.085,40,36.16,36.526s10.414-8.678,10.414-13.017S43.1,19.17,42.235,19.17Z" transform="translate(-3.184 -1.814)" fill="#f0aa00"></path></g><g id="Group_887" data-name="Group 887" transform="translate(34.581 88.126)"><path id="Path_14844" data-name="Path 14844" d="M14.811,12.34l-2.1-.943a1.738,1.738,0,0,0-1.107-.107A13.944,13.944,0,0,0,4.4,15.509l2.6.868Z" transform="translate(-4.398 -10.953)" fill="#73af00"></path><path id="Path_14845" data-name="Path 14845" d="M6.163,12.34l2.1-.943a1.738,1.738,0,0,1,1.107-.107,13.944,13.944,0,0,1,7.207,4.22l-2.6.868Z" transform="translate(7.721 -10.953)" fill="#73af00"></path><path id="Path_14846" data-name="Path 14846" d="M7.953,13.159l1.582-1.582a.217.217,0,0,0-.307-.307L7.647,12.852,6.064,11.27a.217.217,0,0,0-.307.307L7.34,13.159,5.758,14.741a.217.217,0,0,0,.307.307l1.582-1.582,1.582,1.582a.217.217,0,0,0,.307-.307Z" transform="translate(4.503 -11.207)" fill="#73af00"></path></g><path id="Path_14847" data-name="Path 14847" d="M38.448,19.767c0-1.477-1.4-2.115-2.6-2.392v-.687c-1.634-.153-2.545-.767-4.129-1.846-.61-.416-1.3-.887-2.137-1.395a12,12,0,0,0-6.751-2.057v1.434H19.356V11.39a12,12,0,0,0-6.751,2.057c-.835.508-1.527.979-2.137,1.395-1.584,1.079-2.5,1.693-4.129,1.846v.687c-1.208.277-2.6.915-2.6,2.392l2.6-.868v.4a10.385,10.385,0,0,0,5.595-2.3c.584-.4,1.246-.849,2.023-1.321a10.6,10.6,0,0,1,4.531-1.665v1.42H23.7v-1.42a10.6,10.6,0,0,1,4.531,1.665c.777.472,1.439.923,2.023,1.321a10.385,10.385,0,0,0,5.595,2.3v-.4Z" transform="translate(25.638 78.121)" fill="#f5f5f5"></path><path id="Path_14848" data-name="Path 14848" d="M28.9,15.433V14.359H26.479a1.7,1.7,0,0,0,.682-1.3c0-2.4-5.455-3.037-8.678-3.037S9.8,10.66,9.8,13.058a1.706,1.706,0,0,0,.682,1.3H8.068v1.074a13.1,13.1,0,0,0-3.953,1.675l.963,1.444A10.108,10.108,0,0,1,9.8,16.963v-.868H27.16v.868a10.11,10.11,0,0,1,4.726,1.59l.963-1.444A13.092,13.092,0,0,0,28.9,15.433Zm-6.942-1.314V13.46a.653.653,0,0,0-.811-.633l-2.66.665-2.66-.665a.653.653,0,0,0-.811.633v.659a7.791,7.791,0,0,1-3.417-1.061c.47-.446,2.769-1.3,6.888-1.3s6.418.856,6.888,1.3A7.791,7.791,0,0,1,21.954,14.119Z" transform="translate(28.247 68.776)" fill="#3cc8ff"></path><g id="Group_888" data-name="Group 888" transform="translate(35.702 93.813)"><path id="Path_14849" data-name="Path 14849" d="M6.991,11.994l.22.659.695.006a.094.094,0,0,1,.055.169l-.559.413.21.663a.094.094,0,0,1-.144.1L6.9,13.6l-.565.4a.094.094,0,0,1-.144-.1l.21-.663-.559-.413a.094.094,0,0,1,.055-.169l.695-.006.22-.659A.094.094,0,0,1,6.991,11.994Z" transform="translate(4.145 -11.93)" fill="#f5f5f5"></path><path id="Path_14850" data-name="Path 14850" d="M6.484,12.014l.288.633.692-.067a.094.094,0,0,1,.072.162l-.513.469.278.637a.094.094,0,0,1-.132.119l-.6-.343-.52.461A.093.093,0,0,1,5.891,14l.139-.681-.6-.352a.094.094,0,0,1,.037-.174l.69-.078.149-.679A.094.094,0,0,1,6.484,12.014Z" transform="translate(1.25 -11.728)" fill="#f5f5f5"></path><path id="Path_14851" data-name="Path 14851" d="M5.854,12.117l.418.555.661-.216a.094.094,0,0,1,.106.143l-.4.569.409.562a.094.094,0,0,1-.1.145l-.664-.2-.408.563a.093.093,0,0,1-.169-.053l-.012-.695-.661-.214a.094.094,0,0,1,0-.178l.657-.226v-.7A.093.093,0,0,1,5.854,12.117Z" transform="translate(-1.613 -10.901)" fill="#f5f5f5"></path><path id="Path_14852" data-name="Path 14852" d="M5.28,12.3l.488.5.626-.3a.094.094,0,0,1,.124.127l-.32.617.48.5a.094.094,0,0,1-.083.157l-.686-.114-.329.612a.094.094,0,0,1-.175-.03l-.1-.687-.684-.124a.094.094,0,0,1-.025-.176l.621-.311-.093-.689A.094.094,0,0,1,5.28,12.3Z" transform="translate(-4.54 -9.604)" fill="#f5f5f5"></path><path id="Path_14853" data-name="Path 14853" d="M7.311,12.014l-.288.633-.692-.067a.094.094,0,0,0-.072.162l.513.469-.278.637a.094.094,0,0,0,.132.119l.6-.343.52.461A.093.093,0,0,0,7.9,14l-.139-.681.6-.352a.094.094,0,0,0-.037-.174l-.69-.078-.149-.679A.094.094,0,0,0,7.311,12.014Z" transform="translate(7.05 -11.728)" fill="#f5f5f5"></path><path id="Path_14854" data-name="Path 14854" d="M7.869,12.117l-.418.555-.66-.216a.094.094,0,0,0-.106.143l.4.569-.409.562a.094.094,0,0,0,.1.145l.664-.2.408.563a.093.093,0,0,0,.169-.053l.012-.695.661-.214a.094.094,0,0,0,0-.178l-.657-.226v-.7A.094.094,0,0,0,7.869,12.117Z" transform="translate(9.985 -10.901)" fill="#f5f5f5"></path><path id="Path_14855" data-name="Path 14855" d="M8.5,12.3l-.488.5-.626-.3a.094.094,0,0,0-.124.127l.32.617-.48.5a.094.094,0,0,0,.083.157l.686-.114.329.612a.094.094,0,0,0,.175-.03l.1-.687.684-.124a.093.093,0,0,0,.025-.176l-.622-.311.093-.689A.093.093,0,0,0,8.5,12.3Z" transform="translate(12.856 -9.604)" fill="#f5f5f5"></path></g><path id="Path_14856" data-name="Path 14856" d="M5.18,14.586,9.6,17.543h5.343l2.468-2.115-1.9.759H9.221Z" transform="translate(35.556 100.115)" fill="#8c5a28"></path><path id="Path_14857" data-name="Path 14857" d="M7.63,14.1,7.2,18.4l-1.942-.741A13.217,13.217,0,0,1,7.63,14.1Z" transform="translate(36.116 96.786)" fill="#f5f5f5"></path><g id="Group_889" data-name="Group 889" transform="translate(44.932 109.184)"><rect id="Rectangle_2625" data-name="Rectangle 2625" width="0.287" height="7.327" transform="translate(2.648)" fill="#8c5a28"></rect><rect id="Rectangle_2626" data-name="Rectangle 2626" width="0.287" height="6.707" transform="translate(5.303 0.619)" fill="#8c5a28"></rect><rect id="Rectangle_2627" data-name="Rectangle 2627" width="0.287" height="6.707" transform="translate(0 0.619)" fill="#8c5a28"></rect></g><g id="Group_890" data-name="Group 890" transform="translate(44.032 109.18)"><path id="Path_14858" data-name="Path 14858" d="M8.133,16.077H6.111a.2.2,0,0,1-.2-.2V14.727a.2.2,0,0,1,.2-.2H8.133a.2.2,0,0,1,.2.2v1.154A.2.2,0,0,1,8.133,16.077Z" transform="translate(-3.431 -9.443)" fill="#f5f5f5"></path><path id="Path_14859" data-name="Path 14859" d="M8.133,15.815H6.111a.2.2,0,0,1-.2-.2V14.465a.2.2,0,0,1,.2-.2H8.133a.2.2,0,0,1,.2.2v1.154A.2.2,0,0,1,8.133,15.815Z" transform="translate(-3.431 -11.242)" fill="#f5f5f5"></path><path id="Path_14860" data-name="Path 14860" d="M8.133,15.573H6.111a.2.2,0,0,1-.2-.2V14.224a.2.2,0,0,1,.2-.2H8.133a.2.2,0,0,1,.2.2v1.154A.2.2,0,0,1,8.133,15.573Z" transform="translate(-3.431 -12.899)" fill="#f5f5f5"></path><path id="Path_14861" data-name="Path 14861" d="M8.166,16.077H6.47a.2.2,0,0,1-.2-.2V14.727a.2.2,0,0,1,.2-.2h1.7a.2.2,0,0,1,.2.2v1.154A.2.2,0,0,1,8.166,16.077Z" transform="translate(-0.971 -9.443)" fill="#f5f5f5"></path><path id="Path_14862" data-name="Path 14862" d="M8.166,15.624H6.47a.2.2,0,0,1-.2-.2v-.912a.2.2,0,0,1,.2-.2h1.7a.2.2,0,0,1,.2.2v.912A.2.2,0,0,1,8.166,15.624Z" transform="translate(-0.971 -10.888)" fill="#f5f5f5"></path><path id="Path_14863" data-name="Path 14863" d="M8.166,15.2H6.47a.2.2,0,0,1-.2-.2v-.7a.2.2,0,0,1,.2-.2h1.7a.2.2,0,0,1,.2.2v.7A.2.2,0,0,1,8.166,15.2Z" transform="translate(-0.971 -12.347)" fill="#f5f5f5"></path><path id="Path_14864" data-name="Path 14864" d="M7.491,16.077H5.8a.2.2,0,0,1-.2-.2V14.727a.2.2,0,0,1,.2-.2h1.7a.2.2,0,0,1,.2.2v1.154A.2.2,0,0,1,7.491,16.077Z" transform="translate(-5.599 -9.443)" fill="#f5f5f5"></path><path id="Path_14865" data-name="Path 14865" d="M7.491,15.624H5.8a.2.2,0,0,1-.2-.2v-.912a.2.2,0,0,1,.2-.2h1.7a.2.2,0,0,1,.2.2v.912A.2.2,0,0,1,7.491,15.624Z" transform="translate(-5.599 -10.888)" fill="#f5f5f5"></path><path id="Path_14866" data-name="Path 14866" d="M7.491,15.2H5.8a.2.2,0,0,1-.2-.2v-.7a.2.2,0,0,1,.2-.2h1.7a.2.2,0,0,1,.2.2v.7A.2.2,0,0,1,7.491,15.2Z" transform="translate(-5.599 -12.347)" fill="#f5f5f5"></path><path id="Path_14867" data-name="Path 14867" d="M5.75,13.963v.867l1.276-.441Z" transform="translate(-4.563 -13.34)" fill="#f5f5f5"></path><path id="Path_14868" data-name="Path 14868" d="M6.424,13.963v.867L7.7,14.389Z" transform="translate(0.062 -13.34)" fill="#f5f5f5"></path><path id="Path_14869" data-name="Path 14869" d="M6.087,13.884v.867l1.276-.441Z" transform="translate(-2.255 -13.884)" fill="#f5f5f5"></path></g><path id="Path_14870" data-name="Path 14870" d="M5.656,13.14l1.536,1.027H9.048l.857-.735-.659.264H7.06Z" transform="translate(38.818 90.185)" fill="#8c5a28"></path><path id="Path_14871" data-name="Path 14871" d="M6.507,12.971l-.148,1.5-.674-.258A4.6,4.6,0,0,1,6.507,12.971Z" transform="translate(39.013 89.028)" fill="#f5f5f5"></path><g id="Group_891" data-name="Group 891" transform="translate(45.93 101.409)"><rect id="Rectangle_2628" data-name="Rectangle 2628" width="0.1" height="2.546" transform="translate(0.922)" fill="#8c5a28"></rect><rect id="Rectangle_2629" data-name="Rectangle 2629" width="0.1" height="2.33" transform="translate(1.845 0.216)" fill="#8c5a28"></rect><rect id="Rectangle_2630" data-name="Rectangle 2630" width="0.1" height="2.33" transform="translate(0 0.216)" fill="#8c5a28"></rect></g><g id="Group_892" data-name="Group 892" transform="translate(41.523 97.279)"><path id="Path_14872" data-name="Path 14872" d="M6.682,13.658h-.7a.068.068,0,0,1-.068-.068v-.4a.068.068,0,0,1,.068-.068h.7a.068.068,0,0,1,.068.068v.4A.068.068,0,0,1,6.682,13.658Z" transform="translate(-0.953 -7.226)" fill="#f5f5f5"></path><path id="Path_14873" data-name="Path 14873" d="M6.682,13.566h-.7a.068.068,0,0,1-.068-.068v-.4a.068.068,0,0,1,.068-.068h.7a.068.068,0,0,1,.068.068v.4A.068.068,0,0,1,6.682,13.566Z" transform="translate(-0.953 -7.85)" fill="#f5f5f5"></path><path id="Path_14874" data-name="Path 14874" d="M6.682,13.483h-.7a.068.068,0,0,1-.068-.068v-.4a.068.068,0,0,1,.068-.068h.7a.068.068,0,0,1,.068.068v.4A.069.069,0,0,1,6.682,13.483Z" transform="translate(-0.953 -8.426)" fill="#f5f5f5"></path><path id="Path_14875" data-name="Path 14875" d="M6.693,13.658H6.1a.068.068,0,0,1-.068-.068v-.4A.068.068,0,0,1,6.1,13.12h.589a.068.068,0,0,1,.068.068v.4A.068.068,0,0,1,6.693,13.658Z" transform="translate(-0.098 -7.226)" fill="#f5f5f5"></path><path id="Path_14876" data-name="Path 14876" d="M6.693,13.5H6.1a.068.068,0,0,1-.068-.068v-.317a.068.068,0,0,1,.068-.068h.589a.068.068,0,0,1,.068.068v.317A.068.068,0,0,1,6.693,13.5Z" transform="translate(-0.098 -7.727)" fill="#f5f5f5"></path><path id="Path_14877" data-name="Path 14877" d="M6.693,13.354H6.1a.068.068,0,0,1-.068-.068v-.244a.068.068,0,0,1,.068-.068h.589a.068.068,0,0,1,.068.068v.244A.068.068,0,0,1,6.693,13.354Z" transform="translate(-0.098 -8.234)" fill="#f5f5f5"></path><path id="Path_14878" data-name="Path 14878" d="M6.459,13.658H5.869A.068.068,0,0,1,5.8,13.59v-.4a.068.068,0,0,1,.068-.068h.589a.068.068,0,0,1,.068.068v.4A.068.068,0,0,1,6.459,13.658Z" transform="translate(-1.706 -7.226)" fill="#f5f5f5"></path><path id="Path_14879" data-name="Path 14879" d="M6.459,13.5H5.869a.068.068,0,0,1-.068-.068v-.317a.068.068,0,0,1,.068-.068h.589a.068.068,0,0,1,.068.068v.317A.068.068,0,0,1,6.459,13.5Z" transform="translate(-1.706 -7.727)" fill="#f5f5f5"></path><path id="Path_14880" data-name="Path 14880" d="M6.459,13.354H5.869a.068.068,0,0,1-.068-.068v-.244a.068.068,0,0,1,.068-.068h.589a.068.068,0,0,1,.068.068v.244A.068.068,0,0,1,6.459,13.354Z" transform="translate(-1.706 -8.234)" fill="#f5f5f5"></path><path id="Path_14881" data-name="Path 14881" d="M5.854,12.923v.3l.443-.153Z" transform="translate(-1.346 -8.579)" fill="#f5f5f5"></path><path id="Path_14882" data-name="Path 14882" d="M6.088,12.923v.3l.443-.153Z" transform="translate(0.261 -8.579)" fill="#f5f5f5"></path><path id="Path_14883" data-name="Path 14883" d="M5.971,12.9v.3l.443-.153Z" transform="translate(-0.544 -8.768)" fill="#f5f5f5"></path><path id="Path_14884" data-name="Path 14884" d="M7.445,13.848H5.719a.44.44,0,0,1-.438-.438v-.6a.44.44,0,0,1,.438-.438H7.445a.44.44,0,0,1,.438.438v.6A.44.44,0,0,1,7.445,13.848Z" transform="translate(-5.28 -12.371)" fill="#f5f5f5"></path><path id="Path_14885" data-name="Path 14885" d="M8.2,13.848H6.857a.439.439,0,0,1-.438-.438v-.6a.439.439,0,0,1,.438-.438H8.2a.438.438,0,0,1,.438.438v.6A.438.438,0,0,1,8.2,13.848Z" transform="translate(2.53 -12.371)" fill="#f5f5f5"></path><path id="Path_14886" data-name="Path 14886" d="M8.389,13.5h-1a.251.251,0,0,1-.251-.251v-.413a.251.251,0,0,1,.251-.251h1a.251.251,0,0,1,.251.251v.413A.251.251,0,0,1,8.389,13.5Z" transform="translate(7.489 -10.909)" fill="#f5f5f5"></path></g></g></g></svg>