<svg xmlns="http://www.w3.org/2000/svg" xmlns:xlink="http://www.w3.org/1999/xlink" width="204" height="204" viewBox="0 0 204 204"><defs><clipPath id="clip-path"><rect id="Rectangle_2438" data-name="Rectangle 2438" width="204" height="204" rx="5" transform="translate(-0.076 -0.27)" fill="#47b962"></rect></clipPath></defs><g id="Mask_Group_55" data-name="Mask Group 55" transform="translate(0.075 0.27)" clip-path="url(#clip-path)"><g id="portugal" transform="translate(-0.651 0.827)"><path id="Path_13995" data-name="Path 13995" d="M94.762,0H9.414V203.606H94.762A44.539,44.539,0,0,0,139.3,159.068V44.539A44.539,44.539,0,0,0,94.762,0Z" transform="translate(64.306)" fill="#ff4b55"></path><path id="Path_13996" data-name="Path 13996" d="M44.539,0A44.539,44.539,0,0,0,0,44.539V159.068a44.539,44.539,0,0,0,44.539,44.539H73.72V0Z" fill="#73af00"></path><ellipse id="Ellipse_150" data-name="Ellipse 150" cx="44.69" cy="44.69" rx="44.69" ry="44.69" transform="translate(29.058 57.113)" fill="#ffe15a"></ellipse><path id="Path_13997" data-name="Path 13997" d="M46,19.767V39.646a14.909,14.909,0,0,1-29.819,0V19.767H46m4.97-9.94H11.214a4.97,4.97,0,0,0-4.97,4.97V39.646a24.849,24.849,0,0,0,49.7,0V14.8a4.969,4.969,0,0,0-4.97-4.97Z" transform="translate(42.654 67.127)" fill="#ff4b55"></path><path id="Path_13998" data-name="Path 13998" d="M29.135,11.655V25.7a10.531,10.531,0,0,1-21.063,0V11.655H29.135" transform="translate(55.143 79.617)" fill="#f5f5f5"></path><g id="Group_772" data-name="Group 772" transform="translate(51.343 79.439)"><ellipse id="Ellipse_151" data-name="Ellipse 151" cx="2.485" cy="2.485" rx="2.485" ry="2.485" fill="#ffe15a"></ellipse><ellipse id="Ellipse_152" data-name="Ellipse 152" cx="2.485" cy="2.485" rx="2.485" ry="2.485" transform="translate(39.759)" fill="#ffe15a"></ellipse><ellipse id="Ellipse_153" data-name="Ellipse 153" cx="2.485" cy="2.485" rx="2.485" ry="2.485" transform="translate(0 19.879)" fill="#ffe15a"></ellipse><ellipse id="Ellipse_154" data-name="Ellipse 154" cx="2.485" cy="2.485" rx="2.485" ry="2.485" transform="translate(39.759 19.879)" fill="#ffe15a"></ellipse><ellipse id="Ellipse_155" data-name="Ellipse 155" cx="2.485" cy="2.485" rx="2.485" ry="2.485" transform="translate(19.879)" fill="#ffe15a"></ellipse><ellipse id="Ellipse_156" data-name="Ellipse 156" cx="2.485" cy="2.485" rx="2.485" ry="2.485" transform="translate(34.8 38.204)" fill="#ffe15a"></ellipse><ellipse id="Ellipse_157" data-name="Ellipse 157" cx="2.485" cy="2.485" rx="2.485" ry="2.485" transform="translate(5.253 38.204)" fill="#ffe15a"></ellipse></g><g id="Group_773" data-name="Group 773" transform="translate(61.892 90.397)"><path id="Path_13999" data-name="Path 13999" d="M15.427,12.839v4.28a3.21,3.21,0,0,1-6.419,0v-4.28h6.419" transform="translate(-0.362 -2.693)" fill="#41479b"></path><path id="Path_14000" data-name="Path 14000" d="M15.427,11.543v4.28a3.21,3.21,0,1,1-6.419,0v-4.28h6.419" transform="translate(-0.362 -11.543)" fill="#41479b"></path><path id="Path_14001" data-name="Path 14001" d="M15.427,14.148v4.28a3.21,3.21,0,1,1-6.419,0v-4.28h6.419" transform="translate(-0.362 6.249)" fill="#41479b"></path><path id="Path_14002" data-name="Path 14002" d="M16.531,12.839v4.28a3.21,3.21,0,0,1-6.419,0v-4.28h6.419" transform="translate(7.18 -2.693)" fill="#41479b"></path><path id="Path_14003" data-name="Path 14003" d="M14.323,12.839v4.28a3.21,3.21,0,0,1-6.419,0v-4.28h6.419" transform="translate(-7.903 -2.693)" fill="#41479b"></path></g></g></g></svg>