<svg xmlns="http://www.w3.org/2000/svg" xmlns:xlink="http://www.w3.org/1999/xlink" width="208" height="206" viewBox="0 0 208 206"><defs><clipPath id="clip-path"><rect id="Rectangle_2647" data-name="Rectangle 2647" width="208" height="206" rx="5" transform="translate(-0.408 0.222)" fill="#47b962"></rect></clipPath></defs><g id="Mask_Group_127" data-name="Mask Group 127" transform="translate(0.408 -0.223)" clip-path="url(#clip-path)"><g id="el-salvador" transform="translate(0.416 -0.142)"><g id="Group_905" data-name="Group 905"><path id="Path_15009" data-name="Path 15009" d="M161.212,0H45.139A45.139,45.139,0,0,0,0,45.139V68.784H206.351V45.139A45.139,45.139,0,0,0,161.212,0Z" fill="#41479b"></path><path id="Path_15010" data-name="Path 15010" d="M0,40.978A45.139,45.139,0,0,0,45.139,86.117H161.212a45.139,45.139,0,0,0,45.139-45.139V17.333H0Z" transform="translate(0 120.234)" fill="#41479b"></path></g><rect id="Rectangle_2646" data-name="Rectangle 2646" width="206.351" height="68.785" transform="translate(0 68.785)" fill="#f5f5f5"></rect><g id="Group_906" data-name="Group 906" transform="translate(76.024 85.081)"><path id="Path_15011" data-name="Path 15011" d="M33.748,50.05A23.757,23.757,0,0,1,15.576,10.99l1.038.875A22.4,22.4,0,0,0,33.748,48.693V50.05Z" transform="translate(-6.726 -8.849)" fill="#50af69"></path><path id="Path_15012" data-name="Path 15012" d="M15.611,15.028a4.755,4.755,0,0,0-.508,1.907,5.921,5.921,0,0,0-.862-.523,6.014,6.014,0,0,0-.1,2.829,4.475,4.475,0,0,0-2.375,1.294,6.329,6.329,0,0,0,1.064.566,4.768,4.768,0,0,0-1.477,1.752c6.662,3.331,9.855-1.316,9.994-1.524A11.035,11.035,0,0,0,15.611,15.028Z" transform="translate(2.721 19.159)" fill="#50af69"></path><path id="Path_15013" data-name="Path 15013" d="M12.611,15.838c0,.012.009.022.013.034v-.053Z" transform="translate(11.455 24.648)" fill="#50af69"></path><path id="Path_15014" data-name="Path 15014" d="M16.752,14.468a4.371,4.371,0,0,0-1.125,1.422,5.408,5.408,0,0,0-.535-.756,5.528,5.528,0,0,0-1.12,2.348A4.112,4.112,0,0,0,11.5,17.7a5.827,5.827,0,0,0,.69.866,4.385,4.385,0,0,0-1.886.937c4.4,5.244,8.789,2.494,8.982,2.369A10.139,10.139,0,0,0,16.752,14.468Z" transform="translate(-4.572 15.278)" fill="#50af69"></path><path id="Path_15015" data-name="Path 15015" d="M11.433,15.412c0,.011,0,.022,0,.033l.019-.045Z" transform="translate(3.277 21.742)" fill="#50af69"></path><path id="Path_15016" data-name="Path 15016" d="M16.9,13.8a3.937,3.937,0,0,0-1.451.751,4.853,4.853,0,0,0-.16-.819,4.982,4.982,0,0,0-1.79,1.513,3.706,3.706,0,0,0-2.115-.734,5.239,5.239,0,0,0,.246.967,3.946,3.946,0,0,0-1.9.071c1.669,5.937,6.295,5.305,6.5,5.274A9.136,9.136,0,0,0,16.9,13.8Z" transform="translate(-8.534 10.145)" fill="#50af69"></path><path id="Path_15017" data-name="Path 15017" d="M10.56,14.624l-.013.027.033-.03Z" transform="translate(-2.864 16.34)" fill="#50af69"></path><path id="Path_15018" data-name="Path 15018" d="M16.43,13.125a4.172,4.172,0,0,0-1.479.476,4.036,4.036,0,0,0,.044-.73,5.388,5.388,0,0,0-1.958,1.1,3,3,0,0,0-1.735-.893,4.287,4.287,0,0,0,0,.869,3.752,3.752,0,0,0-1.723-.168c.14,5.353,4.448,5.364,4.64,5.362A8.3,8.3,0,0,0,16.43,13.125Z" transform="translate(-9.579 4.199)" fill="#50af69"></path><path id="Path_15019" data-name="Path 15019" d="M10.179,13.661l-.018.022.036-.022Z" transform="translate(-5.539 9.676)" fill="#50af69"></path><path id="Path_15020" data-name="Path 15020" d="M15.91,13.409a3.657,3.657,0,0,0-1.363.017,3.539,3.539,0,0,0,.226-.6,4.729,4.729,0,0,0-1.926.413,2.637,2.637,0,0,0-1.225-1.2,3.786,3.786,0,0,0-.225.729,3.291,3.291,0,0,0-1.4-.587c-1.267,4.526,2.344,5.65,2.5,5.7A7.28,7.28,0,0,0,15.91,13.409Z" transform="translate(-8.559 -1.564)" fill="#50af69"></path><path id="Path_15021" data-name="Path 15021" d="M10.094,12.776l-.021.014.036-.009Z" transform="translate(-6.152 3.541)" fill="#50af69"></path><path id="Path_15022" data-name="Path 15022" d="M10.486,11.41s-1.23,3.224.679,5.091a6.573,6.573,0,0,0,3.719-3.323l-1.046-.2L13.3,11.368l-1.782.792Z" transform="translate(-5.992 -6.228)" fill="#50af69"></path><path id="Path_15023" data-name="Path 15023" d="M11.477,10.72s-1.929,2.862-.492,5.112a6.574,6.574,0,0,0,4.375-2.394l-.975-.43-.158-1.692-1.915.368Z" transform="translate(-3.516 -10.72)" fill="#50af69"></path><path id="Path_15024" data-name="Path 15024" d="M13.016,50.05V48.693A22.4,22.4,0,0,0,30.15,11.865l1.038-.875A23.757,23.757,0,0,1,13.016,50.05Z" transform="translate(14.265 -8.849)" fill="#50af69"></path><path id="Path_15025" data-name="Path 15025" d="M19.124,15.028a4.755,4.755,0,0,1,.508,1.907,5.9,5.9,0,0,1,.862-.523,6.02,6.02,0,0,1,.1,2.829,4.475,4.475,0,0,1,2.375,1.294,6.329,6.329,0,0,1-1.064.566,4.768,4.768,0,0,1,1.477,1.752c-6.662,3.331-9.855-1.316-9.994-1.524A11.035,11.035,0,0,1,19.124,15.028Z" transform="translate(16.848 19.159)" fill="#50af69"></path><path id="Path_15026" data-name="Path 15026" d="M13.4,15.838c0,.012-.009.022-.013.034v-.053Z" transform="translate(16.837 24.648)" fill="#50af69"></path><path id="Path_15027" data-name="Path 15027" d="M17.121,14.468a4.37,4.37,0,0,1,1.125,1.422,5.407,5.407,0,0,1,.535-.756,5.528,5.528,0,0,1,1.12,2.348,4.112,4.112,0,0,1,2.475.222,5.826,5.826,0,0,1-.69.866,4.385,4.385,0,0,1,1.886.937c-4.4,5.244-8.789,2.494-8.982,2.369A10.141,10.141,0,0,1,17.121,14.468Z" transform="translate(25.002 15.278)" fill="#50af69"></path><path id="Path_15028" data-name="Path 15028" d="M14.583,15.412c0,.011,0,.022,0,.033l-.019-.045Z" transform="translate(25.01 21.742)" fill="#50af69"></path><path id="Path_15029" data-name="Path 15029" d="M15.728,13.8a3.938,3.938,0,0,1,1.451.751,4.852,4.852,0,0,1,.16-.819,4.982,4.982,0,0,1,1.79,1.513,3.7,3.7,0,0,1,2.116-.734,5.24,5.24,0,0,1-.246.967,3.946,3.946,0,0,1,1.9.071c-1.669,5.937-6.295,5.305-6.5,5.274A9.134,9.134,0,0,1,15.728,13.8Z" transform="translate(30.213 10.145)" fill="#50af69"></path><path id="Path_15030" data-name="Path 15030" d="M15.468,14.624l.013.027-.033-.03Z" transform="translate(31.139 16.34)" fill="#50af69"></path><path id="Path_15031" data-name="Path 15031" d="M15.573,13.125a4.172,4.172,0,0,1,1.479.476,4.035,4.035,0,0,1-.044-.73,5.388,5.388,0,0,1,1.958,1.1,3,3,0,0,1,1.735-.893,4.288,4.288,0,0,1,0,.869,3.752,3.752,0,0,1,1.723-.168c-.14,5.353-4.448,5.364-4.64,5.362A8.3,8.3,0,0,1,15.573,13.125Z" transform="translate(31.879 4.199)" fill="#50af69"></path><path id="Path_15032" data-name="Path 15032" d="M15.852,13.661l.018.022-.036-.022Z" transform="translate(33.811 9.676)" fill="#50af69"></path><path id="Path_15033" data-name="Path 15033" d="M15.495,13.409a3.657,3.657,0,0,1,1.363.017,3.537,3.537,0,0,1-.226-.6,4.729,4.729,0,0,1,1.926.413,2.637,2.637,0,0,1,1.225-1.2,3.785,3.785,0,0,1,.225.729,3.291,3.291,0,0,1,1.4-.587c1.267,4.526-2.344,5.65-2.5,5.7A7.28,7.28,0,0,1,15.495,13.409Z" transform="translate(31.457 -1.564)" fill="#50af69"></path><path id="Path_15034" data-name="Path 15034" d="M15.937,12.776l.021.014-.036-.009Z" transform="translate(34.424 3.541)" fill="#50af69"></path><path id="Path_15035" data-name="Path 15035" d="M19.7,11.41s1.23,3.224-.679,5.091A6.573,6.573,0,0,1,15.3,13.178l1.046-.2.537-1.612,1.782.792Z" transform="translate(30.111 -6.228)" fill="#50af69"></path><path id="Path_15036" data-name="Path 15036" d="M18.812,10.72s1.929,2.862.492,5.112a6.574,6.574,0,0,1-4.375-2.394l.975-.43.158-1.692,1.915.368Z" transform="translate(27.531 -10.72)" fill="#50af69"></path></g><path id="Path_15037" data-name="Path 15037" d="M15.033,14.112l-2.1,3.148a1.356,1.356,0,0,0,.169,1.71L15.033,20.9l1.929-1.929a1.355,1.355,0,0,0,.169-1.71Z" transform="translate(88.142 97.888)" fill="#41479b"></path><path id="Path_15038" data-name="Path 15038" d="M14.761,17.26l-.894-3.148-.894,3.148a2.851,2.851,0,0,0,.072,1.71l.822,1.929.822-1.929A2.852,2.852,0,0,0,14.761,17.26Z" transform="translate(89.309 97.888)" fill="#f5f5f5"></path><g id="Group_907" data-name="Group 907" transform="translate(86.708 75.345)"><path id="Path_15039" data-name="Path 15039" d="M15.421,17.978V9.493A18.993,18.993,0,0,0,12.706,20.92" transform="translate(1.047 -9.493)" fill="#41479b"></path><path id="Path_15040" data-name="Path 15040" d="M12.934,10.566a21.143,21.143,0,0,0,1.124,20.02c.027.042,6.66-10.689,6.66-10.689l-7.785-9.331" transform="translate(-10.925 -2.052)" fill="#41479b"></path></g><path id="Path_15041" data-name="Path 15041" d="M15.474,22.375a13.569,13.569,0,0,1,.041-8.038l-2.886-3.46c-2.372,6.39-1.39,11.109.983,14.494C14.2,24.435,14.843,23.393,15.474,22.375Z" transform="translate(78.153 75.457)" fill="#f5f5f5"></path><path id="Path_15042" data-name="Path 15042" d="M20.178,22.565a.679.679,0,0,1-.536-.262L11.13,11.358a.678.678,0,1,1,1.071-.833L20.713,21.47a.678.678,0,0,1-.535,1.1Z" transform="translate(76.21 71.191)" fill="#ffe15a"></path><path id="Path_15043" data-name="Path 15043" d="M10.639,11.892C7.924,39.043,29.645,32.255,31,29.54L17.427,22.752l2.715-5.43-9.5-5.43" transform="translate(72.173 82.487)" fill="#41479b"></path><path id="Path_15044" data-name="Path 15044" d="M14.619,14.269,10.836,12C9.985,28.133,18.6,30.82,24.955,30.02,19.8,29.328,14.656,25.524,14.619,14.269Z" transform="translate(74.757 83.233)" fill="#f5f5f5"></path><path id="Path_15045" data-name="Path 15045" d="M21.716,19.78a.672.672,0,0,1-.359-.1L10.5,12.89a.679.679,0,0,1,.72-1.151l10.86,6.787a.679.679,0,0,1-.361,1.254Z" transform="translate(70.598 80.706)" fill="#ffe15a"></path><path id="Path_15046" data-name="Path 15046" d="M21.626,10.563A21.143,21.143,0,0,1,20.5,30.583c-.027.042-6.66-10.689-6.66-10.689l7.785-9.331" transform="translate(96.009 73.269)" fill="#41479b"></path><path id="Path_15047" data-name="Path 15047" d="M14.239,22.372a13.569,13.569,0,0,0-.041-8.038l2.886-3.46c2.372,6.39,1.39,11.109-.983,14.494C15.518,24.432,14.87,23.39,14.239,22.372Z" transform="translate(98.486 75.433)" fill="#f5f5f5"></path><path id="Path_15048" data-name="Path 15048" d="M14.448,22.561a.678.678,0,0,1-.535-1.1l8.512-10.944a.678.678,0,1,1,1.071.833L14.984,22.3A.676.676,0,0,1,14.448,22.561Z" transform="translate(95.515 71.169)" fill="#ffe15a"></path><path id="Path_15049" data-name="Path 15049" d="M33.363,11.888C36.079,39.039,14.357,32.252,13,29.536l13.576-6.788-2.715-5.43,9.5-5.43" transform="translate(90.176 82.463)" fill="#41479b"></path><path id="Path_15050" data-name="Path 15050" d="M23.772,14.266,27.556,12c.851,16.134-7.765,18.821-14.119,18.021C18.589,29.325,23.736,25.521,23.772,14.266Z" transform="translate(93.203 83.209)" fill="#f5f5f5"></path><path id="Path_15051" data-name="Path 15051" d="M14.962,19.777a.679.679,0,0,1-.361-1.254l10.86-6.787a.679.679,0,0,1,.72,1.151l-10.86,6.787A.672.672,0,0,1,14.962,19.777Z" transform="translate(99.075 80.683)" fill="#ffe15a"></path><circle id="Ellipse_201" data-name="Ellipse 201" cx="5.43" cy="5.43" r="5.43" transform="translate(97.745 90.277)" fill="#ffe6e6"></circle><circle id="Ellipse_202" data-name="Ellipse 202" cx="2.715" cy="2.715" r="2.715" transform="translate(100.46 92.992)" fill="#f5f5f5"></circle><path id="Path_15052" data-name="Path 15052" d="M13.593,21.477a.678.678,0,0,1-.679-.679V12.652a.679.679,0,1,1,1.357,0V20.8A.678.678,0,0,1,13.593,21.477Z" transform="translate(89.582 83.056)" fill="#ffe15a"></path><path id="Path_15053" data-name="Path 15053" d="M47.127,21.153H10.755L15,13.08H42.262Z" transform="translate(74.602 90.734)" fill="#5aa0e6"></path><path id="Path_15054" data-name="Path 15054" d="M13.139,16.464H22.6l-2.943-2.943a1.266,1.266,0,0,0-.493-.3l-1.024-.341a1.261,1.261,0,0,0-1.1.147L13.77,15.2Z" transform="translate(91.141 88.861)" fill="#ffb750"></path><path id="Path_15055" data-name="Path 15055" d="M12.734,17.146h11.29l-3.512-3.512a1.5,1.5,0,0,0-.588-.364L18.7,12.863a1.5,1.5,0,0,0-1.311.176l-3.9,2.6Z" transform="translate(88.33 88.688)" fill="#ffc455"></path><path id="Path_15056" data-name="Path 15056" d="M12.239,18.009H25.872l-4.241-4.241a1.822,1.822,0,0,0-.711-.439l-1.476-.492a1.818,1.818,0,0,0-1.583.212L13.148,16.19Z" transform="translate(84.897 88.391)" fill="#ffcd55"></path><path id="Path_15057" data-name="Path 15057" d="M11.749,18.74H27.36L22.5,13.884a2.078,2.078,0,0,0-.814-.5L20,12.818a2.081,2.081,0,0,0-1.813.243l-5.4,3.6Z" transform="translate(81.501 88.169)" fill="#ffd25a"></path><path id="Path_15058" data-name="Path 15058" d="M10.947,20.473H31.311l-6.335-6.335a2.711,2.711,0,0,0-1.061-.656l-2.2-.735a2.716,2.716,0,0,0-2.365.317L12.3,17.757Z" transform="translate(75.937 87.454)" fill="#ffe15a"></path><g id="Group_908" data-name="Group 908" transform="translate(101.447 94.093)"><path id="Path_15059" data-name="Path 15059" d="M15.75,14.69H12.815l.676-2.834h1.02a.714.714,0,0,1,.694.548Z" transform="translate(-12.556 -11.856)" fill="#ff4b55"></path><path id="Path_15060" data-name="Path 15060" d="M15.808,13.066H13.173a.391.391,0,0,1-.391-.391v-.13a.391.391,0,0,1,.391-.391h2.635a.391.391,0,0,1,.391.391v.13A.391.391,0,0,1,15.808,13.066Z" transform="translate(-12.782 -9.777)" fill="#ff4b55"></path><path id="Path_15061" data-name="Path 15061" d="M13.713,13.146l-.659-.167a.292.292,0,0,1-.166-.451l.477-.672Z" transform="translate(-12.429 -11.856)" fill="#ff4b55"></path></g><path id="Path_15062" data-name="Path 15062" d="M12.658,11.934l-.1.748a6.434,6.434,0,0,1,6.965,0q-.048-.374-.1-.748a7.084,7.084,0,0,0-6.773,0Z" transform="translate(87.132 76.802)" fill="#41479b"></path><path id="Path_15063" data-name="Path 15063" d="M12.663,11.9q-.048.374-.1.748a6.275,6.275,0,0,1,6.881,0q-.048-.374-.1-.748a6.9,6.9,0,0,0-6.689,0Z" transform="translate(87.169 76.515)" fill="#5aa0e6"></path><path id="Path_15064" data-name="Path 15064" d="M12.668,11.86q-.048.374-.1.748a6.13,6.13,0,0,1,6.8,0q-.048-.374-.1-.748a6.728,6.728,0,0,0-6.611,0Z" transform="translate(87.202 76.249)" fill="#9bc800"></path><path id="Path_15065" data-name="Path 15065" d="M12.673,11.82q-.048.374-.1.748a6.224,6.224,0,0,1,3.358-1.034,6.234,6.234,0,0,1,3.358,1.034q-.048-.374-.1-.748a6.539,6.539,0,0,0-6.523,0Z" transform="translate(87.241 75.946)" fill="#ffe14e"></path><path id="Path_15066" data-name="Path 15066" d="M12.679,11.781q-.048.374-.1.748A6.086,6.086,0,0,1,15.9,11.491a6.087,6.087,0,0,1,3.314,1.037q-.048-.374-.1-.748a6.354,6.354,0,0,0-6.436,0Z" transform="translate(87.279 75.648)" fill="#ffb14e"></path><path id="Path_15067" data-name="Path 15067" d="M12.656,11.764q-.034.262-.067.524a5.936,5.936,0,0,1,3.267-1.041,5.926,5.926,0,0,1,3.267,1.041q-.034-.262-.067-.524a6.279,6.279,0,0,0-6.4,0Z" transform="translate(87.321 75.521)" fill="#ff4b55"></path><g id="Group_909" data-name="Group 909" transform="translate(83.491 73.309)"><path id="Path_15068" data-name="Path 15068" d="M49.211,40.283H11.2a.678.678,0,0,1-.565-1.055L29.64,10.719a.706.706,0,0,1,1.13,0L49.776,39.228a.678.678,0,0,1-.565,1.055ZM12.466,38.926H47.942L30.2,12.319Z" transform="translate(-10.52 -0.914)" fill="#ffe15a"></path><path id="Path_15069" data-name="Path 15069" d="M13.593,13.309a.678.678,0,0,1-.679-.679V9.916a.679.679,0,1,1,1.357,0v2.715A.678.678,0,0,1,13.593,13.309Z" transform="translate(6.092 -9.237)" fill="#ffe15a"></path><path id="Path_15070" data-name="Path 15070" d="M16.137,10.936H13.422a.679.679,0,0,1,0-1.357h2.715a.679.679,0,0,1,0,1.357Z" transform="translate(4.905 -6.864)" fill="#ffe15a"></path></g><g id="Group_910" data-name="Group 910" transform="translate(98.868 121.283)"><path id="Path_15071" data-name="Path 15071" d="M16.765,20.253a.7.7,0,0,1-.147-.016c-.664-.148-2.882-.68-3.535-1.328a2.121,2.121,0,0,1,1.487-3.627h.007a2.107,2.107,0,0,1,1.495.617c.654.65,1.2,2.861,1.355,3.524a.678.678,0,0,1-.662.831Zm-2.188-3.614a1.267,1.267,0,0,0-.542.225.765.765,0,0,0,0,1.081,6.464,6.464,0,0,0,1.778.688,6.477,6.477,0,0,0-.7-1.773l.478-.481-.479.481A.757.757,0,0,0,14.577,16.639Z" transform="translate(-12.457 -15.281)" fill="#41479b"></path><path id="Path_15072" data-name="Path 15072" d="M13.594,20.253a.679.679,0,0,1-.662-.831c.152-.663.7-2.874,1.355-3.524h0a2.176,2.176,0,0,1,1.5-.617,2.1,2.1,0,0,1,1.5.626,2.124,2.124,0,0,1-.01,3c-.654.65-2.872,1.181-3.536,1.33A.665.665,0,0,1,13.594,20.253Zm1.172-3.874.478.481a6.475,6.475,0,0,0-.7,1.773,6.429,6.429,0,0,0,1.779-.69.764.764,0,0,0,0-1.079.756.756,0,0,0-.539-.225h0a.757.757,0,0,0-.538.221Zm0,0h0Z" transform="translate(-9.286 -15.281)" fill="#41479b"></path><path id="Path_15073" data-name="Path 15073" d="M13.251,21.167a.678.678,0,0,1-.679-.679c0-3.1,2.964-4.616,3.09-4.68a.679.679,0,0,1,.609,1.213c-.024.012-2.342,1.216-2.342,3.467A.679.679,0,0,1,13.251,21.167Z" transform="translate(-11.658 -12.123)" fill="#41479b"></path><path id="Path_15074" data-name="Path 15074" d="M16.307,21.167a.678.678,0,0,1-.679-.679c0-2.251-2.318-3.455-2.342-3.467a.679.679,0,0,1,.609-1.213c.126.064,3.09,1.58,3.09,4.68A.679.679,0,0,1,16.307,21.167Z" transform="translate(-9.284 -12.123)" fill="#41479b"></path></g></g></g></svg>