<svg xmlns="http://www.w3.org/2000/svg" xmlns:xlink="http://www.w3.org/1999/xlink" width="204" height="204" viewBox="0 0 204 204"><defs><clipPath id="clip-path"><rect id="Rectangle_2619" data-name="Rectangle 2619" width="204" height="204" rx="5" transform="translate(0.14 0.48)" fill="#fff"></rect></clipPath></defs><g id="Mask_Group_116" data-name="Mask Group 116" transform="translate(-0.141 -0.48)" clip-path="url(#clip-path)"><g id="peru" transform="translate(-0.087 1.191)"><path id="Path_14767" data-name="Path 14767" d="M64.408.088V203.152H45.391A45.524,45.524,0,0,1,0,157.761V45.479A45.524,45.524,0,0,1,45.391.088Z" transform="translate(0 -0.088)" fill="#d80027" fill-rule="evenodd"></path><path id="Path_14768" data-name="Path 14768" d="M17.809,203.152V.088H36.827a45.524,45.524,0,0,1,45.39,45.391V157.761a45.524,45.524,0,0,1-45.39,45.391Z" transform="translate(122.237 -0.088)" fill="#d80027" fill-rule="evenodd"></path><path id="Path_14769" data-name="Path 14769" d="M8.191.088H83.829V203.152H8.191Z" transform="translate(56.217 -0.088)" fill="#f5f5f5"></path></g></g></svg>