<svg xmlns="http://www.w3.org/2000/svg" xmlns:xlink="http://www.w3.org/1999/xlink" width="190" height="190" viewBox="0 0 190 190"><defs><clipPath id="clip-path"><rect id="Rectangle_2611" data-name="Rectangle 2611" width="190" height="190" rx="5" transform="translate(1100 5504)" fill="#47b962"></rect></clipPath></defs><g id="Mask_Group_112" data-name="Mask Group 112" transform="translate(-1100 -5504)" clip-path="url(#clip-path)"><g id="venezuela" transform="translate(1100 5504)"><path id="Path_14727" data-name="Path 14727" d="M148.438,0H41.563A41.562,41.562,0,0,0,0,41.563V63.271H190V41.563A41.562,41.562,0,0,0,148.438,0Z" fill="#ffe15a"></path><path id="Path_14728" data-name="Path 14728" d="M0,39.051A41.562,41.562,0,0,0,41.563,80.613H148.438A41.562,41.562,0,0,0,190,39.051V17.342H0Z" transform="translate(0 109.387)" fill="#ff4b55"></path><path id="Path_14729" data-name="Path 14729" d="M0,8.85V72.115H190V8.658H0Z" transform="translate(0 54.613)" fill="#41479b"></path><g id="Group_880" data-name="Group 880" transform="translate(51.29 73.309)"><path id="Path_14730" data-name="Path 14730" d="M12.825,14.726,13.9,17.955l3.4.026a.459.459,0,0,1,.269.828l-2.738,2.022,1.027,3.245a.459.459,0,0,1-.7.511L12.39,22.608,9.621,24.588a.459.459,0,0,1-.7-.511l1.027-3.245L7.206,18.809a.459.459,0,0,1,.269-.828l3.4-.026,1.077-3.229A.458.458,0,0,1,12.825,14.726Z" transform="translate(-7.019 17.602)" fill="#f5f5f5"></path><path id="Path_14731" data-name="Path 14731" d="M15.626,13.514l-.577,3.355L18.036,18.5a.459.459,0,0,1-.154.856l-3.369.488-.629,3.345a.459.459,0,0,1-.862.118l-1.5-3.053-3.376.435a.459.459,0,0,1-.379-.783L10.2,17.532,8.745,14.456a.459.459,0,0,1,.628-.6l3.012,1.585L14.86,13.1A.458.458,0,0,1,15.626,13.514Z" transform="translate(-3.207 8.536)" fill="#f5f5f5"></path><path id="Path_14732" data-name="Path 14732" d="M18.259,13.35l-1.6,3.006,2.327,2.484a.459.459,0,0,1-.414.765l-3.352-.59L13.577,22a.459.459,0,0,1-.856-.158l-.474-3.371L8.9,17.825a.459.459,0,0,1-.115-.862l3.059-1.493-.422-3.378a.459.459,0,0,1,.785-.376l2.365,2.448,3.082-1.445A.459.459,0,0,1,18.259,13.35Z" transform="translate(2.528 -0.297)" fill="#f5f5f5"></path><path id="Path_14733" data-name="Path 14733" d="M20.277,14.026,17.928,16.49,19.5,19.51a.459.459,0,0,1-.605.625l-3.069-1.472-2.387,2.427a.459.459,0,0,1-.782-.382l.452-3.374-3.046-1.52a.459.459,0,0,1,.122-.862l3.348-.613.5-3.366a.459.459,0,0,1,.857-.15l1.618,3,3.357-.561A.458.458,0,0,1,20.277,14.026Z" transform="translate(10.58 -6.556)" fill="#f5f5f5"></path><path id="Path_14734" data-name="Path 14734" d="M21.865,14.916l-2.923,1.745.7,3.33a.459.459,0,0,1-.751.44l-2.562-2.241-2.949,1.7a.459.459,0,0,1-.651-.578l1.339-3.129L11.545,13.9a.459.459,0,0,1,.348-.8l3.39.307L16.671,10.3a.459.459,0,0,1,.866.085l.756,3.319,3.385.359A.459.459,0,0,1,21.865,14.916Z" transform="translate(20.567 -10.032)" fill="#f5f5f5"></path><path id="Path_14735" data-name="Path 14735" d="M22.448,14.726l-1.077,3.229-3.4.026a.459.459,0,0,0-.269.828l2.738,2.022L19.41,24.076a.459.459,0,0,0,.7.511l2.769-1.979,2.769,1.979a.459.459,0,0,0,.7-.511l-1.027-3.245,2.738-2.022a.459.459,0,0,0-.269-.828l-3.4-.026-1.077-3.229A.458.458,0,0,0,22.448,14.726Z" transform="translate(59.166 17.602)" fill="#f5f5f5"></path><path id="Path_14736" data-name="Path 14736" d="M19.569,13.514l.577,3.355L17.158,18.5a.459.459,0,0,0,.154.856l3.369.488.629,3.345a.459.459,0,0,0,.862.118l1.5-3.053,3.376.435a.459.459,0,0,0,.379-.783l-2.439-2.375,1.457-3.076a.459.459,0,0,0-.628-.6l-3.012,1.585L20.334,13.1A.458.458,0,0,0,19.569,13.514Z" transform="translate(55.432 8.536)" fill="#f5f5f5"></path><path id="Path_14737" data-name="Path 14737" d="M16.875,13.35l1.6,3.006L16.145,18.84a.459.459,0,0,0,.414.765l3.352-.59L21.556,22a.459.459,0,0,0,.856-.158l.474-3.371,3.343-.642a.459.459,0,0,0,.115-.862L23.284,15.47l.422-3.378a.459.459,0,0,0-.785-.376l-2.365,2.448-3.082-1.445A.459.459,0,0,0,16.875,13.35Z" transform="translate(49.759 -0.297)" fill="#f5f5f5"></path><path id="Path_14738" data-name="Path 14738" d="M14.869,14.026l2.349,2.464-1.571,3.02a.459.459,0,0,0,.605.625l3.069-1.472,2.386,2.427a.459.459,0,0,0,.782-.382l-.452-3.374,3.046-1.52a.459.459,0,0,0-.122-.862l-3.348-.613-.5-3.366a.459.459,0,0,0-.857-.15l-1.618,3-3.357-.561A.458.458,0,0,0,14.869,14.026Z" transform="translate(41.693 -6.556)" fill="#f5f5f5"></path><path id="Path_14739" data-name="Path 14739" d="M13.368,14.916l2.923,1.745-.7,3.33a.459.459,0,0,0,.751.44L18.9,18.191l2.949,1.7a.459.459,0,0,0,.651-.578l-1.339-3.129,2.528-2.28a.459.459,0,0,0-.348-.8l-3.39.307L18.563,10.3a.459.459,0,0,0-.866.085l-.756,3.319-3.385.359A.459.459,0,0,0,13.368,14.916Z" transform="translate(31.62 -10.032)" fill="#f5f5f5"></path></g></g></g></svg>