<svg xmlns="http://www.w3.org/2000/svg" xmlns:xlink="http://www.w3.org/1999/xlink" width="204" height="204" viewBox="0 0 204 204"><defs><clipPath id="clip-path"><rect id="Rectangle_2439" data-name="Rectangle 2439" width="204" height="204" rx="5" transform="translate(-0.076 -0.377)" fill="#47b962"></rect></clipPath></defs><g id="Mask_Group_56" data-name="Mask Group 56" transform="translate(0.075 0.377)" clip-path="url(#clip-path)"><g id="puerto-rico" transform="translate(-0.651 0.428)"><path id="Path_14004" data-name="Path 14004" d="M158.924,0H44.4A44.541,44.541,0,0,0,.021,40.721H203.3A44.541,44.541,0,0,0,158.924,0Z" transform="translate(0.144)" fill="#ff4b55"></path><path id="Path_14005" data-name="Path 14005" d="M.165,5.2C.058,6.459,0,7.731,0,9.018v36.9H203.607V9.018c0-1.286-.058-2.559-.165-3.818Z" transform="translate(0 35.521)" fill="#f5f5f5"></path><g id="Group_774" data-name="Group 774" transform="translate(0 81.443)"><rect id="Rectangle_2488" data-name="Rectangle 2488" width="203.607" height="40.721" fill="#ff4b55"></rect><path id="Path_14006" data-name="Path 14006" d="M44.4,61.521H158.924A44.541,44.541,0,0,0,203.3,20.8H.021A44.541,44.541,0,0,0,44.4,61.521Z" transform="translate(0.144 60.643)" fill="#ff4b55"></path></g><path id="Path_14007" data-name="Path 14007" d="M0,52.5c0,1.286.058,2.559.165,3.818H203.442c.107-1.259.165-2.531.165-3.818V15.6H0Z" transform="translate(0 106.564)" fill="#f5f5f5"></path><path id="Path_14008" data-name="Path 14008" d="M106.081,87.5,13.537,1.6A44.4,44.4,0,0,0,0,33.579V148.107a44.4,44.4,0,0,0,13.537,31.974l92.544-85.9A5.018,5.018,0,0,0,106.081,87.5Z" transform="translate(0 10.96)" fill="#41479b"></path><path id="Path_14009" data-name="Path 14009" d="M29.482,11.4l5.091,15.265,16.091.125a2.168,2.168,0,0,1,1.271,3.912L38.991,40.264l4.854,15.342a2.168,2.168,0,0,1-3.328,2.418L27.426,48.666,14.334,58.023a2.168,2.168,0,0,1-3.328-2.418L15.86,40.264,2.916,30.705a2.168,2.168,0,0,1,1.271-3.912l16.091-.125L25.369,11.4A2.168,2.168,0,0,1,29.482,11.4Z" transform="translate(13.877 67.77)" fill="#f5f5f5"></path></g></g></svg>