<svg xmlns="http://www.w3.org/2000/svg" xmlns:xlink="http://www.w3.org/1999/xlink" width="204" height="203" viewBox="0 0 204 203"><defs><clipPath id="clip-path"><rect id="Rectangle_2429" data-name="Rectangle 2429" width="204" height="203" rx="5" transform="translate(0.23 0.322)" fill="#47b962"></rect></clipPath></defs><g id="Mask_Group_36" data-name="Mask Group 36" transform="translate(-0.23 -0.322)" clip-path="url(#clip-path)"><g id="belice" transform="translate(-2.026 -0.92)"><g id="Group_718" data-name="Group 718" transform="translate(6.455)"><path id="Path_13455" data-name="Path 13455" d="M153.437,0H38.908A44.513,44.513,0,0,0,.824,21.432h190.7A44.513,44.513,0,0,0,153.437,0Z" transform="translate(-0.824)" fill="#ff4b55"></path><path id="Path_13456" data-name="Path 13456" d="M38.908,44.7H153.437A44.513,44.513,0,0,0,191.52,23.263H.824A44.513,44.513,0,0,0,38.908,44.7Z" transform="translate(-0.824 158.911)" fill="#ff4b55"></path></g><path id="Path_13457" data-name="Path 13457" d="M6.455,2.737A44.328,44.328,0,0,0,0,25.843V140.372a44.328,44.328,0,0,0,6.455,23.107h190.7a44.328,44.328,0,0,0,6.455-23.107V25.843a44.328,44.328,0,0,0-6.455-23.107Z" transform="translate(0 18.696)" fill="#41479b"></path><path id="Path_13458" data-name="Path 13458" d="M130.129,30.423c44.061,69.905-29.8,143.767-99.706,99.706A41.679,41.679,0,0,1,17.392,117.1C-26.67,47.191,47.191-26.67,117.1,17.391A41.68,41.68,0,0,1,130.129,30.423Z" transform="translate(28.043 28.043)" fill="#f5f5f5"></path><g id="Group_719" data-name="Group 719" transform="translate(75.105 133.986)"><path id="Path_13459" data-name="Path 13459" d="M22.924,21.554,12.178,23.345a2.222,2.222,0,0,1-2.588-2.192V17.11H22.924Z" transform="translate(-9.591 -17.11)" fill="#82afff"></path><path id="Path_13460" data-name="Path 13460" d="M14.7,21.554l10.745,1.791a2.222,2.222,0,0,0,2.588-2.192V17.11H14.7v4.444Z" transform="translate(25.301 -17.11)" fill="#82afff"></path></g><g id="Group_720" data-name="Group 720" transform="translate(80.848 58.307)"><path id="Path_13461" data-name="Path 13461" d="M17.239,13.375H16.31a2.913,2.913,0,0,1-2.617-1.617L12.049,8.471l1.491-.746,1.644,3.288a1.252,1.252,0,0,0,1.126.7h.929Z" transform="translate(1.462 -5.539)" fill="#965032"></path><rect id="Rectangle_2443" data-name="Rectangle 2443" width="6.16" height="1.667" transform="translate(1.491 4.407) rotate(63.435)" fill="#965032"></rect><path id="Path_13462" data-name="Path 13462" d="M28.332,38.673,23.778,34.12a5.352,5.352,0,0,1-1.557-3.759V28.829a3.666,3.666,0,0,0-.385-1.63L20.7,24.929a1.383,1.383,0,0,0-1.242-.768H15.539a3.038,3.038,0,0,1-2.733-1.689L11.2,19.256l1.491-.746L14.3,21.726a1.382,1.382,0,0,0,1.242.768h3.919a3.039,3.039,0,0,1,2.733,1.688l1.135,2.27a5.352,5.352,0,0,1,.561,2.376v1.532a3.665,3.665,0,0,0,1.069,2.578l1.709,1.71V26.884a9.343,9.343,0,0,0-2.04-5.814,11.018,11.018,0,0,1-2.4-6.855V7.772h1.667v6.443a9.343,9.343,0,0,0,2.04,5.814,11.018,11.018,0,0,1,2.4,6.855V38.673Z" transform="translate(-4.353 -5.214)" fill="#965032"></path><path id="Path_13463" data-name="Path 13463" d="M18.583,15.232H16.109a3.685,3.685,0,0,1-3.439-2.389l-.626-1.689,1.562-.581.626,1.688a2.009,2.009,0,0,0,1.876,1.3h2.474v1.667Z" transform="translate(1.431 13.916)" fill="#965032"></path><path id="Path_13464" data-name="Path 13464" d="M14.08,29.394l-1.526-.673L21.916,7.446l1.525.672Z" transform="translate(4.911 -7.446)" fill="#965032"></path><path id="Path_13465" data-name="Path 13465" d="M21.264,18.346H13.209V16.679H19.6V8.624h1.667Z" transform="translate(9.381 0.601)" fill="#965032"></path></g><g id="Group_721" data-name="Group 721" transform="translate(63.994 54.198)"><path id="Path_13466" data-name="Path 13466" d="M22.363,16.709H12.989a1.979,1.979,0,0,1-1.979-1.979V12.022a1.979,1.979,0,0,1,1.979-1.979h9.375a1.979,1.979,0,0,1,1.979,1.979V14.73A1.979,1.979,0,0,1,22.363,16.709Z" transform="translate(11.212 14.402)" fill="#73af00"></path><path id="Path_13467" data-name="Path 13467" d="M24.35,16.709H14.975A1.979,1.979,0,0,1,13,14.73V12.022a1.979,1.979,0,0,1,1.979-1.979H24.35a1.979,1.979,0,0,1,1.979,1.979V14.73A1.979,1.979,0,0,1,24.35,16.709Z" transform="translate(24.781 14.402)" fill="#73af00"></path><path id="Path_13468" data-name="Path 13468" d="M27.139,15.858h-11.6a1.979,1.979,0,0,1-1.979-1.979V11.17a1.979,1.979,0,0,1,1.979-1.979h11.6a1.979,1.979,0,0,1,1.979,1.979v2.708A1.979,1.979,0,0,1,27.139,15.858Z" transform="translate(28.658 8.586)" fill="#73af00"></path><path id="Path_13469" data-name="Path 13469" d="M33.238,14.723H14.975A1.979,1.979,0,0,1,13,12.743V10.035a1.979,1.979,0,0,1,1.979-1.979H33.238a1.979,1.979,0,0,1,1.979,1.979v2.708A1.979,1.979,0,0,1,33.238,14.723Z" transform="translate(24.781 0.833)" fill="#73af00"></path><path id="Path_13470" data-name="Path 13470" d="M22.411,13.588H15.259a1.979,1.979,0,0,1-1.979-1.979V8.9a1.979,1.979,0,0,1,1.979-1.979h7.152A1.979,1.979,0,0,1,24.39,8.9v2.708A1.979,1.979,0,0,1,22.411,13.588Z" transform="translate(26.719 -6.921)" fill="#73af00"></path><path id="Path_13471" data-name="Path 13471" d="M16.784,14.155h-4.93a1.979,1.979,0,0,1-1.979-1.979V9.468a1.979,1.979,0,0,1,1.979-1.979h4.93a1.979,1.979,0,0,1,1.979,1.979v2.708A1.98,1.98,0,0,1,16.784,14.155Z" transform="translate(3.459 -3.044)" fill="#73af00"></path><path id="Path_13472" data-name="Path 13472" d="M22.647,13.871H13.272a1.979,1.979,0,0,1-1.979-1.979V9.184A1.979,1.979,0,0,1,13.272,7.2h9.375a1.979,1.979,0,0,1,1.979,1.979v2.708A1.979,1.979,0,0,1,22.647,13.871Z" transform="translate(13.15 -4.983)" fill="#73af00"></path><path id="Path_13473" data-name="Path 13473" d="M28.179,15.29H12.137a1.979,1.979,0,0,1-1.979-1.979V10.6a1.979,1.979,0,0,1,1.979-1.979H28.179A1.979,1.979,0,0,1,30.158,10.6v2.708A1.979,1.979,0,0,1,28.179,15.29Z" transform="translate(5.397 4.709)" fill="#73af00"></path><path id="Path_13474" data-name="Path 13474" d="M79.281,15.407H12.616a4.444,4.444,0,1,0,0,8.889H30.394a4.445,4.445,0,0,0,4.444,4.444H57.06A4.445,4.445,0,0,0,61.5,24.3H79.281a4.444,4.444,0,1,0,0-8.889Z" transform="translate(-8.172 51.047)" fill="#73af00"></path></g><path id="Path_13475" data-name="Path 13475" d="M52.015,25.837c-.166-.333-1.033.062-1.574-.139A212.326,212.326,0,0,1,28.823,15.557l-1.183-1.873L16.474,8.257a1.5,1.5,0,0,0-1.958.607l-.55.968a1.5,1.5,0,0,0,.611,2.07L25.21,17.435l3-.222,11.678,6s7.934,4.059,8.356,4.357S48.913,29.54,49.7,29.4C50.263,29.3,52.734,27.281,52.015,25.837Z" transform="translate(94.06 55.373)" fill="#be7855"></path><g id="Group_722" data-name="Group 722" transform="translate(68.159 122.227)"><path id="Path_13476" data-name="Path 13476" d="M12.964,16.115s.741,3.287.047,3.657-4.4.37-4.306-.417.6-3.565.6-3.565Z" transform="translate(-8.704 -14.356)" fill="#ffbe3c"></path><path id="Path_13477" data-name="Path 13477" d="M10.165,15.608s-.6,2.454.6,2.546a75.358,75.358,0,0,0,8.194-.139,3.348,3.348,0,0,0,.417-.648l-6.3-1.759Z" transform="translate(0.253 -15.608)" fill="#ffbe3c"></path></g><path id="Path_13478" data-name="Path 13478" d="M12.453,11.7S10.8,15.635,10.2,29.269c-.16,3.628.278,2.778-1.528,14.444l2.143,1.119a2.014,2.014,0,0,0,1.975-.063l2.086-1.264S13.854,30.45,17.187,22.95c0,0,1.759,3.241,1.759,5.648s-.093,13.981-.093,13.981a30.942,30.942,0,0,0,5.648.463s-1.111-25.115-2.222-31.029Z" transform="translate(59.214 79.926)" fill="#eaf3f5"></path><g id="Group_723" data-name="Group 723" transform="translate(58.194 67.669)"><path id="Path_13479" data-name="Path 13479" d="M9.552,11.488a1.475,1.475,0,0,0-.313,1.667s5.069,2.188,9.826.313a1.511,1.511,0,0,0-.139-1.7Z" transform="translate(4.233 10.803)" fill="#965032"></path><path id="Path_13480" data-name="Path 13480" d="M14.434,18.895c-2.885,1.073-7.268,3.75-6.991,5.88s1.787,1.61,2.258,1.087a32.857,32.857,0,0,1,2.244-2.5c.422-.3,7.245-3.8,7.245-3.8l18.067-9.288a1.784,1.784,0,0,0-.937-1.632A179.216,179.216,0,0,1,14.434,18.895Z" transform="translate(-7.431 -8.641)" fill="#965032"></path></g><path id="Path_13481" data-name="Path 13481" d="M19.014,9.5l-.1.764s-.278,4.9,1.319,6.215c0,0,.347,1.007-.208,1.493s-6.041,3.264-6.041,3.264-1.424,2.951-1.389,4.618c0,0-1.354-.521-1.215-1.181s.937-2.4.694-3.229a.919.919,0,0,0-1.146-.59s-.451.486.278.8L10.959,22.7,8.008,24.433l.66.8s.035,6.111,3.646,6.91c0,0,1.91.139,4.166-4.166a6.694,6.694,0,0,1,.8,4.028,12.312,12.312,0,0,0,9.375.278l.07-3.75s.834,5.764,3.68,5.208c0,0,7.887-3.036,6.574-4.19-3.055-2.685-6.745-.416-6.745-.416-.179-3.9-.505-8.945-1.009-9.491-.834-.9-3.4-.417-3.912-1.574s-.37-3.194.185-5.555-2.268-4.028-2.268-4.028Z" transform="translate(54.701 57.957)" fill="#ffbe3c"></path><path id="Path_13482" data-name="Path 13482" d="M9.535,11.8a9.579,9.579,0,0,0,5.058-.162l.972,2.407h.556s1.339-4.455-.439-4.4c0,0-.007-1.446-3.111-1.385C9.9,8.314,8.979,10.045,9.535,11.8Z" transform="translate(64.077 56.419)" fill="#464655"></path><g id="Group_724" data-name="Group 724" transform="translate(116.118 122.227)"><path id="Path_13483" data-name="Path 13483" d="M17.09,16.115s-.741,3.287-.046,3.657,4.4.37,4.306-.417-.6-3.565-.6-3.565Z" transform="translate(-1.72 -14.356)" fill="#965032"></path><path id="Path_13484" data-name="Path 13484" d="M24.041,15.608s.6,2.454-.6,2.546a75.357,75.357,0,0,1-8.194-.139,3.348,3.348,0,0,1-.417-.648l6.3-1.759Z" transform="translate(-14.828 -15.608)" fill="#965032"></path></g><path id="Path_13485" data-name="Path 13485" d="M27.4,11.7s1.655,3.935,2.257,17.569c.16,3.628-.278,2.778,1.528,14.444l-2.143,1.119a2.014,2.014,0,0,1-1.975-.063l-2.086-1.264S26,30.45,22.663,22.95c0,0-1.759,3.241-1.759,5.648S21,42.579,21,42.579a30.942,30.942,0,0,1-5.648.463s1.111-25.115,2.222-31.029Z" transform="translate(104.844 79.926)" fill="#eaf3f5"></path><path id="Path_13486" data-name="Path 13486" d="M25.316,11.488a1.475,1.475,0,0,1,.313,1.667s-5.069,2.188-9.826.313a1.511,1.511,0,0,1,.139-1.7Z" transform="translate(106.612 78.472)" fill="#be7855"></path><path id="Path_13487" data-name="Path 13487" d="M32.422,9.5l.1.764s.278,4.9-1.319,6.215c0,0-.347,1.007.208,1.493s6.041,3.264,6.041,3.264,1.424,2.951,1.389,4.618c0,0,1.354-.521,1.215-1.181s-.937-2.4-.694-3.229a.919.919,0,0,1,1.146-.59s.451.486-.278.8l.243,1.041,2.951,1.736-.66.8s-.035,6.111-3.646,6.91c0,0-1.91.139-4.166-4.166a6.694,6.694,0,0,0-.8,4.028,12.312,12.312,0,0,1-9.375.278l-.07-3.75s-.833,5.764-3.68,5.208c0,0-7.887-3.036-6.574-4.19,3.055-2.685,6.745-.416,6.745-.416.179-3.9.505-8.945,1.009-9.491.833-.9,3.4-.417,3.912-1.574s.37-3.194-.185-5.555,2.268-4.028,2.268-4.028Z" transform="translate(97.77 57.957)" fill="#965032"></path><path id="Path_13488" data-name="Path 13488" d="M22.8,11.8a9.579,9.579,0,0,1-5.058-.162l-.972,2.407h-.556s-1.339-4.455.439-4.4c0,0,.007-1.446,3.111-1.385C22.436,8.314,23.36,10.045,22.8,11.8Z" transform="translate(107.492 56.419)" fill="#464655"></path><path id="Path_13489" data-name="Path 13489" d="M10.62,10.9c-.232-.564.157-.719.157-.719a24.339,24.339,0,0,1,3.137-1.516c.54.044,1.2.993,1.2,1.8A4.351,4.351,0,0,0,18.342,13.9s-2.708,3.68-6.467,3.177A14.16,14.16,0,0,0,10.62,10.9Z" transform="translate(72.04 59.18)" fill="#eaf3f5"></path><path id="Path_13490" data-name="Path 13490" d="M12.374,11.151a1.561,1.561,0,0,0-1.508,1.608V31.15c0,4.444,2.083,20,16.666,24.444C42.115,51.149,44.2,35.594,44.2,31.15V12.759a1.56,1.56,0,0,0-1.508-1.608Z" transform="translate(74.225 76.17)" fill="#82afff"></path><path id="Path_13491" data-name="Path 13491" d="M29.66,31.15V12.759a1.56,1.56,0,0,0-1.508-1.608H12.994V26.706L27.643,41.355A30.9,30.9,0,0,0,29.66,31.15Z" transform="translate(88.763 76.17)" fill="#ffe15a"></path><path id="Path_13492" data-name="Path 13492" d="M10.866,31.15V12.759a1.56,1.56,0,0,1,1.508-1.608H27.532V26.706L12.883,41.355A30.9,30.9,0,0,1,10.866,31.15Z" transform="translate(74.225 76.17)" fill="#eaf3f5"></path><path id="Path_13493" data-name="Path 13493" d="M11.739,14.947,15.6,19.025h10.74l2.277-2.918-2.619,1.048h-8.68Z" transform="translate(80.19 102.102)" fill="#8c5a28"></path><path id="Path_13494" data-name="Path 13494" d="M15.12,14.275l-.589,5.936-2.679-1.023A18.255,18.255,0,0,1,15.12,14.275Z" transform="translate(80.963 97.511)" fill="#f5f5f5"></path><g id="Group_725" data-name="Group 725" transform="translate(97.719 109.434)"><rect id="Rectangle_2444" data-name="Rectangle 2444" width="0.396" height="10.109" transform="translate(3.651)" fill="#8c5a28"></rect><rect id="Rectangle_2445" data-name="Rectangle 2445" width="0.396" height="9.253" transform="translate(7.313 0.855)" fill="#8c5a28"></rect><rect id="Rectangle_2446" data-name="Rectangle 2446" width="0.396" height="9.253" transform="translate(0 0.855)" fill="#8c5a28"></rect></g><g id="Group_726" data-name="Group 726" transform="translate(96.476 110.988)"><path id="Path_13495" data-name="Path 13495" d="M15.892,17H12.953a.2.2,0,0,1-.2-.2V15.066a.2.2,0,0,1,.2-.2h2.939a.2.2,0,0,1,.2.2v1.742A.2.2,0,0,1,15.892,17Z" transform="translate(-9.33 -9.408)" fill="#f5f5f5"></path><path id="Path_13496" data-name="Path 13496" d="M15.892,16.64H12.953a.2.2,0,0,1-.2-.2V14.7a.2.2,0,0,1,.2-.2h2.939a.2.2,0,0,1,.2.2v1.742A.2.2,0,0,1,15.892,16.64Z" transform="translate(-9.33 -11.888)" fill="#f5f5f5"></path><path id="Path_13497" data-name="Path 13497" d="M15.892,16.306H12.953a.2.2,0,0,1-.2-.2V14.368a.2.2,0,0,1,.2-.2h2.939a.2.2,0,0,1,.2.2V16.11A.2.2,0,0,1,15.892,16.306Z" transform="translate(-9.33 -14.173)" fill="#f5f5f5"></path><path id="Path_13498" data-name="Path 13498" d="M15.939,17h-2.49a.2.2,0,0,1-.2-.2V15.066a.2.2,0,0,1,.2-.2h2.49a.2.2,0,0,1,.2.2v1.742A.2.2,0,0,1,15.939,17Z" transform="translate(-5.939 -9.408)" fill="#f5f5f5"></path><path id="Path_13499" data-name="Path 13499" d="M15.939,16.377h-2.49a.2.2,0,0,1-.2-.2V14.774a.2.2,0,0,1,.2-.2h2.49a.2.2,0,0,1,.2.2v1.408A.2.2,0,0,1,15.939,16.377Z" transform="translate(-5.939 -11.4)" fill="#f5f5f5"></path><path id="Path_13500" data-name="Path 13500" d="M15.939,15.794h-2.49a.2.2,0,0,1-.2-.2V14.48a.2.2,0,0,1,.2-.2h2.49a.2.2,0,0,1,.2.2V15.6A.2.2,0,0,1,15.939,15.794Z" transform="translate(-5.939 -13.412)" fill="#f5f5f5"></path><path id="Path_13501" data-name="Path 13501" d="M15.005,17h-2.49a.2.2,0,0,1-.2-.2V15.066a.2.2,0,0,1,.2-.2h2.49a.2.2,0,0,1,.2.2v1.742A.2.2,0,0,1,15.005,17Z" transform="translate(-12.32 -9.408)" fill="#f5f5f5"></path><path id="Path_13502" data-name="Path 13502" d="M15.005,16.377h-2.49a.2.2,0,0,1-.2-.2V14.774a.2.2,0,0,1,.2-.2h2.49a.2.2,0,0,1,.2.2v1.408A.2.2,0,0,1,15.005,16.377Z" transform="translate(-12.32 -11.4)" fill="#f5f5f5"></path><path id="Path_13503" data-name="Path 13503" d="M15.005,15.794h-2.49a.2.2,0,0,1-.2-.2V14.48a.2.2,0,0,1,.2-.2h2.49a.2.2,0,0,1,.2.2V15.6A.2.2,0,0,1,15.005,15.794Z" transform="translate(-12.32 -13.412)" fill="#f5f5f5"></path></g><g id="Group_727" data-name="Group 727" transform="translate(95.961 109.431)"><path id="Path_13504" data-name="Path 13504" d="M14.948,14.084v1.2l-1.76-.609Z" transform="translate(-5.877 -13.224)" fill="#ff4b55"></path><path id="Path_13505" data-name="Path 13505" d="M14.014,14.084v1.2l-1.76-.609Z" transform="translate(-12.254 -13.224)" fill="#ff4b55"></path><path id="Path_13506" data-name="Path 13506" d="M14.482,13.974v1.2l-1.76-.608Z" transform="translate(-9.059 -13.974)" fill="#ff4b55"></path></g><path id="Path_13507" data-name="Path 13507" d="M37.759,15.407H11.305a25.251,25.251,0,0,0,1.311,2.222H36.449A25.341,25.341,0,0,0,37.759,15.407Z" transform="translate(77.226 105.246)" fill="#4173cd"></path><path id="Path_13508" data-name="Path 13508" d="M35.3,15.691H11.472a22.328,22.328,0,0,0,3.89,4.444H31.415a22.318,22.318,0,0,0,3.89-4.444Z" transform="translate(78.369 107.184)" fill="#73af00"></path><path id="Path_13509" data-name="Path 13509" d="M11.969,16.258A21.542,21.542,0,0,0,20,20.7a21.537,21.537,0,0,0,8.027-4.444Z" transform="translate(81.762 111.061)" fill="#ffe15a"></path><path id="Path_13510" data-name="Path 13510" d="M23.792,26.262a.859.859,0,0,1-.338.037c-.135-.058-.412-.067-.245-.58.081-.255.251-.613.128-.706l-.323-.375-.775-.9c-.584-.643-1.276-1.383-2.083-2.112L18.914,20.5c-.438-.369-.843-.783-1.32-1.127a7.98,7.98,0,0,0-.913-.324,2.448,2.448,0,0,1-.69-.529L14.76,17.383c-.811-.726-1.523-1.446-2.132-2.065-.591-.591-1.068-1.1-1.4-1.478a.884.884,0,0,1,.044-1.231l.987-.953a.884.884,0,0,1,1.232,0c.362.35.858.845,1.427,1.457.6.631,1.291,1.368,1.987,2.2l1.092,1.271a2.453,2.453,0,0,1,.5.709,8.008,8.008,0,0,0,.292.924c.327.489.725.909,1.079,1.359l1.082,1.281a29.662,29.662,0,0,0,2.036,2.157l.87.807.363.336c.089.126.453-.031.71-.1.519-.149.518.128.571.266a.864.864,0,0,1-.049.336Z" transform="translate(75.111 77.919)" fill="#be7855"></path><path id="Path_13511" data-name="Path 13511" d="M11.966,24.35a.833.833,0,0,1-.669-1.328l7.916-10.74a.833.833,0,1,1,1.341.989l-7.916,10.74A.832.832,0,0,1,11.966,24.35Z" transform="translate(76.054 81.581)" fill="#965032"></path><path id="Path_13512" data-name="Path 13512" d="M12.05,14.359l4.12,2.732,1.759-2.454-3.842-3.1Z" transform="translate(82.314 78.795)" fill="#f5f5f5"></path><path id="Path_13513" data-name="Path 13513" d="M13.448,12.555,24.007,25.576s1.484.068,1.282-1.113L14.359,11.644Z" transform="translate(91.865 79.543)" fill="#965032"></path><path id="Path_13514" data-name="Path 13514" d="M13.147,14.078s2.969-.54,4.216-2.4l1.687,1.99s-2.766,1.957-3.036,4.082A4.492,4.492,0,0,1,13.147,14.078Z" transform="translate(89.805 79.807)" fill="#eaf3f5"></path><g id="Group_728" data-name="Group 728" transform="translate(103.017 89.942)"><path id="Path_13515" data-name="Path 13515" d="M15.256,14.147a.54.54,0,0,1-.478-.289,1.712,1.712,0,0,1-.154-1.531,1.579,1.579,0,0,1,1-.828.546.546,0,0,1,.658.388.539.539,0,0,1-.383.656.52.52,0,0,0-.293.225.775.775,0,0,0,.124.588.539.539,0,0,1-.478.791Z" transform="translate(-3.92 -11.485)" fill="#965032"></path><path id="Path_13516" data-name="Path 13516" d="M15.817,13.5a.54.54,0,0,0-.289-.478A1.71,1.71,0,0,0,14,12.873a1.58,1.58,0,0,0-.828,1,.546.546,0,0,0,.388.658.539.539,0,0,0,.656-.383.52.52,0,0,1,.225-.293.776.776,0,0,1,.588.124.539.539,0,0,0,.791-.478Z" transform="translate(-13.155 -2.81)" fill="#965032"></path></g><path id="Path_13517" data-name="Path 13517" d="M23.319,11.67l-9.94,9.76,2.339,2.609,9.715-9.8Z" transform="translate(91.394 79.719)" fill="#eaf3f5"></path><path id="Path_13518" data-name="Path 13518" d="M10.761,9.889a.8.8,0,0,1,.648,1.389c-.6.648-2.341,1.819-2.87,1.713C7.612,12.805,6.965,10.769,10.761,9.889Z" transform="translate(53.465 67.432)" fill="#ffbe3c"></path><path id="Path_13519" data-name="Path 13519" d="M18.56,10.009c-.618-.154-1.159.741-.6,1.389s2.17,1.819,2.661,1.713C21.478,12.925,22.079,10.888,18.56,10.009Z" transform="translate(121.084 68.249)" fill="#965032"></path><path id="Path_13520" data-name="Path 13520" d="M43.66,12.12a1.561,1.561,0,0,1,1.508,1.608V32.119c0,4.444-2.083,20-16.666,24.444-14.583-4.444-16.666-20-16.666-24.444V13.728a1.561,1.561,0,0,1,1.508-1.608H43.66m0-1.111H13.343a2.674,2.674,0,0,0-2.619,2.719V32.119a31.855,31.855,0,0,0,2.969,12.694A23.228,23.228,0,0,0,28.177,57.625l.324.1.324-.1A23.228,23.228,0,0,0,43.309,44.813a31.855,31.855,0,0,0,2.969-12.694V13.728a2.673,2.673,0,0,0-2.619-2.719Z" transform="translate(73.256 75.201)" fill="#464655"></path><path id="Path_13521" data-name="Path 13521" d="M62.922,17.563C58.2,15.98,53.134,16.71,48.357,19.9c-6.107,4.071-10.155,4.071-12.1,4.071s-5.994,0-12.1-4.071c-4.777-3.185-9.845-3.916-14.565-2.335v4.764c2.975-1.422,7.169-2.017,12.1,1.269,7.226,4.818,12.37,4.818,14.565,4.818s7.339,0,14.565-4.818c4.931-3.29,9.125-2.693,12.1-1.27Z" transform="translate(65.515 114.461)" fill="#eaf3f5"></path><path id="Path_13522" data-name="Path 13522" d="M62.425,118.947A56.665,56.665,0,1,1,119.09,62.282,56.73,56.73,0,0,1,62.425,118.947Zm0-111.108a54.443,54.443,0,1,0,54.443,54.443A54.5,54.5,0,0,0,62.425,7.839Z" transform="translate(39.346 38.371)" fill="#965032"></path><g id="Group_729" data-name="Group 729" transform="translate(39.781 39.937)"><path id="Path_13523" data-name="Path 13523" d="M5.081,19.514s-.231-6.944,6.435-6.944A4.357,4.357,0,0,1,9.248,16.5,22.7,22.7,0,0,0,5.081,19.514Z" transform="translate(-5.08 45.925)" fill="#73af00"></path><path id="Path_13524" data-name="Path 13524" d="M12.338,19.514s.231-6.944-6.435-6.944A4.357,4.357,0,0,0,8.171,16.5,22.7,22.7,0,0,1,12.338,19.514Z" transform="translate(0.534 45.925)" fill="#73af00"></path><path id="Path_13525" data-name="Path 13525" d="M26.52,12.569s.231,6.944-6.435,6.944a4.356,4.356,0,0,1,2.268-3.935A22.737,22.737,0,0,0,26.52,12.569Z" transform="translate(97.413 45.925)" fill="#73af00"></path><path id="Path_13526" data-name="Path 13526" d="M19.263,12.569s-.231,6.944,6.435,6.944a4.356,4.356,0,0,0-2.268-3.935A22.738,22.738,0,0,1,19.263,12.569Z" transform="translate(91.798 45.925)" fill="#73af00"></path><path id="Path_13527" data-name="Path 13527" d="M19.494,26.54s-6.944.231-6.944-6.435a4.356,4.356,0,0,1,3.935,2.268A22.738,22.738,0,0,0,19.494,26.54Z" transform="translate(45.945 97.393)" fill="#73af00"></path><path id="Path_13528" data-name="Path 13528" d="M19.494,19.283s-6.944-.231-6.944,6.435a4.356,4.356,0,0,0,3.935-2.268A22.737,22.737,0,0,1,19.494,19.283Z" transform="translate(45.945 91.778)" fill="#73af00"></path><path id="Path_13529" data-name="Path 13529" d="M12.55,5.1s6.944-.231,6.944,6.435a4.357,4.357,0,0,1-3.935-2.268A22.722,22.722,0,0,0,12.55,5.1Z" transform="translate(45.945 -5.1)" fill="#73af00"></path><path id="Path_13530" data-name="Path 13530" d="M12.55,12.358s6.944.231,6.944-6.435a4.357,4.357,0,0,0-3.935,2.268A22.722,22.722,0,0,1,12.55,12.358Z" transform="translate(45.945 0.514)" fill="#73af00"></path><path id="Path_13531" data-name="Path 13531" d="M9.775,27.174s-5.074-4.747-.36-9.461A4.356,4.356,0,0,1,10.593,22.1,22.752,22.752,0,0,0,9.775,27.174Z" transform="translate(10.831 81.064)" fill="#73af00"></path><path id="Path_13532" data-name="Path 13532" d="M17.126,19.823s-4.747-5.074-9.461-.36a4.356,4.356,0,0,0,4.387,1.178A22.711,22.711,0,0,1,17.126,19.823Z" transform="translate(12.581 79.314)" fill="#73af00"></path><path id="Path_13533" data-name="Path 13533" d="M19.17,7.1s5.074,4.747.36,9.461a4.356,4.356,0,0,1-1.178-4.387A22.727,22.727,0,0,0,19.17,7.1Z" transform="translate(84.158 8.591)" fill="#73af00"></path><path id="Path_13534" data-name="Path 13534" d="M17.112,9.162s4.747,5.074,9.461.36a4.357,4.357,0,0,0-4.387-1.179A22.735,22.735,0,0,1,17.112,9.162Z" transform="translate(77.114 15.635)" fill="#73af00"></path><path id="Path_13535" data-name="Path 13535" d="M27.154,19.191s-4.747,5.074-9.461.36a4.357,4.357,0,0,1,4.387-1.179A22.7,22.7,0,0,0,27.154,19.191Z" transform="translate(81.084 84.137)" fill="#73af00"></path><path id="Path_13536" data-name="Path 13536" d="M19.8,17.132s-5.074,4.747-.36,9.461a4.357,4.357,0,0,0,1.179-4.387A22.7,22.7,0,0,1,19.8,17.132Z" transform="translate(79.334 77.094)" fill="#73af00"></path><path id="Path_13537" data-name="Path 13537" d="M7.084,9.795s4.747-5.074,9.461-.36a4.356,4.356,0,0,1-4.387,1.178A22.738,22.738,0,0,0,7.084,9.795Z" transform="translate(8.611 10.811)" fill="#73af00"></path><path id="Path_13538" data-name="Path 13538" d="M9.142,17.146s5.074-4.747.36-9.461a4.357,4.357,0,0,0-1.179,4.387A22.709,22.709,0,0,1,9.142,17.146Z" transform="translate(15.655 12.561)" fill="#73af00"></path><path id="Path_13539" data-name="Path 13539" d="M6.435,24.2s-2.871-6.327,3.288-8.878a4.357,4.357,0,0,1-.59,4.5A22.711,22.711,0,0,0,6.435,24.2Z" transform="translate(-0.388 64.693)" fill="#73af00"></path><path id="Path_13540" data-name="Path 13540" d="M14.875,19.787s-2.444-6.5-8.6-3.953a4.357,4.357,0,0,0,3.6,2.767A22.713,22.713,0,0,1,14.875,19.787Z" transform="translate(3.063 64.175)" fill="#73af00"></path><path id="Path_13541" data-name="Path 13541" d="M23.335,9.575s2.871,6.327-3.288,8.878a4.357,4.357,0,0,1,.59-4.5A22.71,22.71,0,0,0,23.335,9.575Z" transform="translate(94.552 25.471)" fill="#73af00"></path><path id="Path_13542" data-name="Path 13542" d="M18.615,10.2s2.444,6.5,8.6,3.953a4.357,4.357,0,0,0-3.6-2.767A22.738,22.738,0,0,1,18.615,10.2Z" transform="translate(87.38 29.767)" fill="#73af00"></path><path id="Path_13543" data-name="Path 13543" d="M24.175,23.355s-6.327,2.871-8.878-3.288a4.357,4.357,0,0,1,4.5.59A22.721,22.721,0,0,0,24.175,23.355Z" transform="translate(64.713 94.532)" fill="#73af00"></path><path id="Path_13544" data-name="Path 13544" d="M19.767,18.635s-6.5,2.444-3.953,8.6a4.357,4.357,0,0,0,2.767-3.6A22.714,22.714,0,0,1,19.767,18.635Z" transform="translate(64.195 87.36)" fill="#73af00"></path><path id="Path_13545" data-name="Path 13545" d="M9.555,6.455s6.327-2.871,8.878,3.288a4.357,4.357,0,0,1-4.5-.59A22.711,22.711,0,0,0,9.555,6.455Z" transform="translate(25.491 -0.408)" fill="#73af00"></path><path id="Path_13546" data-name="Path 13546" d="M10.184,14.895s6.5-2.444,3.953-8.6a4.357,4.357,0,0,0-2.767,3.6A22.713,22.713,0,0,1,10.184,14.895Z" transform="translate(29.787 3.044)" fill="#73af00"></path><path id="Path_13547" data-name="Path 13547" d="M14.34,28s-6.5-2.444-3.953-8.6A4.357,4.357,0,0,1,13.154,23,22.72,22.72,0,0,0,14.34,28Z" transform="translate(27.121 92.548)" fill="#73af00"></path><path id="Path_13548" data-name="Path 13548" d="M18.748,19.558s-6.327-2.871-8.878,3.288a4.357,4.357,0,0,0,4.5-.59A22.711,22.711,0,0,1,18.748,19.558Z" transform="translate(27.639 89.095)" fill="#73af00"></path><path id="Path_13549" data-name="Path 13549" d="M15.611,5.533s6.5,2.444,3.953,8.6a4.357,4.357,0,0,1-2.767-3.6A22.72,22.72,0,0,0,15.611,5.533Z" transform="translate(66.861 -2.143)" fill="#73af00"></path><path id="Path_13550" data-name="Path 13550" d="M14.982,10.253s6.327,2.871,8.878-3.288a4.357,4.357,0,0,0-4.5.59A22.732,22.732,0,0,1,14.982,10.253Z" transform="translate(62.564 5.028)" fill="#73af00"></path><path id="Path_13551" data-name="Path 13551" d="M27.977,15.631s-2.444,6.5-8.6,3.953a4.357,4.357,0,0,1,3.6-2.767A22.72,22.72,0,0,0,27.977,15.631Z" transform="translate(92.567 66.841)" fill="#73af00"></path><path id="Path_13552" data-name="Path 13552" d="M19.538,15s-2.871,6.327,3.288,8.878a4.357,4.357,0,0,0-.59-4.5A22.71,22.71,0,0,1,19.538,15Z" transform="translate(89.115 62.544)" fill="#73af00"></path><path id="Path_13553" data-name="Path 13553" d="M5.513,14.36s2.444-6.5,8.6-3.953a4.357,4.357,0,0,1-3.6,2.767A22.72,22.72,0,0,0,5.513,14.36Z" transform="translate(-2.124 27.101)" fill="#73af00"></path><path id="Path_13554" data-name="Path 13554" d="M10.233,18.768S13.1,12.441,6.945,9.89a4.357,4.357,0,0,0,.59,4.5A22.733,22.733,0,0,1,10.233,18.768Z" transform="translate(5.048 27.619)" fill="#73af00"></path><path id="Path_13555" data-name="Path 13555" d="M5.465,22.028s-1.582-6.766,4.957-8.066a4.356,4.356,0,0,1-1.457,4.3A22.741,22.741,0,0,0,5.465,22.028Z" transform="translate(-3.596 55.434)" fill="#73af00"></path><path id="Path_13556" data-name="Path 13556" d="M13.618,19.66S12.49,12.8,5.952,14.1a4.356,4.356,0,0,0,2.992,3.417A22.728,22.728,0,0,1,13.618,19.66Z" transform="translate(0.875 55.29)" fill="#73af00"></path><path id="Path_13557" data-name="Path 13557" d="M25.078,11.034S26.66,17.8,20.121,19.1a4.356,4.356,0,0,1,1.457-4.3A22.72,22.72,0,0,0,25.078,11.034Z" transform="translate(96.987 35.438)" fill="#73af00"></path><path id="Path_13558" data-name="Path 13558" d="M19.055,11.355s1.128,6.856,7.666,5.555a4.356,4.356,0,0,0-2.992-3.417A22.729,22.729,0,0,1,19.055,11.355Z" transform="translate(90.386 37.629)" fill="#73af00"></path><path id="Path_13559" data-name="Path 13559" d="M22.008,25.1s-6.766,1.582-8.066-4.957a4.357,4.357,0,0,1,4.3,1.457A22.722,22.722,0,0,0,22.008,25.1Z" transform="translate(55.454 96.967)" fill="#73af00"></path><path id="Path_13560" data-name="Path 13560" d="M19.64,19.075s-6.856,1.128-5.555,7.666A4.356,4.356,0,0,0,17.5,23.749,22.728,22.728,0,0,1,19.64,19.075Z" transform="translate(55.31 90.366)" fill="#73af00"></path><path id="Path_13561" data-name="Path 13561" d="M11.014,5.485S17.78,3.9,19.081,10.442a4.356,4.356,0,0,1-4.3-1.457A22.74,22.74,0,0,0,11.014,5.485Z" transform="translate(35.458 -3.616)" fill="#73af00"></path><path id="Path_13562" data-name="Path 13562" d="M11.335,13.638s6.856-1.128,5.555-7.666a4.356,4.356,0,0,0-3.417,2.992A22.729,22.729,0,0,1,11.335,13.638Z" transform="translate(37.649 0.855)" fill="#73af00"></path><path id="Path_13563" data-name="Path 13563" d="M11.949,27.871s-5.9-3.666-2.2-9.208a4.356,4.356,0,0,1,2.011,4.073A22.731,22.731,0,0,0,11.949,27.871Z" transform="translate(18.479 87.548)" fill="#73af00"></path><path id="Path_13564" data-name="Path 13564" d="M18.034,19.717s-5.645-4.051-9.349,1.492a4.357,4.357,0,0,0,4.532.3A22.712,22.712,0,0,1,18.034,19.717Z" transform="translate(19.544 84.999)" fill="#73af00"></path><path id="Path_13565" data-name="Path 13565" d="M17.02,6.187s5.9,3.666,2.2,9.208a4.357,4.357,0,0,1-2.012-4.073A22.716,22.716,0,0,0,17.02,6.187Z" transform="translate(76.486 2.328)" fill="#73af00"></path><path id="Path_13566" data-name="Path 13566" d="M16.107,9.574s5.645,4.051,9.349-1.492a4.357,4.357,0,0,0-4.532-.3A22.729,22.729,0,0,1,16.107,9.574Z" transform="translate(70.248 9.643)" fill="#73af00"></path><path id="Path_13567" data-name="Path 13567" d="M27.851,17.04s-3.666,5.9-9.208,2.2a4.357,4.357,0,0,1,4.073-2.012A22.716,22.716,0,0,0,27.851,17.04Z" transform="translate(87.568 76.466)" fill="#73af00"></path><path id="Path_13568" data-name="Path 13568" d="M19.7,16.127s-4.051,5.645,1.492,9.349a4.357,4.357,0,0,0,.3-4.532A22.742,22.742,0,0,1,19.7,16.127Z" transform="translate(85.019 70.228)" fill="#73af00"></path><path id="Path_13569" data-name="Path 13569" d="M6.167,11.968s3.666-5.9,9.208-2.2A4.357,4.357,0,0,1,11.3,11.782,22.716,22.716,0,0,0,6.167,11.968Z" transform="translate(2.348 18.459)" fill="#73af00"></path><path id="Path_13570" data-name="Path 13570" d="M9.554,18.054S13.6,12.408,8.062,8.7a4.357,4.357,0,0,0-.3,4.532A22.736,22.736,0,0,1,9.554,18.054Z" transform="translate(9.663 19.525)" fill="#73af00"></path><path id="Path_13571" data-name="Path 13571" d="M7.906,25.933S3.855,20.288,9.4,16.584a4.357,4.357,0,0,1,.3,4.532A22.712,22.712,0,0,0,7.906,25.933Z" transform="translate(4.468 73.347)" fill="#73af00"></path><path id="Path_13572" data-name="Path 13572" d="M16.059,19.848s-3.666-5.9-9.208-2.2a4.357,4.357,0,0,0,4.073,2.012A22.69,22.69,0,0,1,16.059,19.848Z" transform="translate(7.016 72.282)" fill="#73af00"></path><path id="Path_13573" data-name="Path 13573" d="M21.346,8.248S25.4,13.893,19.854,17.6a4.356,4.356,0,0,1-.3-4.532A22.725,22.725,0,0,0,21.346,8.248Z" transform="translate(90.215 16.406)" fill="#73af00"></path><path id="Path_13574" data-name="Path 13574" d="M17.959,9.161s3.666,5.9,9.208,2.2A4.357,4.357,0,0,0,23.1,9.348,22.716,22.716,0,0,1,17.959,9.161Z" transform="translate(82.899 22.643)" fill="#73af00"></path><path id="Path_13575" data-name="Path 13575" d="M25.913,21.366s-5.645,4.05-9.349-1.492a4.357,4.357,0,0,1,4.532-.3A22.726,22.726,0,0,0,25.913,21.366Z" transform="translate(73.367 90.195)" fill="#73af00"></path><path id="Path_13576" data-name="Path 13576" d="M19.828,17.979s-5.9,3.666-2.2,9.208a4.357,4.357,0,0,0,2.012-4.073A22.687,22.687,0,0,1,19.828,17.979Z" transform="translate(72.302 82.879)" fill="#73af00"></path><path id="Path_13577" data-name="Path 13577" d="M8.228,7.925s5.645-4.051,9.349,1.492a4.357,4.357,0,0,1-4.532.3A22.712,22.712,0,0,0,8.228,7.925Z" transform="translate(16.426 4.448)" fill="#73af00"></path><path id="Path_13578" data-name="Path 13578" d="M9.141,16.079s5.9-3.666,2.2-9.208a4.357,4.357,0,0,0-2.012,4.073A22.716,22.716,0,0,1,9.141,16.079Z" transform="translate(22.663 6.996)" fill="#73af00"></path><path id="Path_13579" data-name="Path 13579" d="M16.873,27.547s-6.856-1.128-5.555-7.666a4.356,4.356,0,0,1,3.417,2.992A22.728,22.728,0,0,0,16.873,27.547Z" transform="translate(36.41 95.872)" fill="#73af00"></path><path id="Path_13580" data-name="Path 13580" d="M19.241,19.395s-6.766-1.582-8.066,4.957a4.356,4.356,0,0,0,4.3-1.457A22.722,22.722,0,0,1,19.241,19.395Z" transform="translate(36.553 91.401)" fill="#73af00"></path><path id="Path_13581" data-name="Path 13581" d="M14.1,5.165s6.856,1.128,5.555,7.666A4.356,4.356,0,0,1,16.24,9.839,22.729,22.729,0,0,0,14.1,5.165Z" transform="translate(56.549 -4.651)" fill="#73af00"></path><path id="Path_13582" data-name="Path 13582" d="M13.781,11.188s6.766,1.582,8.066-4.957a4.356,4.356,0,0,0-4.3,1.457A22.7,22.7,0,0,1,13.781,11.188Z" transform="translate(54.358 1.95)" fill="#73af00"></path><path id="Path_13583" data-name="Path 13583" d="M27.528,14.122s-1.128,6.856-7.666,5.555a4.356,4.356,0,0,1,2.992-3.417A22.729,22.729,0,0,0,27.528,14.122Z" transform="translate(95.892 56.529)" fill="#73af00"></path><path id="Path_13584" data-name="Path 13584" d="M19.375,13.8s-1.582,6.766,4.957,8.066a4.357,4.357,0,0,0-1.457-4.3A22.7,22.7,0,0,1,19.375,13.8Z" transform="translate(91.421 54.338)" fill="#73af00"></path><path id="Path_13585" data-name="Path 13585" d="M5.146,16.893s1.128-6.856,7.666-5.555a4.356,4.356,0,0,1-2.992,3.417A22.729,22.729,0,0,0,5.146,16.893Z" transform="translate(-4.631 36.39)" fill="#73af00"></path><path id="Path_13586" data-name="Path 13586" d="M11.168,19.261S12.75,12.5,6.212,11.195a4.356,4.356,0,0,0,1.457,4.3A22.721,22.721,0,0,1,11.168,19.261Z" transform="translate(1.97 36.533)" fill="#73af00"></path></g></g></g></svg>