<svg xmlns="http://www.w3.org/2000/svg" xmlns:xlink="http://www.w3.org/1999/xlink" width="202" height="203" viewBox="0 0 202 203"><defs><clipPath id="clip-path"><rect id="Rectangle_2431" data-name="Rectangle 2431" width="202" height="203" rx="5" transform="translate(0.376 0.322)" fill="#47b962"></rect></clipPath></defs><g id="Mask_Group_47" data-name="Mask Group 47" transform="translate(-0.377 -0.322)" clip-path="url(#clip-path)"><g id="haiti" transform="translate(-0.425 -0.92)"><rect id="Rectangle_2483" data-name="Rectangle 2483" width="202" height="203" transform="translate(0.801 1.243)" fill="#a2001d"></rect><path id="Path_13899" data-name="Path 13899" d="M203.6,0V99.428L0,101.9V0Z" transform="translate(0)" fill="#0052b4"></path><path id="Path_13900" data-name="Path 13900" d="M101.4,79.3,54.184,73.4,6.971,79.3V8.478H101.4Z" transform="translate(47.618 57.915)" fill="#f0f0f0"></path><ellipse id="Ellipse_141" data-name="Ellipse 141" cx="23.605" cy="23.605" rx="23.605" ry="23.605" transform="translate(78.197 84.097)" fill="#0052b4"></ellipse><ellipse id="Ellipse_142" data-name="Ellipse 142" cx="11.803" cy="11.803" rx="11.803" ry="11.803" transform="translate(89.999 95.899)" fill="#a2001d"></ellipse><path id="Path_13901" data-name="Path 13901" d="M10.739,9.985h35.41l-17.7,17.7Z" transform="translate(73.358 68.21)" fill="#6da544"></path><rect id="Rectangle_2484" data-name="Rectangle 2484" width="11.803" height="35.409" transform="translate(95.902 89.997)" fill="#ffda44"></rect><path id="Path_13902" data-name="Path 13902" d="M73.069,15.562H35.3L6.971,30.906H101.4Z" transform="translate(47.618 106.305)" fill="#6da544"></path></g></g></svg>