<svg xmlns="http://www.w3.org/2000/svg" xmlns:xlink="http://www.w3.org/1999/xlink" width="208" height="208" viewBox="0 0 208 208"><defs><clipPath id="clip-path"><rect id="Rectangle_2639" data-name="Rectangle 2639" width="208" height="208" rx="5" transform="translate(-0.056 0.316)" fill="#47b962"></rect></clipPath></defs><g id="Mask_Group_124" data-name="Mask Group 124" transform="translate(0.057 -0.316)" clip-path="url(#clip-path)"><g id="cuba" transform="translate(0.497 -0.196)"><g id="Group_899" data-name="Group 899" transform="translate(0.168)"><path id="Path_14963" data-name="Path 14963" d="M161.874,0H45.219A45.368,45.368,0,0,0,.021,41.477H207.072A45.368,45.368,0,0,0,161.874,0Z" transform="translate(-0.021)" fill="#41479b"></path><path id="Path_14964" data-name="Path 14964" d="M45.219,62.277H161.874a45.368,45.368,0,0,0,45.2-41.477H.021A45.368,45.368,0,0,0,45.219,62.277Z" transform="translate(-0.021 145.109)" fill="#41479b"></path></g><path id="Path_14965" data-name="Path 14965" d="M.168,5.2C.059,6.482,0,7.778,0,9.088V46.677H207.386V9.088c0-1.31-.059-2.607-.168-3.888Z" transform="translate(0 36.277)" fill="#f5f5f5"></path><rect id="Rectangle_2638" data-name="Rectangle 2638" width="207.386" height="41.477" transform="translate(0 82.955)" fill="#41479b"></rect><path id="Path_14966" data-name="Path 14966" d="M0,53.189C0,54.5.059,55.8.168,57.077H207.219c.109-1.282.168-2.578.168-3.889V15.6H0Z" transform="translate(0 108.832)" fill="#f5f5f5"></path><path id="Path_14967" data-name="Path 14967" d="M102.846,89.765,13.389,1.653A45.224,45.224,0,0,0,0,33.831V150.486a45.224,45.224,0,0,0,13.389,32.178l89.456-88.112A3.805,3.805,0,0,0,102.846,89.765Z" transform="translate(0 11.534)" fill="#ff4b55"></path><path id="Path_14968" data-name="Path 14968" d="M29.22,10.555l5.6,16.8,17.71.137a1.428,1.428,0,0,1,.837,2.577L39.123,40.591l5.342,16.886a1.428,1.428,0,0,1-2.192,1.593l-14.409-10.3L13.457,59.07a1.428,1.428,0,0,1-2.192-1.593l5.342-16.886L2.36,30.07A1.428,1.428,0,0,1,3.2,27.494l17.71-.137,5.6-16.8A1.427,1.427,0,0,1,29.22,10.555Z" transform="translate(12.4 66.827)" fill="#f5f5f5"></path></g></g></svg>