<svg xmlns="http://www.w3.org/2000/svg" xmlns:xlink="http://www.w3.org/1999/xlink" width="208" height="208" viewBox="0 0 208 208"><defs><clipPath id="clip-path"><rect id="Rectangle_2634" data-name="Rectangle 2634" width="208" height="208" rx="5" transform="translate(0.438 0.196)" fill="#47b962"></rect></clipPath></defs><g id="Mask_Group_121" data-name="Mask Group 121" transform="translate(-0.438 -0.196)" clip-path="url(#clip-path)"><g id="uruguay" transform="translate(0.497 0.847)"><path id="Path_14896" data-name="Path 14896" d="M46.042.088h115.3A46.041,46.041,0,0,1,207.386,46.13V160.022a46.042,46.042,0,0,1-46.042,46.042H46.041A46.041,46.041,0,0,1,0,160.022V46.13A46.042,46.042,0,0,1,46.042.088Z" transform="translate(0 -0.088)" fill="#f0f0f0"></path><path id="Path_14897" data-name="Path 14897" d="M47.221.088h105.9A46.041,46.041,0,0,1,199.16,46.13V160.022a46.042,46.042,0,0,1-46.042,46.042H47.221A46.041,46.041,0,0,1,1.179,160.022V46.13A46.042,46.042,0,0,1,47.221.088Z" transform="translate(8.227 -0.088)" fill="#f0f0f0"></path><g id="Group_897" data-name="Group 897" transform="translate(0 0)"><path id="Path_14898" data-name="Path 14898" d="M202.586,22.032H.321A46.219,46.219,0,0,0,43.8,52.978h115.3A46.22,46.22,0,0,0,202.586,22.032Z" transform="translate(2.24 152.998)" fill="#338af3" fill-rule="evenodd"></path><path id="Path_14899" data-name="Path 14899" d="M0,43.667H207.386V14.749C138.177,15.01,69.312,15.4,0,15.529Z" transform="translate(0 102.191)" fill="#338af3" fill-rule="evenodd"></path><path id="Path_14900" data-name="Path 14900" d="M11.9,7.4H124.391V36.575H11.9Z" transform="translate(82.995 50.94)" fill="#338af3"></path><path id="Path_14901" data-name="Path 14901" d="M11.9,29.26H121.172A46.21,46.21,0,0,0,78.35.088H11.9Z" transform="translate(82.995 -0.088)" fill="#338af3" fill-rule="evenodd"></path></g><path id="Path_14902" data-name="Path 14902" d="M17.706,39.565c-5.459,2.138-6.5,11.956-13.753,9.34,7.3,4.968,10.1-2.485,18.15-3.564l-10.45,15.3L24.83,51.6c-.915,5.518,3.144,13.524-3.021,16.137C31.552,64.887,27,58.969,32.477,52.325L35.8,70.6l2.9-15.642c3.255,5.032,11.463,6.513,9.377,13.266,4.466-7.912-2.066-9.915-3.844-18.245L59.528,60.639l-8.854-13.2c5.32,1.8,13.245-3.637,16.066,2.874-2.641-9.073-8.282-5.18-15.329-10.394L69.944,36.6,53.985,33.594c4.825-2.286,6.781-11.846,13.439-9.3-8.085-4.8-9.849,2.725-18.216,3.566l10.433-15.07-13.124,8.9c1.6-5.655-3.586-13.22,2.88-16.087-8.236,1.631-5.861,8.938-10.288,15.362L35.719,2.947,32.831,18.372c-2.383-5.3-11.823-6.11-9.333-13.537-5.052,8.641,2.795,9.95,3.46,18.238l-15.307-10.8,9.124,13.376c-5.911-.913-13.008,3.516-16.107-2.7,2.628,9.16,8.26,5.195,15.378,10.122L1.864,36.6Z" transform="translate(13.002 19.852)" fill="#ffda44" fill-rule="evenodd"></path></g></g></svg>