<svg xmlns="http://www.w3.org/2000/svg" xmlns:xlink="http://www.w3.org/1999/xlink" width="204" height="205" viewBox="0 0 204 205"><defs><clipPath id="clip-path"><rect id="Rectangle_2611" data-name="Rectangle 2611" width="204" height="205" rx="5" transform="translate(0.14 -0.223)" fill="#fff"></rect></clipPath></defs><g id="Mask_Group_111" data-name="Mask Group 111" transform="translate(-0.141 0.223)" clip-path="url(#clip-path)"><g id="mexico" transform="translate(-0.087 -0.662)"><path id="Path_14722" data-name="Path 14722" d="M44.724,0A44.724,44.724,0,0,0,0,44.724V159.73a44.724,44.724,0,0,0,44.724,44.724H68.152V0Z" fill="#73af00"></path><rect id="Rectangle_2610" data-name="Rectangle 2610" width="68.153" height="204.455" transform="translate(68.153)" fill="#f5f5f5"></rect><path id="Path_14723" data-name="Path 14723" d="M40.761,0H17.333V204.455H40.761A44.724,44.724,0,0,0,85.485,159.73V44.724A44.724,44.724,0,0,0,40.761,0Z" transform="translate(118.97)" fill="#ff4b55"></path><path id="Path_14724" data-name="Path 14724" d="M19.08,13.4,13,16.441v3.04h3.04Z" transform="translate(89.227 91.979)" fill="#ffd250"></path><g id="Group_876" data-name="Group 876" transform="translate(85.508 103.861)"><path id="Path_14725" data-name="Path 14725" d="M14.327,23.1a1.519,1.519,0,0,1-1.52-1.52V15.5a1.52,1.52,0,0,1,3.04,0v6.08A1.519,1.519,0,0,1,14.327,23.1Z" transform="translate(2.393 -7.901)" fill="#00c3a0"></path><path id="Path_14726" data-name="Path 14726" d="M27.593,22.327A23.827,23.827,0,0,1,11.359,15.84a1.52,1.52,0,1,1,2.069-2.227,20.8,20.8,0,0,0,14.165,5.673,20.8,20.8,0,0,0,14.165-5.673,1.52,1.52,0,0,1,2.069,2.227A23.827,23.827,0,0,1,27.593,22.327Z" transform="translate(-10.874 -13.208)" fill="#00c3a0"></path></g><path id="Path_14727" data-name="Path 14727" d="M22.528,20.226a19.669,19.669,0,0,1-10.916-3.294L13.3,14.4a16.956,16.956,0,0,0,18.466,0l1.683,2.532A19.669,19.669,0,0,1,22.528,20.226Z" transform="translate(79.699 98.835)" fill="#00aadc"></path><path id="Path_14728" data-name="Path 14728" d="M16.121,12.531l-3.356,5.193-.57,1.71,8.74-2.027Z" transform="translate(83.699 86.01)" fill="#732d37"></path><path id="Path_14729" data-name="Path 14729" d="M20.65,33.975c-4.018,0-8.841-3.381-10.12-10.916l3-.508c1.063,6.265,4.918,8.388,7.232,8.382.71-.019,1.45-.264,1.508-.766.068-.6.085-.742-1.505-1.279a5.5,5.5,0,0,1-2.531-1.41c-2.78-3.175.984-6.536,2.792-8.151.319-.285.451-.527.417-.619a1.626,1.626,0,0,0-1.368-.653,3.713,3.713,0,0,1-3.822-2.846,4.06,4.06,0,0,1,1.985-4.554l1.4,2.7a1.059,1.059,0,0,0-.426,1.134c.037.157.128.524.868.524a4.527,4.527,0,0,1,4.208,2.61,3.477,3.477,0,0,1-1.232,3.97c-2,1.783-3.191,3.125-2.529,3.88a4.284,4.284,0,0,0,1.217.531c1.368.463,3.916,1.324,3.55,4.508-.228,2-2.016,3.392-4.444,3.457Z" transform="translate(72.274 73.14)" fill="#aad264"></path><path id="Path_14730" data-name="Path 14730" d="M16.04,19.516s3.04-6.08-3.04-9.12c0,0,21.28-3.04,18.24,24.32h0c-2-1.6-4.957-4.513-6.015-6.838l-9.183-5.32v-3.04Z" transform="translate(89.227 70.665)" fill="#874150"></path><path id="Path_14731" data-name="Path 14731" d="M13,12.241l15.2,9.12L22.12,24.4,13,15.281Z" transform="translate(89.227 84.019)" fill="#732d37"></path><path id="Path_14732" data-name="Path 14732" d="M12.227,13.735h0a3.04,3.04,0,0,1,3.04,3.04l0,0a5.959,5.959,0,0,0-1.116,6.878l.687,1.374a5.959,5.959,0,0,0,1.116,1.549l8.436,8.436v-4.2a33.715,33.715,0,0,0-3.559-15.077h0a9.12,9.12,0,0,0-8.157-5.041h-.444v3.04Z" transform="translate(83.921 73.406)" fill="#783c46"></path><path id="Path_14733" data-name="Path 14733" d="M14.88,10.695l-3.04,3.04v3.04s3.616-1.834,4.835-2.418a1.1,1.1,0,0,0,.208-1.839C16.5,12.157,14.88,10.695,14.88,10.695Z" transform="translate(81.267 73.406)" fill="#ffd250"></path><path id="Path_14734" data-name="Path 14734" d="M35.554,38.467a25.868,25.868,0,0,1-25.84-25.84h3.04a22.8,22.8,0,0,0,45.6,0h3.04A25.87,25.87,0,0,1,35.554,38.467Z" transform="translate(66.674 86.673)" fill="#aad264"></path><g id="Group_877" data-name="Group 877" transform="translate(77.526 106.258)"><circle id="Ellipse_188" data-name="Ellipse 188" cx="2.063" cy="2.063" r="2.063" fill="#ffe15a"></circle><circle id="Ellipse_189" data-name="Ellipse 189" cx="2.063" cy="2.063" r="2.063" transform="translate(4.56 7.284)" fill="#ffe15a"></circle><circle id="Ellipse_190" data-name="Ellipse 190" cx="2.063" cy="2.063" r="2.063" transform="translate(11.972 12.794)" fill="#ffe15a"></circle><circle id="Ellipse_191" data-name="Ellipse 191" cx="2.063" cy="2.063" r="2.063" transform="translate(45.491)" fill="#ffe15a"></circle><circle id="Ellipse_192" data-name="Ellipse 192" cx="2.063" cy="2.063" r="2.063" transform="translate(40.931 7.284)" fill="#ffe15a"></circle><circle id="Ellipse_193" data-name="Ellipse 193" cx="2.063" cy="2.063" r="2.063" transform="translate(33.519 12.794)" fill="#ffe15a"></circle></g><path id="Path_14735" data-name="Path 14735" d="M18.5,20.641H15.46a3.04,3.04,0,0,1-3.04-3.04h0a3.04,3.04,0,0,1,3.04-3.04H18.5a3.04,3.04,0,0,1,3.04,3.04h0A3.04,3.04,0,0,1,18.5,20.641Z" transform="translate(85.247 99.939)" fill="#ffb478"></path><path id="Path_14736" data-name="Path 14736" d="M25.223,27.876a11.152,11.152,0,0,0,6.015,6.838h0C34.28,7.356,13,10.4,13,10.4,28.2,10.4,25.223,27.876,25.223,27.876Z" transform="translate(89.227 70.665)" fill="#9b4b5a"></path></g></g></svg>