<svg xmlns="http://www.w3.org/2000/svg" xmlns:xlink="http://www.w3.org/1999/xlink" width="204" height="203" viewBox="0 0 204 203"><defs><clipPath id="clip-path"><rect id="Rectangle_2429" data-name="Rectangle 2429" width="204" height="203" rx="5" transform="translate(-0.148 0.322)" fill="#47b962"></rect></clipPath></defs><g id="Mask_Group_44" data-name="Mask Group 44" transform="translate(0.148 -0.322)" clip-path="url(#clip-path)"><g id="espana" transform="translate(0.822 -0.92)"><path id="Path_13809" data-name="Path 13809" d="M159.068,0H44.539A44.539,44.539,0,0,0,0,44.539V159.068a44.539,44.539,0,0,0,44.539,44.539H159.068a44.539,44.539,0,0,0,44.539-44.539V44.539A44.539,44.539,0,0,0,159.068,0Z" fill="#c8414b"></path><rect id="Rectangle_2463" data-name="Rectangle 2463" width="203.607" height="118.8" transform="translate(0 42.403)" fill="#ffd250"></rect><path id="Path_13810" data-name="Path 13810" d="M14.238,26.794l3.283-13.388A2.033,2.033,0,0,0,15.395,11H13.082a2.033,2.033,0,0,0-2.126,2.4Z" transform="translate(74.478 75.173)" fill="#c8414b"></path><rect id="Rectangle_2464" data-name="Rectangle 2464" width="7.744" height="29.825" transform="translate(84.843 94.947)" fill="#f5f5f5"></rect><rect id="Rectangle_2465" data-name="Rectangle 2465" width="11.616" height="3.509" transform="translate(82.91 91.44)" fill="#fab446"></rect><g id="Group_754" data-name="Group 754" transform="translate(27.304 86.177)"><rect id="Rectangle_2466" data-name="Rectangle 2466" width="19.359" height="3.509" transform="translate(47.859 15.789)" fill="#c8414b"></rect><path id="Path_13811" data-name="Path 13811" d="M22.2,20.935,10.587,17.426V13.917L22.2,17.426Z" transform="translate(45.018 8.89)" fill="#c8414b"></path><path id="Path_13812" data-name="Path 13812" d="M6.822,26.794,10.1,13.407A2.033,2.033,0,0,0,7.978,11H5.666a2.033,2.033,0,0,0-2.126,2.4Z" transform="translate(-3.487 -11.005)" fill="#c8414b"></path></g><path id="Path_13813" data-name="Path 13813" d="M9.02,11.677a3.7,3.7,0,0,0-3.872,3.509V37.993c0,4.263,4.391,12.281,19.359,12.281s19.359-8.018,19.359-12.281V15.186A3.7,3.7,0,0,0,40,11.677Z" transform="translate(35.17 79.764)" fill="#f5f5f5"></path><g id="Group_755" data-name="Group 755" transform="translate(40.318 91.44)"><path id="Path_13814" data-name="Path 13814" d="M24.508,29.221H5.149V15.363a3.686,3.686,0,0,1,3.686-3.686H24.508Z" transform="translate(-5.149 -11.677)" fill="#c8414b"></path><path id="Path_13815" data-name="Path 13815" d="M7.621,13.917H26.98v8.33a9.215,9.215,0,0,1-9.215,9.215h-.93a9.215,9.215,0,0,1-9.215-9.215v-8.33Z" transform="translate(11.739 3.627)" fill="#c8414b"></path></g><path id="Path_13816" data-name="Path 13816" d="M5.149,13.917H24.508v8.33a9.215,9.215,0,0,1-9.215,9.215h-.93a9.215,9.215,0,0,1-9.215-9.215S5.149,13.917,5.149,13.917Z" transform="translate(35.17 95.068)" fill="#fab446"></path><g id="Group_756" data-name="Group 756" transform="translate(44.191 108.985)"><path id="Path_13817" data-name="Path 13817" d="M10.5,29.667V13.917H6.632V31.284A10.075,10.075,0,0,0,10.5,29.667Z" transform="translate(1.112 -13.917)" fill="#c8414b"></path><path id="Path_13818" data-name="Path 13818" d="M9.515,31.284V13.917H5.643v15.75A10.073,10.073,0,0,0,9.515,31.284Z" transform="translate(-5.643 -13.917)" fill="#c8414b"></path></g><rect id="Rectangle_2467" data-name="Rectangle 2467" width="11.616" height="3.509" transform="translate(44.189 101.966)" fill="#ffb441"></rect><g id="Group_757" data-name="Group 757" transform="translate(44.189 94.947)"><rect id="Rectangle_2468" data-name="Rectangle 2468" width="11.616" height="3.509" fill="#fab446"></rect><rect id="Rectangle_2469" data-name="Rectangle 2469" width="7.744" height="6.357" transform="translate(1.937 2.088)" fill="#fab446"></rect></g><rect id="Rectangle_2470" data-name="Rectangle 2470" width="7.744" height="29.825" transform="translate(26.767 94.947)" fill="#f5f5f5"></rect><g id="Group_758" data-name="Group 758" transform="translate(24.83 91.44)"><rect id="Rectangle_2471" data-name="Rectangle 2471" width="11.616" height="3.509" transform="translate(0 31.579)" fill="#fab446"></rect><rect id="Rectangle_2472" data-name="Rectangle 2472" width="11.616" height="3.509" fill="#fab446"></rect></g><rect id="Rectangle_2473" data-name="Rectangle 2473" width="15.487" height="3.509" transform="translate(22.894 126.53)" fill="#5064aa"></rect><rect id="Rectangle_2474" data-name="Rectangle 2474" width="11.616" height="3.509" transform="translate(84.843 123.019)" fill="#fab446"></rect><rect id="Rectangle_2475" data-name="Rectangle 2475" width="15.487" height="3.509" transform="translate(80.973 126.53)" fill="#5064aa"></rect><rect id="Rectangle_2476" data-name="Rectangle 2476" width="23.232" height="3.509" transform="translate(48.062 87.933)" fill="#fab446"></rect><rect id="Rectangle_2477" data-name="Rectangle 2477" width="3.872" height="10.527" transform="translate(57.742 77.406)" fill="#ffb441"></rect><g id="Group_759" data-name="Group 759" transform="translate(42.255 72.142)"><path id="Path_13819" data-name="Path 13819" d="M12.192,19.739a5.562,5.562,0,0,1-5.808-5.263,5.562,5.562,0,0,1,5.808-5.263A5.562,5.562,0,0,1,18,14.475,5.562,5.562,0,0,1,12.192,19.739Zm0-7.018a1.853,1.853,0,0,0-1.936,1.755,1.853,1.853,0,0,0,1.936,1.755,1.853,1.853,0,0,0,1.936-1.755A1.853,1.853,0,0,0,12.192,12.721Z" transform="translate(1.359 -9.212)" fill="#f5f5f5"></path><path id="Path_13820" data-name="Path 13820" d="M13.181,19.739a5.562,5.562,0,0,1-5.808-5.263,5.562,5.562,0,0,1,5.808-5.263,5.562,5.562,0,0,1,5.808,5.263A5.561,5.561,0,0,1,13.181,19.739Zm0-7.018a1.853,1.853,0,0,0-1.936,1.755,1.853,1.853,0,0,0,1.936,1.755,1.853,1.853,0,0,0,1.936-1.755A1.853,1.853,0,0,0,13.181,12.721Z" transform="translate(8.114 -9.212)" fill="#f5f5f5"></path><path id="Path_13821" data-name="Path 13821" d="M14.17,20.187a5.562,5.562,0,0,1-5.808-5.263A5.562,5.562,0,0,1,14.17,9.66a5.562,5.562,0,0,1,5.808,5.263A5.562,5.562,0,0,1,14.17,20.187Zm0-7.018a1.853,1.853,0,0,0-1.936,1.755,1.853,1.853,0,0,0,1.936,1.755,1.853,1.853,0,0,0,1.936-1.755A1.853,1.853,0,0,0,14.17,13.169Z" transform="translate(14.869 -6.151)" fill="#f5f5f5"></path><path id="Path_13822" data-name="Path 13822" d="M11.2,20.187A5.562,5.562,0,0,1,5.4,14.924,5.562,5.562,0,0,1,11.2,9.66a5.562,5.562,0,0,1,5.808,5.263A5.562,5.562,0,0,1,11.2,20.187Zm0-7.018a1.853,1.853,0,0,0-1.936,1.755A1.853,1.853,0,0,0,11.2,16.678a1.853,1.853,0,0,0,1.936-1.755A1.853,1.853,0,0,0,11.2,13.169Z" transform="translate(-5.396 -6.151)" fill="#f5f5f5"></path></g><path id="Path_13823" data-name="Path 13823" d="M15.859,17.874v1.755a1.854,1.854,0,0,1-1.936,1.755,1.854,1.854,0,0,1-1.936-1.755V17.874h3.872m3.872-3.509H8.115v5.263a5.562,5.562,0,0,0,5.808,5.263,5.562,5.562,0,0,0,5.808-5.263V14.365Z" transform="translate(55.434 98.128)" fill="#fab446"></path><path id="Path_13824" data-name="Path 13824" d="M12.42,22.651h-.372a3.686,3.686,0,0,1-3.686-3.686V15.811a3.686,3.686,0,0,1,3.686-3.686h.372a3.686,3.686,0,0,1,3.686,3.686v3.155A3.686,3.686,0,0,1,12.42,22.651Z" transform="translate(57.123 82.824)" fill="#ffa0d2"></path><ellipse id="Ellipse_135" data-name="Ellipse 135" cx="5.808" cy="5.263" rx="5.808" ry="5.263" transform="translate(53.871 103.722)" fill="#5064aa"></ellipse><rect id="Rectangle_2478" data-name="Rectangle 2478" width="3.872" height="10.527" transform="translate(57.742 70.387)" fill="#fab446"></rect><path id="Path_13825" data-name="Path 13825" d="M9.515,20.411,5.643,16.9l2.268-2.056A19.72,19.72,0,0,1,21.13,9.884h0A19.722,19.722,0,0,1,34.35,14.847L36.617,16.9l-3.872,3.509Z" transform="translate(38.548 67.521)" fill="#c8414b"></path><g id="Group_760" data-name="Group 760" transform="translate(50 82.667)"><ellipse id="Ellipse_136" data-name="Ellipse 136" cx="1.936" cy="1.755" rx="1.936" ry="1.755" transform="translate(7.743)" fill="#ffd250"></ellipse><ellipse id="Ellipse_137" data-name="Ellipse 137" cx="1.936" cy="1.755" rx="1.936" ry="1.755" fill="#ffd250"></ellipse><ellipse id="Ellipse_138" data-name="Ellipse 138" cx="1.936" cy="1.755" rx="1.936" ry="1.755" transform="translate(15.485)" fill="#ffd250"></ellipse></g><g id="Group_761" data-name="Group 761" transform="translate(24.83 101.966)"><rect id="Rectangle_2479" data-name="Rectangle 2479" width="19.359" height="3.509" fill="#c8414b"></rect><path id="Path_13826" data-name="Path 13826" d="M3.171,20.935l11.616-3.509V13.917L3.171,17.426Z" transform="translate(-3.17 -6.899)" fill="#c8414b"></path></g></g></g></svg>