<svg xmlns="http://www.w3.org/2000/svg" xmlns:xlink="http://www.w3.org/1999/xlink" width="204" height="204" viewBox="0 0 204 204"><defs><clipPath id="clip-path"><rect id="Rectangle_2615" data-name="Rectangle 2615" width="204" height="204" rx="5" transform="translate(0.14 0.271)" fill="#fff"></rect></clipPath></defs><g id="Mask_Group_113" data-name="Mask Group 113" transform="translate(-0.141 -0.271)" clip-path="url(#clip-path)"><g id="paraguay" transform="translate(-0.087 0.378)"><path id="Path_14750" data-name="Path 14750" d="M159.73,0H44.724A44.724,44.724,0,0,0,0,44.724V68.152H204.455V44.724A44.724,44.724,0,0,0,159.73,0Z" fill="#ff4b55"></path><path id="Path_14751" data-name="Path 14751" d="M0,40.761A44.724,44.724,0,0,0,44.724,85.485H159.73a44.724,44.724,0,0,0,44.724-44.724V17.333H0Z" transform="translate(0 118.97)" fill="#41479b"></path><rect id="Rectangle_2614" data-name="Rectangle 2614" width="204.455" height="68.153" transform="translate(0 68.153)" fill="#f5f5f5"></rect><path id="Path_14752" data-name="Path 14752" d="M36.481,9.579a26.9,26.9,0,1,0,26.9,26.9A26.9,26.9,0,0,0,36.481,9.579Zm0,47.191A20.289,20.289,0,1,1,56.769,36.481,20.289,20.289,0,0,1,36.481,56.77Z" transform="translate(65.747 65.746)" fill="#ff4b55"></path><circle id="Ellipse_195" data-name="Ellipse 195" cx="9.331" cy="9.331" r="9.331" transform="translate(92.896 92.896)" fill="#41479b"></circle><path id="Path_14753" data-name="Path 14753" d="M20.156,12.483l1.5,4.51,4.754.037a.641.641,0,0,1,.375,1.156L22.965,21.01,24.4,25.543a.641.641,0,0,1-.983.714l-3.868-2.765-3.867,2.765a.641.641,0,0,1-.983-.714l1.434-4.533-3.824-2.824a.641.641,0,0,1,.376-1.156l4.754-.037,1.5-4.51A.64.64,0,0,1,20.156,12.483Z" transform="translate(82.679 82.675)" fill="#ffe15a"></path><path id="Path_14754" data-name="Path 14754" d="M46.117,26.648s.533-2.466-2.09.493a12.156,12.156,0,0,0-.036-1.537c.577-.625,1.293-1.991,1.125-4.908,0,0-.411-2.489-1.762,1.227a9.667,9.667,0,0,0-.761-1.7c.326-.675.577-1.9-.2-4.235,0,0-.912-1.993-1.2,1.431a6.114,6.114,0,0,0-1.236-1.4c.094-.552.02-1.5-1.082-3.036,0,0-1.1-1.231-.544,1.3,0,0-1.006-.815-1.328-.719a5.154,5.154,0,0,0-2.273-2.372s-1.406-.77.207,1.239c0,0-1.426-.565-1.409-.242s.706.922,1.273,1.189c0,0-2.091.217-1.233.683,0,0,2.122.732,3.4.028a2.461,2.461,0,0,0,.619,1.087s-2.489-.483-1.815.264A6.161,6.161,0,0,0,39.48,16.6a3.587,3.587,0,0,0,.415,1.656s-2.968-1.587-2.406-.375a8.344,8.344,0,0,0,4.136,2.89,4.306,4.306,0,0,0,.033,1.694S38.841,19.8,39.1,21.317a9.564,9.564,0,0,0,3.565,4.448,4.332,4.332,0,0,0-.413,1.253s-1.641-3.511-1.959-2.006c0,0-.054,3.507,1.818,5.6a4.379,4.379,0,0,0-1.029,1.251s-.359-3.858-1.166-2.549a9.761,9.761,0,0,0-.361,5.442,4.367,4.367,0,0,0-1.445.746s1.19-3.688-.067-2.8a9.782,9.782,0,0,0-2.41,5.148,4.085,4.085,0,0,0-1.98.549s1.7-3.48.332-2.783A10,10,0,0,0,30.911,40.2c-.577.329-1.559.89-2.539,1.446l-1.6-.929.016-.026-5.553-4.655.11,1.523-2.788-4.987-.344,1.7L17.3,28.759l-.81.813.313-5.143L15.748,25l1.917-3.826-.9.254,2.369-2.271-1.252.107,2.995-1.36-1.095-.168,2.924-1.48-1.259-.062,3.79-1.311-.694-.607,3.281-.968-3.931-.3,1.12-1.378-3,1.535.43-2.075-2.624,2.7.456-1.892L17.82,14.342l.159-1.844L15.551,16.61l-.313-1.84L13.22,19.386l-.555-2.011-.9,5.725-.752-.852L12,27.771l-1.253-.94,2.3,4.96a17.835,17.835,0,0,0-1.88-.731c-.209,0,3.994,4.268,3.994,4.268l-2.193-.235L17.2,38.073l-1.575.389,3.524,1.37-.862.666,7.3.522s.7.586,1.66,1.264c-.505.285-.949.533-1.225.684a1.03,1.03,0,0,1-.894.045c-.692-.29-1.7-.7-2.178-.894a2.174,2.174,0,0,0,2.206,2.126,7.071,7.071,0,0,0,3.221-1.212,7.208,7.208,0,0,0,3.34,1.33,2.159,2.159,0,0,0,2.159-2.126c-.473.194-1.454.6-2.131.894a.988.988,0,0,1-.875-.045c-.3-.167-.791-.449-1.356-.775.576-.391,1.06-.745,1.4-1.007.531.418,2.053,1.152,5.453-.125,0,0,2.255-1.132-1.7-1.318A11.543,11.543,0,0,0,35.9,38.811c.648.333,2.249.728,5.293-.943,0,0,2.071-1.442-1.865-1.063a12.679,12.679,0,0,0,.939-1.033c.679.076,2.356-.105,4.579-2.949,0,0,1.335-2.142-2.134-.242a9.632,9.632,0,0,0,.554-1.785C44.032,30.429,45.2,29.422,46.117,26.648Z" transform="translate(73.761 75.797)" fill="#64c86e"></path></g></g></svg>