<svg xmlns="http://www.w3.org/2000/svg" xmlns:xlink="http://www.w3.org/1999/xlink" width="204" height="207" viewBox="0 0 204 207"><defs><clipPath id="clip-path"><rect id="Rectangle_2613" data-name="Rectangle 2613" width="204" height="207" rx="5" transform="translate(0.14 -0.377)" fill="#fff"></rect></clipPath></defs><g id="Mask_Group_112" data-name="Mask Group 112" transform="translate(-0.141 0.377)" clip-path="url(#clip-path)"><g id="brasil" transform="translate(-0.087 0.956)"><path id="Path_14737" data-name="Path 14737" d="M159.73,0H44.724A44.724,44.724,0,0,0,0,44.724V159.73a44.724,44.724,0,0,0,44.724,44.724H159.73a44.724,44.724,0,0,0,44.724-44.724V44.724A44.724,44.724,0,0,0,159.73,0Z" fill="#73af00"></path><rect id="Rectangle_2612" data-name="Rectangle 2612" width="118.026" height="118.026" transform="translate(102.227 18.768) rotate(45)" fill="#ffe15a"></rect><circle id="Ellipse_194" data-name="Ellipse 194" cx="34.59" cy="34.59" r="34.59" transform="translate(67.638 67.638)" fill="#41479b"></circle><g id="Group_878" data-name="Group 878" transform="translate(68.821 84.498)"><path id="Path_14738" data-name="Path 14738" d="M12.476,10.78a34.34,34.34,0,0,0-3.725,8.854c19.175-1.443,47.54,3.921,65.595,21.44a34.347,34.347,0,0,0,2.248-9.562C57.952,15.823,32.18,10.243,12.476,10.78Z" transform="translate(-8.752 -10.745)" fill="#f5f5f5"></path><path id="Path_14739" data-name="Path 14739" d="M17.517,14.735l.921,2.761,2.911.022a.392.392,0,0,1,.23.708l-2.342,1.729.878,2.775a.392.392,0,0,1-.6.437l-2.368-1.693-2.368,1.693a.392.392,0,0,1-.6-.437l.878-2.775-2.342-1.729a.392.392,0,0,1,.23-.708l2.911-.022.921-2.761A.392.392,0,0,1,17.517,14.735Z" transform="translate(17.322 14.798)" fill="#f5f5f5"></path><path id="Path_14740" data-name="Path 14740" d="M16.487,15.51l.4,1.189,1.253.01a.169.169,0,0,1,.1.3l-1.008.744.378,1.194a.169.169,0,0,1-.259.188l-1.019-.728-1.019.728a.169.169,0,0,1-.259-.188l.378-1.194-1.008-.744a.169.169,0,0,1,.1-.3l1.253-.01.4-1.189A.169.169,0,0,1,16.487,15.51Z" transform="translate(29.665 21.167)" fill="#f5f5f5"></path><path id="Path_14741" data-name="Path 14741" d="M14.426,13.935l.4,1.189,1.253.01a.169.169,0,0,1,.1.3l-1.008.744.378,1.194a.169.169,0,0,1-.259.188l-1.019-.728-1.019.728a.169.169,0,0,1-.259-.188l.378-1.194-1.008-.744a.169.169,0,0,1,.1-.3l1.253-.01.4-1.189A.169.169,0,0,1,14.426,13.935Z" transform="translate(15.521 10.353)" fill="#f5f5f5"></path><path id="Path_14742" data-name="Path 14742" d="M11.635,13.752l.4,1.189,1.253.01a.169.169,0,0,1,.1.3L12.375,16l.378,1.194a.169.169,0,0,1-.259.188l-1.019-.728-1.019.728a.169.169,0,0,1-.259-.188L10.574,16l-1.008-.744a.169.169,0,0,1,.1-.3l1.253-.01.4-1.189A.169.169,0,0,1,11.635,13.752Z" transform="translate(-3.635 9.095)" fill="#f5f5f5"></path><path id="Path_14743" data-name="Path 14743" d="M13.97,15.458l.4,1.189,1.253.01a.169.169,0,0,1,.1.3l-1.008.744.378,1.194a.169.169,0,0,1-.259.188l-1.019-.728-1.019.728a.169.169,0,0,1-.259-.188l.378-1.194L11.9,16.961a.169.169,0,0,1,.1-.3l1.253-.01.4-1.189A.169.169,0,0,1,13.97,15.458Z" transform="translate(12.39 20.809)" fill="#f5f5f5"></path><path id="Path_14744" data-name="Path 14744" d="M12.345,13.628l.324.972,1.025.008a.138.138,0,0,1,.081.249l-.824.609.309.977a.138.138,0,0,1-.212.154l-.833-.6-.833.6a.138.138,0,0,1-.212-.154l.309-.977-.824-.609a.138.138,0,0,1,.081-.249l1.025-.008.324-.972A.138.138,0,0,1,12.345,13.628Z" transform="translate(3.913 8.39)" fill="#f5f5f5"></path><path id="Path_14745" data-name="Path 14745" d="M16.641,11.1l.405,1.216,1.281.01a.173.173,0,0,1,.1.311L17.4,13.4l.387,1.222a.173.173,0,0,1-.265.192l-1.043-.745-1.043.745a.173.173,0,0,1-.265-.192l.387-1.222-1.031-.761a.173.173,0,0,1,.1-.311l1.281-.01.405-1.216A.173.173,0,0,1,16.641,11.1Z" transform="translate(30.391 -9.142)" fill="#f5f5f5"></path><path id="Path_14746" data-name="Path 14746" d="M11.474,12.872l.324.972,1.025.008a.138.138,0,0,1,.081.249l-.824.609.309.977a.138.138,0,0,1-.212.154l-.834-.6-.833.6a.138.138,0,0,1-.212-.154l.309-.977L9.783,14.1a.138.138,0,0,1,.081-.249l1.025-.008.324-.972A.138.138,0,0,1,11.474,12.872Z" transform="translate(-2.063 3.2)" fill="#f5f5f5"></path><path id="Path_14747" data-name="Path 14747" d="M12.889,14.656l.491,1.472,1.552.012a.209.209,0,0,1,.123.377l-1.248.922.468,1.479a.209.209,0,0,1-.321.233l-1.262-.9-1.262.9a.209.209,0,0,1-.321-.233l.468-1.479-1.248-.922a.209.209,0,0,1,.123-.377L12,16.128l.491-1.472A.209.209,0,0,1,12.889,14.656Z" transform="translate(1.47 15.113)" fill="#f5f5f5"></path><path id="Path_14748" data-name="Path 14748" d="M16.878,15.527l.309.926.976.008a.131.131,0,0,1,.077.237l-.785.58.294.931a.132.132,0,0,1-.2.147l-.794-.568-.794.568a.132.132,0,0,1-.2-.147l.294-.931-.785-.58a.131.131,0,0,1,.077-.237l.976-.008.309-.926A.132.132,0,0,1,16.878,15.527Z" transform="translate(35.583 21.458)" fill="#f5f5f5"></path><path id="Path_14749" data-name="Path 14749" d="M17.723,14.651l.4,1.189,1.253.01a.169.169,0,0,1,.1.3l-1.008.744.378,1.195a.169.169,0,0,1-.259.188l-1.019-.728-1.019.728a.169.169,0,0,1-.259-.188l.378-1.195-1.008-.744a.169.169,0,0,1,.1-.3l1.253-.01.4-1.189A.169.169,0,0,1,17.723,14.651Z" transform="translate(38.153 15.267)" fill="#f5f5f5"></path></g></g></g></svg>